<svg id="Camada_1" data-name="Camada 1" xmlns="http://www.w3.org/2000/svg" viewBox="0 0 337.71 436.97"><defs><style>.cls-1{fill:#16110d;}.cls-2{fill:#ffbe2e;}.cls-3{fill:#fec;}</style></defs><title>Bomba</title><path class="cls-1" d="M395.55,154.09a.53.53,0,0,1,0,1,2,2,0,0,1-1.74,0,.53.53,0,0,1,0-1A2,2,0,0,1,395.55,154.09Z" transform="translate(-80.88 -31)"/><path class="cls-1" d="M400.08,151.47a.53.53,0,0,1,0,1,2,2,0,0,1-1.73,0,.53.53,0,0,1,0-1A2,2,0,0,1,400.08,151.47Z" transform="translate(-80.88 -31)"/><ellipse class="cls-1" cx="322.87" cy="118.36" rx="1.23" ry="0.71"/><ellipse class="cls-1" cx="327.41" cy="115.74" rx="1.23" ry="0.71"/><ellipse class="cls-1" cx="331.95" cy="113.12" rx="1.23" ry="0.71"/><ellipse class="cls-1" cx="336.48" cy="110.5" rx="1.23" ry="0.71"/><path class="cls-1" d="M386.47,154.09a.53.53,0,0,1,0,1,2,2,0,0,1-1.73,0,.53.53,0,0,1,0-1A2,2,0,0,1,386.47,154.09Z" transform="translate(-80.88 -31)"/><path class="cls-1" d="M391,151.47a.53.53,0,0,1,0,1,2,2,0,0,1-1.73,0,.53.53,0,0,1,0-1A2,2,0,0,1,391,151.47Z" transform="translate(-80.88 -31)"/><path class="cls-1" d="M395.55,148.85a.53.53,0,0,1,0,1,2,2,0,0,1-1.74,0,.53.53,0,0,1,0-1A2,2,0,0,1,395.55,148.85Z" transform="translate(-80.88 -31)"/><path class="cls-1" d="M400.08,146.24c.48.27.48.72,0,1a2,2,0,0,1-1.73,0c-.48-.28-.48-.73,0-1A1.89,1.89,0,0,1,400.08,146.24Z" transform="translate(-80.88 -31)"/><path class="cls-1" d="M404.62,143.62c.48.27.48.72,0,1a2,2,0,0,1-1.73,0c-.48-.28-.48-.73,0-1A1.89,1.89,0,0,1,404.62,143.62Z" transform="translate(-80.88 -31)"/><path class="cls-1" d="M409.16,141c.48.27.48.72,0,1a2,2,0,0,1-1.74,0c-.48-.28-.48-.73,0-1A1.91,1.91,0,0,1,409.16,141Z" transform="translate(-80.88 -31)"/><path class="cls-1" d="M413.7,138.38a.53.53,0,0,1,0,1,1.91,1.91,0,0,1-1.74,0c-.48-.28-.48-.73,0-1A1.91,1.91,0,0,1,413.7,138.38Z" transform="translate(-80.88 -31)"/><path class="cls-1" d="M418.23,135.76c.48.27.48.72,0,1a1.89,1.89,0,0,1-1.73,0c-.48-.28-.48-.73,0-1A1.89,1.89,0,0,1,418.23,135.76Z" transform="translate(-80.88 -31)"/><ellipse class="cls-1" cx="295.61" cy="123.57" rx="1.23" ry="0.71"/><path class="cls-1" d="M381.9,151.45c.48.27.48.72,0,1a2,2,0,0,1-1.74,0c-.48-.28-.48-.73,0-1A1.91,1.91,0,0,1,381.9,151.45Z" transform="translate(-80.88 -31)"/><path class="cls-1" d="M386.43,148.83c.48.27.48.72,0,1a1.89,1.89,0,0,1-1.73,0c-.48-.28-.48-.73,0-1A1.89,1.89,0,0,1,386.43,148.83Z" transform="translate(-80.88 -31)"/><ellipse class="cls-1" cx="309.22" cy="115.71" rx="1.23" ry="0.71"/><path class="cls-1" d="M395.51,143.59c.48.27.48.72,0,1a1.91,1.91,0,0,1-1.74,0c-.48-.28-.48-.73,0-1A1.91,1.91,0,0,1,395.51,143.59Z" transform="translate(-80.88 -31)"/><path class="cls-1" d="M400.05,141a.53.53,0,0,1,0,1,1.91,1.91,0,0,1-1.74,0,.53.53,0,0,1,0-1A1.91,1.91,0,0,1,400.05,141Z" transform="translate(-80.88 -31)"/><path class="cls-1" d="M404.58,138.35a.53.53,0,0,1,0,1,1.89,1.89,0,0,1-1.73,0,.53.53,0,0,1,0-1A1.89,1.89,0,0,1,404.58,138.35Z" transform="translate(-80.88 -31)"/><path class="cls-1" d="M409.12,135.73a.53.53,0,0,1,0,1,1.91,1.91,0,0,1-1.74,0,.53.53,0,0,1,0-1A1.91,1.91,0,0,1,409.12,135.73Z" transform="translate(-80.88 -31)"/><path class="cls-1" d="M413.66,133.11c.48.28.48.73,0,1a1.91,1.91,0,0,1-1.74,0c-.48-.27-.48-.72,0-1A1.91,1.91,0,0,1,413.66,133.11Z" transform="translate(-80.88 -31)"/><path class="cls-1" d="M418.19,130.49c.48.28.48.73,0,1a1.89,1.89,0,0,1-1.73,0c-.48-.27-.48-.72,0-1A1.89,1.89,0,0,1,418.19,130.49Z" transform="translate(-80.88 -31)"/><ellipse class="cls-1" cx="286.54" cy="123.57" rx="1.23" ry="0.71"/><path class="cls-1" d="M372.82,151.45c.48.27.48.72,0,1a2,2,0,0,1-1.73,0c-.48-.28-.48-.73,0-1A1.89,1.89,0,0,1,372.82,151.45Z" transform="translate(-80.88 -31)"/><path class="cls-1" d="M377.36,148.83c.48.27.48.72,0,1a1.91,1.91,0,0,1-1.74,0,.53.53,0,0,1,0-1A1.91,1.91,0,0,1,377.36,148.83Z" transform="translate(-80.88 -31)"/><path class="cls-1" d="M381.9,146.21c.48.27.48.72,0,1a1.91,1.91,0,0,1-1.74,0c-.48-.28-.48-.73,0-1A1.91,1.91,0,0,1,381.9,146.21Z" transform="translate(-80.88 -31)"/><path class="cls-1" d="M386.43,143.59c.48.27.48.72,0,1a1.89,1.89,0,0,1-1.73,0c-.48-.28-.48-.73,0-1A1.89,1.89,0,0,1,386.43,143.59Z" transform="translate(-80.88 -31)"/><path class="cls-1" d="M391,141a.53.53,0,0,1,0,1,1.89,1.89,0,0,1-1.73,0,.53.53,0,0,1,0-1A1.89,1.89,0,0,1,391,141Z" transform="translate(-80.88 -31)"/><path class="cls-1" d="M395.51,138.35a.53.53,0,0,1,0,1,1.91,1.91,0,0,1-1.74,0,.53.53,0,0,1,0-1A1.91,1.91,0,0,1,395.51,138.35Z" transform="translate(-80.88 -31)"/><ellipse class="cls-1" cx="318.3" cy="105.23" rx="1.23" ry="0.71"/><ellipse class="cls-1" cx="322.83" cy="102.61" rx="1.23" ry="0.71"/><ellipse class="cls-1" cx="327.37" cy="99.99" rx="1.23" ry="0.71"/><path class="cls-1" d="M413.66,127.87c.48.28.48.73,0,1a1.91,1.91,0,0,1-1.74,0c-.48-.27-.48-.72,0-1A2,2,0,0,1,413.66,127.87Z" transform="translate(-80.88 -31)"/><path class="cls-1" d="M418.19,125.25c.48.28.48.73,0,1a1.89,1.89,0,0,1-1.73,0c-.48-.27-.48-.72,0-1A2,2,0,0,1,418.19,125.25Z" transform="translate(-80.88 -31)"/><path class="cls-1" d="M363.75,151.45c.48.27.48.72,0,1a2,2,0,0,1-1.74,0c-.48-.28-.48-.73,0-1A1.91,1.91,0,0,1,363.75,151.45Z" transform="translate(-80.88 -31)"/><path class="cls-1" d="M368.29,148.83c.48.27.48.72,0,1a1.91,1.91,0,0,1-1.74,0c-.48-.28-.48-.73,0-1A1.91,1.91,0,0,1,368.29,148.83Z" transform="translate(-80.88 -31)"/><ellipse class="cls-1" cx="291.08" cy="115.71" rx="1.23" ry="0.71"/><path class="cls-1" d="M377.36,143.59c.48.27.48.72,0,1a1.91,1.91,0,0,1-1.74,0,.53.53,0,0,1,0-1A1.91,1.91,0,0,1,377.36,143.59Z" transform="translate(-80.88 -31)"/><path class="cls-1" d="M381.9,141a.53.53,0,0,1,0,1,1.91,1.91,0,0,1-1.74,0,.53.53,0,0,1,0-1A1.91,1.91,0,0,1,381.9,141Z" transform="translate(-80.88 -31)"/><path class="cls-1" d="M386.43,138.35a.53.53,0,0,1,0,1,1.89,1.89,0,0,1-1.73,0,.53.53,0,0,1,0-1A1.89,1.89,0,0,1,386.43,138.35Z" transform="translate(-80.88 -31)"/><path class="cls-1" d="M391,135.73a.53.53,0,0,1,0,1,1.89,1.89,0,0,1-1.73,0,.53.53,0,0,1,0-1A1.89,1.89,0,0,1,391,135.73Z" transform="translate(-80.88 -31)"/><path class="cls-1" d="M395.51,133.11c.48.28.48.73,0,1a1.91,1.91,0,0,1-1.74,0c-.48-.27-.48-.72,0-1A1.91,1.91,0,0,1,395.51,133.11Z" transform="translate(-80.88 -31)"/><path class="cls-1" d="M400.05,130.49a.53.53,0,0,1,0,1,1.91,1.91,0,0,1-1.74,0c-.48-.27-.48-.72,0-1A1.91,1.91,0,0,1,400.05,130.49Z" transform="translate(-80.88 -31)"/><ellipse class="cls-1" cx="322.83" cy="97.37" rx="1.23" ry="0.71"/><ellipse class="cls-1" cx="327.37" cy="94.75" rx="1.23" ry="0.71"/><path class="cls-1" d="M413.66,122.63c.48.28.48.73,0,1a1.91,1.91,0,0,1-1.74,0c-.48-.27-.48-.72,0-1A2,2,0,0,1,413.66,122.63Z" transform="translate(-80.88 -31)"/><ellipse class="cls-1" cx="277.46" cy="118.33" rx="1.23" ry="0.71"/><path class="cls-1" d="M363.75,146.21c.48.27.48.72,0,1a1.91,1.91,0,0,1-1.74,0c-.48-.28-.48-.73,0-1A1.91,1.91,0,0,1,363.75,146.21Z" transform="translate(-80.88 -31)"/><path class="cls-1" d="M368.29,143.59c.48.27.48.72,0,1a1.91,1.91,0,0,1-1.74,0c-.48-.28-.48-.73,0-1A1.91,1.91,0,0,1,368.29,143.59Z" transform="translate(-80.88 -31)"/><path class="cls-1" d="M372.82,141a.53.53,0,0,1,0,1,1.89,1.89,0,0,1-1.73,0,.53.53,0,0,1,0-1A1.89,1.89,0,0,1,372.82,141Z" transform="translate(-80.88 -31)"/><path class="cls-1" d="M377.36,138.35a.53.53,0,0,1,0,1,1.89,1.89,0,0,1-1.73,0,.53.53,0,0,1,0-1A1.89,1.89,0,0,1,377.36,138.35Z" transform="translate(-80.88 -31)"/><path class="cls-1" d="M381.9,135.73a.53.53,0,0,1,0,1,1.91,1.91,0,0,1-1.74,0,.53.53,0,0,1,0-1A1.91,1.91,0,0,1,381.9,135.73Z" transform="translate(-80.88 -31)"/><path class="cls-1" d="M386.43,133.11c.48.28.48.73,0,1a1.89,1.89,0,0,1-1.73,0c-.48-.27-.48-.72,0-1A1.89,1.89,0,0,1,386.43,133.11Z" transform="translate(-80.88 -31)"/><ellipse class="cls-1" cx="309.22" cy="99.99" rx="1.23" ry="0.71"/><path class="cls-1" d="M395.51,127.87c.48.28.48.73,0,1a1.91,1.91,0,0,1-1.74,0c-.48-.27-.48-.72,0-1A2,2,0,0,1,395.51,127.87Z" transform="translate(-80.88 -31)"/><path class="cls-1" d="M400.05,125.25a.53.53,0,0,1,0,1,1.91,1.91,0,0,1-1.74,0c-.48-.27-.48-.72,0-1A2,2,0,0,1,400.05,125.25Z" transform="translate(-80.88 -31)"/><path class="cls-1" d="M404.58,122.63c.48.28.48.73,0,1a1.89,1.89,0,0,1-1.73,0c-.48-.27-.48-.72,0-1A2,2,0,0,1,404.58,122.63Z" transform="translate(-80.88 -31)"/><path class="cls-1" d="M409.12,120a.53.53,0,0,1,0,1,2,2,0,0,1-1.74,0,.53.53,0,0,1,0-1A2,2,0,0,1,409.12,120Z" transform="translate(-80.88 -31)"/><path class="cls-1" d="M354.68,146.21a.53.53,0,0,1,0,1,1.91,1.91,0,0,1-1.74,0c-.48-.28-.48-.73,0-1A1.91,1.91,0,0,1,354.68,146.21Z" transform="translate(-80.88 -31)"/><path class="cls-1" d="M359.21,143.59c.48.27.48.72,0,1a1.89,1.89,0,0,1-1.73,0c-.48-.28-.48-.73,0-1A1.89,1.89,0,0,1,359.21,143.59Z" transform="translate(-80.88 -31)"/><ellipse class="cls-1" cx="282" cy="110.47" rx="1.23" ry="0.71"/><path class="cls-1" d="M368.29,138.35a.53.53,0,0,1,0,1,1.91,1.91,0,0,1-1.74,0,.53.53,0,0,1,0-1A1.91,1.91,0,0,1,368.29,138.35Z" transform="translate(-80.88 -31)"/><path class="cls-1" d="M372.82,135.73c.48.28.48.73,0,1a1.89,1.89,0,0,1-1.73,0c-.48-.27-.48-.72,0-1A1.89,1.89,0,0,1,372.82,135.73Z" transform="translate(-80.88 -31)"/><path class="cls-1" d="M377.36,133.11c.48.28.48.73,0,1a1.89,1.89,0,0,1-1.73,0c-.48-.27-.48-.72,0-1A1.89,1.89,0,0,1,377.36,133.11Z" transform="translate(-80.88 -31)"/><path class="cls-1" d="M381.9,130.49c.48.28.48.73,0,1a1.91,1.91,0,0,1-1.74,0c-.48-.27-.48-.72,0-1A1.91,1.91,0,0,1,381.9,130.49Z" transform="translate(-80.88 -31)"/><path class="cls-1" d="M386.43,127.87c.48.28.48.73,0,1a1.89,1.89,0,0,1-1.73,0c-.48-.27-.48-.72,0-1A2,2,0,0,1,386.43,127.87Z" transform="translate(-80.88 -31)"/><path class="cls-1" d="M391,125.25c.48.28.48.73,0,1a1.89,1.89,0,0,1-1.73,0c-.48-.27-.48-.72,0-1A2,2,0,0,1,391,125.25Z" transform="translate(-80.88 -31)"/><path class="cls-1" d="M395.51,122.63c.48.28.48.73,0,1a1.91,1.91,0,0,1-1.74,0c-.48-.27-.48-.72,0-1A2,2,0,0,1,395.51,122.63Z" transform="translate(-80.88 -31)"/><ellipse class="cls-1" cx="318.3" cy="89.51" rx="1.23" ry="0.71"/><path class="cls-1" d="M404.58,117.39a.53.53,0,0,1,0,1,2,2,0,0,1-1.73,0,.53.53,0,0,1,0-1A2,2,0,0,1,404.58,117.39Z" transform="translate(-80.88 -31)"/><path class="cls-1" d="M350.14,143.59c.48.27.48.72,0,1a1.91,1.91,0,0,1-1.74,0c-.48-.28-.48-.73,0-1A1.91,1.91,0,0,1,350.14,143.59Z" transform="translate(-80.88 -31)"/><path class="cls-1" d="M354.68,141a.53.53,0,0,1,0,1,1.91,1.91,0,0,1-1.74,0,.53.53,0,0,1,0-1A1.91,1.91,0,0,1,354.68,141Z" transform="translate(-80.88 -31)"/><path class="cls-1" d="M359.21,138.35a.53.53,0,0,1,0,1,1.89,1.89,0,0,1-1.73,0,.53.53,0,0,1,0-1A1.89,1.89,0,0,1,359.21,138.35Z" transform="translate(-80.88 -31)"/><path class="cls-1" d="M363.75,135.73c.48.28.48.73,0,1a1.91,1.91,0,0,1-1.74,0,.53.53,0,0,1,0-1A1.91,1.91,0,0,1,363.75,135.73Z" transform="translate(-80.88 -31)"/><path class="cls-1" d="M368.29,133.11c.48.28.48.73,0,1a1.91,1.91,0,0,1-1.74,0c-.48-.27-.48-.72,0-1A1.91,1.91,0,0,1,368.29,133.11Z" transform="translate(-80.88 -31)"/><ellipse class="cls-1" cx="291.08" cy="99.99" rx="1.23" ry="0.71"/><ellipse class="cls-1" cx="295.61" cy="97.37" rx="1.23" ry="0.71"/><path class="cls-1" d="M381.9,125.25c.48.28.48.73,0,1a1.91,1.91,0,0,1-1.74,0c-.48-.27-.48-.72,0-1A2,2,0,0,1,381.9,125.25Z" transform="translate(-80.88 -31)"/><path class="cls-1" d="M386.43,122.63c.48.28.48.73,0,1a1.89,1.89,0,0,1-1.73,0c-.48-.27-.48-.72,0-1A2,2,0,0,1,386.43,122.63Z" transform="translate(-80.88 -31)"/><path class="cls-1" d="M391,120a.53.53,0,0,1,0,1,2,2,0,0,1-1.73,0,.53.53,0,0,1,0-1A2,2,0,0,1,391,120Z" transform="translate(-80.88 -31)"/><path class="cls-1" d="M395.51,117.39a.53.53,0,0,1,0,1,2,2,0,0,1-1.74,0,.53.53,0,0,1,0-1A2,2,0,0,1,395.51,117.39Z" transform="translate(-80.88 -31)"/><path class="cls-1" d="M400.05,114.77a.54.54,0,0,1,0,1,2,2,0,0,1-1.74,0,.53.53,0,0,1,0-1A2,2,0,0,1,400.05,114.77Z" transform="translate(-80.88 -31)"/><ellipse class="cls-1" cx="263.85" cy="110.47" rx="1.23" ry="0.71"/><path class="cls-1" d="M350.14,138.35a.53.53,0,0,1,0,1,1.91,1.91,0,0,1-1.74,0,.53.53,0,0,1,0-1A1.91,1.91,0,0,1,350.14,138.35Z" transform="translate(-80.88 -31)"/><path class="cls-1" d="M354.68,135.73a.53.53,0,0,1,0,1,1.91,1.91,0,0,1-1.74,0c-.48-.27-.48-.72,0-1A1.91,1.91,0,0,1,354.68,135.73Z" transform="translate(-80.88 -31)"/><path class="cls-1" d="M359.21,133.11c.48.28.48.73,0,1a1.89,1.89,0,0,1-1.73,0c-.48-.27-.48-.72,0-1A1.89,1.89,0,0,1,359.21,133.11Z" transform="translate(-80.88 -31)"/><ellipse class="cls-1" cx="282" cy="99.99" rx="1.23" ry="0.71"/><path class="cls-1" d="M368.29,127.87c.48.28.48.73,0,1a1.91,1.91,0,0,1-1.74,0c-.48-.27-.48-.72,0-1A2,2,0,0,1,368.29,127.87Z" transform="translate(-80.88 -31)"/><path class="cls-1" d="M372.82,125.25c.48.28.48.73,0,1a1.89,1.89,0,0,1-1.73,0c-.48-.27-.48-.72,0-1A2,2,0,0,1,372.82,125.25Z" transform="translate(-80.88 -31)"/><path class="cls-1" d="M377.36,122.63c.48.28.48.73,0,1a1.89,1.89,0,0,1-1.73,0c-.48-.27-.48-.72,0-1A2,2,0,0,1,377.36,122.63Z" transform="translate(-80.88 -31)"/><ellipse class="cls-1" cx="300.15" cy="89.51" rx="1.23" ry="0.71"/><path class="cls-1" d="M386.43,117.39a.53.53,0,0,1,0,1,2,2,0,0,1-1.73,0,.53.53,0,0,1,0-1A2,2,0,0,1,386.43,117.39Z" transform="translate(-80.88 -31)"/><ellipse class="cls-1" cx="309.22" cy="84.28" rx="1.23" ry="0.71"/><path class="cls-1" d="M395.51,112.15a.53.53,0,0,1,0,1,2,2,0,0,1-1.74,0,.53.53,0,0,1,0-1A2,2,0,0,1,395.51,112.15Z" transform="translate(-80.88 -31)"/><path class="cls-1" d="M345.6,135.73c.48.28.48.73,0,1a1.89,1.89,0,0,1-1.73,0c-.48-.27-.48-.72,0-1A1.89,1.89,0,0,1,345.6,135.73Z" transform="translate(-80.88 -31)"/><path class="cls-1" d="M350.14,133.11c.48.28.48.73,0,1a1.91,1.91,0,0,1-1.74,0c-.48-.27-.48-.72,0-1A1.91,1.91,0,0,1,350.14,133.11Z" transform="translate(-80.88 -31)"/><ellipse class="cls-1" cx="272.93" cy="99.99" rx="1.23" ry="0.71"/><path class="cls-1" d="M359.21,127.87c.48.28.48.73,0,1a1.89,1.89,0,0,1-1.73,0c-.48-.27-.48-.72,0-1A2,2,0,0,1,359.21,127.87Z" transform="translate(-80.88 -31)"/><ellipse class="cls-1" cx="282" cy="94.75" rx="1.23" ry="0.71"/><ellipse class="cls-1" cx="286.54" cy="92.13" rx="1.23" ry="0.71"/><path class="cls-1" d="M372.82,120a.53.53,0,0,1,0,1,2,2,0,0,1-1.73,0,.53.53,0,0,1,0-1A2,2,0,0,1,372.82,120Z" transform="translate(-80.88 -31)"/><path class="cls-1" d="M377.36,117.39a.53.53,0,0,1,0,1,2,2,0,0,1-1.73,0,.53.53,0,0,1,0-1A2,2,0,0,1,377.36,117.39Z" transform="translate(-80.88 -31)"/><ellipse class="cls-1" cx="300.15" cy="84.28" rx="1.23" ry="0.71"/><path class="cls-1" d="M386.43,112.16c.48.27.48.72,0,1a2,2,0,0,1-1.73,0c-.48-.28-.48-.73,0-1A1.89,1.89,0,0,1,386.43,112.16Z" transform="translate(-80.88 -31)"/><path class="cls-1" d="M345.56,130.46a.53.53,0,0,1,0,1,2,2,0,0,1-1.73,0,.53.53,0,0,1,0-1A2,2,0,0,1,345.56,130.46Z" transform="translate(-80.88 -31)"/><ellipse class="cls-1" cx="268.35" cy="97.35" rx="1.23" ry="0.71"/><ellipse class="cls-1" cx="272.89" cy="94.73" rx="1.23" ry="0.71"/><ellipse class="cls-1" cx="277.43" cy="92.11" rx="1.23" ry="0.71"/><ellipse class="cls-1" cx="281.96" cy="89.49" rx="1.23" ry="0.71"/><ellipse class="cls-1" cx="286.5" cy="86.87" rx="1.23" ry="0.71"/><path class="cls-1" d="M372.78,114.75c.48.27.48.72,0,1a1.89,1.89,0,0,1-1.73,0c-.48-.28-.48-.73,0-1A1.89,1.89,0,0,1,372.78,114.75Z" transform="translate(-80.88 -31)"/><path class="cls-1" d="M377.32,112.13c.48.27.48.72,0,1a1.89,1.89,0,0,1-1.73,0c-.48-.28-.48-.73,0-1A1.89,1.89,0,0,1,377.32,112.13Z" transform="translate(-80.88 -31)"/><path class="cls-1" d="M345.56,125.22a.53.53,0,0,1,0,1,2,2,0,0,1-1.73,0,.53.53,0,0,1,0-1A2,2,0,0,1,345.56,125.22Z" transform="translate(-80.88 -31)"/><ellipse class="cls-1" cx="268.35" cy="92.11" rx="1.23" ry="0.71"/><path class="cls-1" d="M354.64,120c.48.27.48.72,0,1a2,2,0,0,1-1.74,0c-.48-.28-.48-.73,0-1A1.91,1.91,0,0,1,354.64,120Z" transform="translate(-80.88 -31)"/><path class="cls-1" d="M359.17,117.37c.48.27.48.72,0,1a2,2,0,0,1-1.73,0c-.48-.28-.48-.73,0-1A1.89,1.89,0,0,1,359.17,117.37Z" transform="translate(-80.88 -31)"/><path class="cls-1" d="M363.71,114.75c.48.27.48.72,0,1a1.91,1.91,0,0,1-1.74,0,.53.53,0,0,1,0-1A1.91,1.91,0,0,1,363.71,114.75Z" transform="translate(-80.88 -31)"/><path class="cls-1" d="M368.25,112.13c.48.27.48.72,0,1a1.91,1.91,0,0,1-1.74,0c-.48-.28-.48-.73,0-1A1.91,1.91,0,0,1,368.25,112.13Z" transform="translate(-80.88 -31)"/><path class="cls-1" d="M182.85,205.24c.48.28.48.73,0,1a1.91,1.91,0,0,1-1.74,0c-.48-.27-.48-.72,0-1A1.91,1.91,0,0,1,182.85,205.24Z" transform="translate(-80.88 -31)"/><path class="cls-1" d="M187.38,202.62c.48.28.48.73,0,1a1.89,1.89,0,0,1-1.73,0c-.48-.27-.48-.72,0-1A2,2,0,0,1,187.38,202.62Z" transform="translate(-80.88 -31)"/><path class="cls-1" d="M191.92,200c.48.28.48.73,0,1a1.89,1.89,0,0,1-1.73,0c-.48-.27-.48-.72,0-1A2,2,0,0,1,191.92,200Z" transform="translate(-80.88 -31)"/><ellipse class="cls-1" cx="114.71" cy="166.88" rx="1.23" ry="0.71"/><path class="cls-1" d="M173.77,205.24c.48.28.48.73,0,1a1.89,1.89,0,0,1-1.73,0c-.48-.27-.48-.72,0-1A1.89,1.89,0,0,1,173.77,205.24Z" transform="translate(-80.88 -31)"/><path class="cls-1" d="M178.31,202.62c.48.28.48.73,0,1a1.89,1.89,0,0,1-1.73,0c-.48-.27-.48-.72,0-1A2,2,0,0,1,178.31,202.62Z" transform="translate(-80.88 -31)"/><ellipse class="cls-1" cx="101.1" cy="169.5" rx="1.23" ry="0.71"/><ellipse class="cls-1" cx="105.64" cy="166.88" rx="1.23" ry="0.71"/><path class="cls-1" d="M191.92,194.76a.53.53,0,0,1,0,1,2,2,0,0,1-1.73,0,.53.53,0,0,1,0-1A2,2,0,0,1,191.92,194.76Z" transform="translate(-80.88 -31)"/><path class="cls-1" d="M196.46,192.14a.53.53,0,0,1,0,1,2,2,0,0,1-1.74,0,.53.53,0,0,1,0-1A2,2,0,0,1,196.46,192.14Z" transform="translate(-80.88 -31)"/><path class="cls-1" d="M164.66,205.21a.53.53,0,0,1,0,1,2,2,0,0,1-1.74,0,.54.54,0,0,1,0-1A2,2,0,0,1,164.66,205.21Z" transform="translate(-80.88 -31)"/><ellipse class="cls-1" cx="87.45" cy="172.1" rx="1.23" ry="0.71"/><path class="cls-1" d="M173.73,200c.48.27.48.72,0,1a2,2,0,0,1-1.73,0c-.48-.28-.48-.73,0-1A1.89,1.89,0,0,1,173.73,200Z" transform="translate(-80.88 -31)"/><path class="cls-1" d="M178.27,197.36c.48.27.48.72,0,1a2,2,0,0,1-1.73,0c-.48-.28-.48-.73,0-1A1.89,1.89,0,0,1,178.27,197.36Z" transform="translate(-80.88 -31)"/><path class="cls-1" d="M182.81,194.74c.48.27.48.72,0,1a2,2,0,0,1-1.74,0c-.48-.28-.48-.73,0-1A1.91,1.91,0,0,1,182.81,194.74Z" transform="translate(-80.88 -31)"/><path class="cls-1" d="M187.35,192.12a.53.53,0,0,1,0,1,1.91,1.91,0,0,1-1.74,0c-.48-.28-.48-.73,0-1A1.91,1.91,0,0,1,187.35,192.12Z" transform="translate(-80.88 -31)"/><path class="cls-1" d="M191.88,189.5c.48.27.48.72,0,1a1.89,1.89,0,0,1-1.73,0c-.48-.28-.48-.73,0-1A1.89,1.89,0,0,1,191.88,189.5Z" transform="translate(-80.88 -31)"/><path class="cls-1" d="M196.42,186.88c.48.27.48.72,0,1a1.91,1.91,0,0,1-1.74,0c-.48-.28-.48-.73,0-1A1.91,1.91,0,0,1,196.42,186.88Z" transform="translate(-80.88 -31)"/><ellipse class="cls-1" cx="78.38" cy="172.1" rx="1.23" ry="0.71"/><path class="cls-1" d="M164.66,200c.48.27.48.72,0,1a2,2,0,0,1-1.74,0,.53.53,0,0,1,0-1A1.91,1.91,0,0,1,164.66,200Z" transform="translate(-80.88 -31)"/><path class="cls-1" d="M169.2,197.36c.48.27.48.72,0,1a2,2,0,0,1-1.74,0c-.48-.28-.48-.73,0-1A1.91,1.91,0,0,1,169.2,197.36Z" transform="translate(-80.88 -31)"/><path class="cls-1" d="M173.73,194.74c.48.27.48.72,0,1a2,2,0,0,1-1.73,0c-.48-.28-.48-.73,0-1A1.89,1.89,0,0,1,173.73,194.74Z" transform="translate(-80.88 -31)"/><path class="cls-1" d="M178.27,192.12c.48.27.48.72,0,1a1.89,1.89,0,0,1-1.73,0c-.48-.28-.48-.73,0-1A1.89,1.89,0,0,1,178.27,192.12Z" transform="translate(-80.88 -31)"/><path class="cls-1" d="M182.81,189.5c.48.27.48.72,0,1a1.91,1.91,0,0,1-1.74,0c-.48-.28-.48-.73,0-1A1.91,1.91,0,0,1,182.81,189.5Z" transform="translate(-80.88 -31)"/><path class="cls-1" d="M187.35,186.88a.53.53,0,0,1,0,1,1.91,1.91,0,0,1-1.74,0c-.48-.28-.48-.73,0-1A1.91,1.91,0,0,1,187.35,186.88Z" transform="translate(-80.88 -31)"/><ellipse class="cls-1" cx="110.13" cy="153.76" rx="1.23" ry="0.71"/><path class="cls-1" d="M155.59,200c.48.27.48.72,0,1a2,2,0,0,1-1.74,0c-.48-.28-.48-.73,0-1A1.91,1.91,0,0,1,155.59,200Z" transform="translate(-80.88 -31)"/><path class="cls-1" d="M160.12,197.36c.48.27.48.72,0,1a2,2,0,0,1-1.73,0c-.48-.28-.48-.73,0-1A1.89,1.89,0,0,1,160.12,197.36Z" transform="translate(-80.88 -31)"/><path class="cls-1" d="M164.66,194.74c.48.27.48.72,0,1a2,2,0,0,1-1.73,0c-.48-.28-.48-.73,0-1A1.89,1.89,0,0,1,164.66,194.74Z" transform="translate(-80.88 -31)"/><path class="cls-1" d="M169.2,192.12c.48.27.48.72,0,1a1.91,1.91,0,0,1-1.74,0c-.48-.28-.48-.73,0-1A1.91,1.91,0,0,1,169.2,192.12Z" transform="translate(-80.88 -31)"/><path class="cls-1" d="M173.73,189.5c.48.27.48.72,0,1a1.89,1.89,0,0,1-1.73,0c-.48-.28-.48-.73,0-1A1.89,1.89,0,0,1,173.73,189.5Z" transform="translate(-80.88 -31)"/><path class="cls-1" d="M178.27,186.88c.48.27.48.72,0,1a1.89,1.89,0,0,1-1.73,0c-.48-.28-.48-.73,0-1A1.89,1.89,0,0,1,178.27,186.88Z" transform="translate(-80.88 -31)"/><path class="cls-1" d="M182.81,184.26a.53.53,0,0,1,0,1,1.91,1.91,0,0,1-1.74,0,.53.53,0,0,1,0-1A1.91,1.91,0,0,1,182.81,184.26Z" transform="translate(-80.88 -31)"/><path class="cls-1" d="M187.35,181.64a.53.53,0,0,1,0,1,1.91,1.91,0,0,1-1.74,0,.53.53,0,0,1,0-1A1.91,1.91,0,0,1,187.35,181.64Z" transform="translate(-80.88 -31)"/><path class="cls-1" d="M151.05,197.36c.48.27.48.72,0,1a2,2,0,0,1-1.74,0c-.48-.28-.48-.73,0-1A1.91,1.91,0,0,1,151.05,197.36Z" transform="translate(-80.88 -31)"/><path class="cls-1" d="M155.59,194.74c.48.27.48.72,0,1a2,2,0,0,1-1.74,0c-.48-.28-.48-.73,0-1A1.91,1.91,0,0,1,155.59,194.74Z" transform="translate(-80.88 -31)"/><path class="cls-1" d="M160.12,192.12c.48.27.48.72,0,1a1.89,1.89,0,0,1-1.73,0c-.48-.28-.48-.73,0-1A1.89,1.89,0,0,1,160.12,192.12Z" transform="translate(-80.88 -31)"/><path class="cls-1" d="M164.66,189.5c.48.27.48.72,0,1a1.89,1.89,0,0,1-1.73,0c-.48-.28-.48-.73,0-1A1.89,1.89,0,0,1,164.66,189.5Z" transform="translate(-80.88 -31)"/><path class="cls-1" d="M169.2,186.88c.48.27.48.72,0,1a1.91,1.91,0,0,1-1.74,0c-.48-.28-.48-.73,0-1A1.91,1.91,0,0,1,169.2,186.88Z" transform="translate(-80.88 -31)"/><ellipse class="cls-1" cx="91.99" cy="153.76" rx="1.23" ry="0.71"/><path class="cls-1" d="M178.27,181.64a.53.53,0,0,1,0,1,1.89,1.89,0,0,1-1.73,0,.53.53,0,0,1,0-1A1.89,1.89,0,0,1,178.27,181.64Z" transform="translate(-80.88 -31)"/><ellipse class="cls-1" cx="101.06" cy="148.52" rx="1.23" ry="0.71"/><path class="cls-1" d="M151.05,192.12c.48.27.48.72,0,1a1.91,1.91,0,0,1-1.74,0,.53.53,0,0,1,0-1A1.91,1.91,0,0,1,151.05,192.12Z" transform="translate(-80.88 -31)"/><ellipse class="cls-1" cx="73.84" cy="159" rx="1.23" ry="0.71"/><path class="cls-1" d="M160.12,186.88c.48.27.48.72,0,1a1.89,1.89,0,0,1-1.73,0c-.48-.28-.48-.73,0-1A1.89,1.89,0,0,1,160.12,186.88Z" transform="translate(-80.88 -31)"/><path class="cls-1" d="M164.66,184.26a.53.53,0,0,1,0,1,1.89,1.89,0,0,1-1.73,0,.53.53,0,0,1,0-1A1.89,1.89,0,0,1,164.66,184.26Z" transform="translate(-80.88 -31)"/><path class="cls-1" d="M169.2,181.64a.53.53,0,0,1,0,1,1.91,1.91,0,0,1-1.74,0,.53.53,0,0,1,0-1A1.91,1.91,0,0,1,169.2,181.64Z" transform="translate(-80.88 -31)"/><path class="cls-1" d="M173.73,179a.53.53,0,0,1,0,1,1.89,1.89,0,0,1-1.73,0,.53.53,0,0,1,0-1A1.89,1.89,0,0,1,173.73,179Z" transform="translate(-80.88 -31)"/><path class="cls-1" d="M151.05,186.88c.48.27.48.72,0,1a1.91,1.91,0,0,1-1.74,0,.53.53,0,0,1,0-1A1.91,1.91,0,0,1,151.05,186.88Z" transform="translate(-80.88 -31)"/><path class="cls-1" d="M155.59,184.26a.53.53,0,0,1,0,1,1.91,1.91,0,0,1-1.74,0,.53.53,0,0,1,0-1A1.91,1.91,0,0,1,155.59,184.26Z" transform="translate(-80.88 -31)"/><path class="cls-1" d="M160.12,181.64a.53.53,0,0,1,0,1,1.89,1.89,0,0,1-1.73,0,.53.53,0,0,1,0-1A1.89,1.89,0,0,1,160.12,181.64Z" transform="translate(-80.88 -31)"/><ellipse class="cls-1" cx="82.91" cy="148.52" rx="1.23" ry="0.71"/><ellipse class="cls-1" cx="182.5" cy="297.97" rx="1.23" ry="0.71"/><ellipse class="cls-1" cx="187.04" cy="295.35" rx="1.23" ry="0.71"/><path class="cls-1" d="M273.32,323.23a.53.53,0,0,1,0,1,1.89,1.89,0,0,1-1.73,0,.53.53,0,0,1,0-1A1.89,1.89,0,0,1,273.32,323.23Z" transform="translate(-80.88 -31)"/><ellipse class="cls-1" cx="196.11" cy="290.11" rx="1.23" ry="0.71"/><path class="cls-1" d="M282.4,318a.53.53,0,0,1,0,1,1.91,1.91,0,0,1-1.74,0,.53.53,0,0,1,0-1A1.91,1.91,0,0,1,282.4,318Z" transform="translate(-80.88 -31)"/><path class="cls-1" d="M286.94,315.37a.53.53,0,0,1,0,1,1.91,1.91,0,0,1-1.74,0c-.48-.27-.48-.72,0-1A1.91,1.91,0,0,1,286.94,315.37Z" transform="translate(-80.88 -31)"/><path class="cls-1" d="M264.25,323.23a.53.53,0,0,1,0,1,1.89,1.89,0,0,1-1.73,0,.53.53,0,0,1,0-1A1.89,1.89,0,0,1,264.25,323.23Z" transform="translate(-80.88 -31)"/><path class="cls-1" d="M268.79,320.61a.53.53,0,0,1,0,1,1.91,1.91,0,0,1-1.74,0,.53.53,0,0,1,0-1A1.91,1.91,0,0,1,268.79,320.61Z" transform="translate(-80.88 -31)"/><path class="cls-1" d="M273.32,318a.53.53,0,0,1,0,1,1.89,1.89,0,0,1-1.73,0,.53.53,0,0,1,0-1A1.89,1.89,0,0,1,273.32,318Z" transform="translate(-80.88 -31)"/><path class="cls-1" d="M277.86,315.37c.48.28.48.73,0,1a1.89,1.89,0,0,1-1.73,0c-.48-.27-.48-.72,0-1A1.89,1.89,0,0,1,277.86,315.37Z" transform="translate(-80.88 -31)"/><ellipse class="cls-1" cx="200.65" cy="282.25" rx="1.23" ry="0.71"/><ellipse class="cls-1" cx="173.43" cy="297.97" rx="1.23" ry="0.71"/><ellipse class="cls-1" cx="177.97" cy="295.35" rx="1.23" ry="0.71"/><path class="cls-1" d="M255.18,323.23a.53.53,0,0,1,0,1,1.91,1.91,0,0,1-1.74,0,.53.53,0,0,1,0-1A1.91,1.91,0,0,1,255.18,323.23Z" transform="translate(-80.88 -31)"/><ellipse class="cls-1" cx="177.97" cy="290.11" rx="1.23" ry="0.71"/><path class="cls-1" d="M264.25,318a.53.53,0,0,1,0,1,1.89,1.89,0,0,1-1.73,0,.53.53,0,0,1,0-1A1.89,1.89,0,0,1,264.25,318Z" transform="translate(-80.88 -31)"/><path class="cls-1" d="M268.79,315.37c.48.28.48.73,0,1a1.91,1.91,0,0,1-1.74,0c-.48-.27-.48-.72,0-1A1.91,1.91,0,0,1,268.79,315.37Z" transform="translate(-80.88 -31)"/><path class="cls-1" d="M273.32,312.75c.48.28.48.73,0,1a1.89,1.89,0,0,1-1.73,0c-.48-.27-.48-.72,0-1A1.89,1.89,0,0,1,273.32,312.75Z" transform="translate(-80.88 -31)"/><path class="cls-1" d="M277.86,310.13c.48.28.48.73,0,1a1.89,1.89,0,0,1-1.73,0c-.48-.27-.48-.72,0-1A1.89,1.89,0,0,1,277.86,310.13Z" transform="translate(-80.88 -31)"/><path class="cls-1" d="M250.64,325.85c.48.27.48.72,0,1a1.91,1.91,0,0,1-1.74,0,.53.53,0,0,1,0-1A1.91,1.91,0,0,1,250.64,325.85Z" transform="translate(-80.88 -31)"/><path class="cls-1" d="M250.64,320.61a.53.53,0,0,1,0,1,1.91,1.91,0,0,1-1.74,0,.53.53,0,0,1,0-1A1.91,1.91,0,0,1,250.64,320.61Z" transform="translate(-80.88 -31)"/><path class="cls-1" d="M255.18,318a.53.53,0,0,1,0,1,1.91,1.91,0,0,1-1.74,0,.53.53,0,0,1,0-1A1.91,1.91,0,0,1,255.18,318Z" transform="translate(-80.88 -31)"/><path class="cls-1" d="M259.71,315.37c.48.28.48.73,0,1a1.89,1.89,0,0,1-1.73,0c-.48-.27-.48-.72,0-1A1.89,1.89,0,0,1,259.71,315.37Z" transform="translate(-80.88 -31)"/><path class="cls-1" d="M264.25,312.75c.48.28.48.73,0,1a1.89,1.89,0,0,1-1.73,0c-.48-.27-.48-.72,0-1A1.89,1.89,0,0,1,264.25,312.75Z" transform="translate(-80.88 -31)"/><ellipse class="cls-1" cx="187.04" cy="279.63" rx="1.23" ry="0.71"/><path class="cls-1" d="M273.32,307.51c.48.28.48.73,0,1a1.89,1.89,0,0,1-1.73,0c-.48-.27-.48-.72,0-1A2,2,0,0,1,273.32,307.51Z" transform="translate(-80.88 -31)"/><ellipse class="cls-1" cx="164.35" cy="292.73" rx="1.23" ry="0.71"/><ellipse class="cls-1" cx="164.32" cy="287.46" rx="1.23" ry="0.71"/><path class="cls-1" d="M250.6,315.34c.48.28.48.73,0,1a1.89,1.89,0,0,1-1.73,0c-.48-.27-.48-.72,0-1A2,2,0,0,1,250.6,315.34Z" transform="translate(-80.88 -31)"/><path class="cls-1" d="M241.53,320.58c.48.28.48.73,0,1a1.91,1.91,0,0,1-1.74,0c-.48-.27-.48-.72,0-1A1.91,1.91,0,0,1,241.53,320.58Z" transform="translate(-80.88 -31)"/><path class="cls-1" d="M237,318c.48.28.48.73,0,1a1.91,1.91,0,0,1-1.74,0,.53.53,0,0,1,0-1A2,2,0,0,1,237,318Z" transform="translate(-80.88 -31)"/><ellipse class="cls-1" cx="159.78" cy="284.84" rx="1.23" ry="0.71"/><ellipse class="cls-1" cx="164.32" cy="282.22" rx="1.23" ry="0.71"/><ellipse class="cls-1" cx="150.7" cy="284.84" rx="1.23" ry="0.71"/><path class="cls-1" d="M237,312.72a.53.53,0,0,1,0,1,2,2,0,0,1-1.74,0,.54.54,0,0,1,0-1A2,2,0,0,1,237,312.72Z" transform="translate(-80.88 -31)"/><path class="cls-1" d="M241.53,310.1a.53.53,0,0,1,0,1,2,2,0,0,1-1.74,0,.53.53,0,0,1,0-1A2,2,0,0,1,241.53,310.1Z" transform="translate(-80.88 -31)"/><path class="cls-1" d="M227.92,312.72a.54.54,0,0,1,0,1,2,2,0,0,1-1.74,0,.53.53,0,0,1,0-1A2,2,0,0,1,227.92,312.72Z" transform="translate(-80.88 -31)"/><ellipse class="cls-1" cx="150.7" cy="279.6" rx="1.23" ry="0.71"/><ellipse class="cls-1" cx="155.24" cy="276.99" rx="1.23" ry="0.71"/><path class="cls-1" d="M227.92,307.48a.54.54,0,0,1,0,1,2,2,0,0,1-1.74,0,.53.53,0,0,1,0-1A2,2,0,0,1,227.92,307.48Z" transform="translate(-80.88 -31)"/><path class="cls-1" d="M232.45,304.87c.48.27.48.72,0,1a2,2,0,0,1-1.73,0c-.48-.28-.48-.73,0-1A1.89,1.89,0,0,1,232.45,304.87Z" transform="translate(-80.88 -31)"/><ellipse class="cls-1" cx="141.63" cy="279.6" rx="1.23" ry="0.71"/><ellipse class="cls-1" cx="146.17" cy="271.75" rx="1.23" ry="0.71"/><ellipse class="cls-1" cx="137.09" cy="276.99" rx="1.23" ry="0.71"/><path class="cls-1" d="M223.38,304.87c.48.27.48.72,0,1a2,2,0,0,1-1.74,0c-.48-.28-.48-.73,0-1A1.91,1.91,0,0,1,223.38,304.87Z" transform="translate(-80.88 -31)"/><path class="cls-1" d="M214.3,304.87c.48.27.48.72,0,1a2,2,0,0,1-1.73,0c-.48-.28-.48-.73,0-1A1.89,1.89,0,0,1,214.3,304.87Z" transform="translate(-80.88 -31)"/><path class="cls-1" d="M218.84,302.25c.48.27.48.72,0,1a2,2,0,0,1-1.73,0c-.48-.28-.48-.73,0-1A1.89,1.89,0,0,1,218.84,302.25Z" transform="translate(-80.88 -31)"/><path class="cls-1" d="M223.38,299.63c.48.27.48.72,0,1a2,2,0,0,1-1.74,0c-.48-.28-.48-.73,0-1A1.91,1.91,0,0,1,223.38,299.63Z" transform="translate(-80.88 -31)"/><path class="cls-1" d="M214.31,299.63a.53.53,0,0,1,0,1,2,2,0,0,1-1.74,0c-.48-.28-.48-.73,0-1A1.91,1.91,0,0,1,214.31,299.63Z" transform="translate(-80.88 -31)"/><ellipse class="cls-1" cx="137.09" cy="266.51" rx="1.23" ry="0.71"/><path class="cls-1" d="M289.77,312.78a1.92,1.92,0,0,1,1.73,0,.54.54,0,0,1,0,1,2,2,0,0,1-1.74,0C289.29,313.5,289.29,313.05,289.77,312.78Z" transform="translate(-80.88 -31)"/><path class="cls-1" d="M296.05,310.15a.53.53,0,0,1,0,1,2,2,0,0,1-1.74,0,.53.53,0,0,1,0-1A2,2,0,0,1,296.05,310.15Z" transform="translate(-80.88 -31)"/><ellipse class="cls-1" cx="218.83" cy="277.04" rx="1.23" ry="0.71"/><ellipse class="cls-1" cx="223.37" cy="274.42" rx="1.23" ry="0.71"/><path class="cls-1" d="M309.66,302.3c.48.27.48.72,0,1a2,2,0,0,1-1.74,0c-.48-.28-.48-.73,0-1A1.91,1.91,0,0,1,309.66,302.3Z" transform="translate(-80.88 -31)"/><path class="cls-1" d="M314.19,299.68c.48.27.48.72,0,1a2,2,0,0,1-1.73,0c-.48-.28-.48-.73,0-1A1.89,1.89,0,0,1,314.19,299.68Z" transform="translate(-80.88 -31)"/><path class="cls-1" d="M318.73,297.06c.48.27.48.72,0,1a2,2,0,0,1-1.73,0c-.48-.28-.48-.73,0-1A1.89,1.89,0,0,1,318.73,297.06Z" transform="translate(-80.88 -31)"/><path class="cls-1" d="M323.27,294.44c.48.27.48.72,0,1a1.91,1.91,0,0,1-1.74,0c-.48-.28-.48-.73,0-1A1.91,1.91,0,0,1,323.27,294.44Z" transform="translate(-80.88 -31)"/><path class="cls-1" d="M327.81,291.82a.53.53,0,0,1,0,1,1.91,1.91,0,0,1-1.74,0c-.48-.28-.48-.73,0-1A1.91,1.91,0,0,1,327.81,291.82Z" transform="translate(-80.88 -31)"/><path class="cls-1" d="M332.34,289.2c.48.27.48.72,0,1a1.89,1.89,0,0,1-1.73,0c-.48-.28-.48-.73,0-1A1.89,1.89,0,0,1,332.34,289.2Z" transform="translate(-80.88 -31)"/><path class="cls-1" d="M285.23,310.16a1.94,1.94,0,0,1,1.74,0,.53.53,0,0,1,0,1,2,2,0,0,1-1.74,0C284.75,310.88,284.75,310.43,285.23,310.16Z" transform="translate(-80.88 -31)"/><path class="cls-1" d="M291.51,307.53a.53.53,0,0,1,0,1,2,2,0,0,1-1.74,0,.53.53,0,0,1,0-1A2,2,0,0,1,291.51,307.53Z" transform="translate(-80.88 -31)"/><path class="cls-1" d="M296.05,304.91a.53.53,0,0,1,0,1,2,2,0,0,1-1.74,0,.53.53,0,0,1,0-1A2,2,0,0,1,296.05,304.91Z" transform="translate(-80.88 -31)"/><path class="cls-1" d="M300.58,302.3c.48.27.48.72,0,1a2,2,0,0,1-1.73,0c-.48-.28-.48-.73,0-1A1.89,1.89,0,0,1,300.58,302.3Z" transform="translate(-80.88 -31)"/><path class="cls-1" d="M305.12,299.68c.48.27.48.72,0,1a2,2,0,0,1-1.74,0,.53.53,0,0,1,0-1A1.91,1.91,0,0,1,305.12,299.68Z" transform="translate(-80.88 -31)"/><path class="cls-1" d="M309.66,297.06c.48.27.48.72,0,1a2,2,0,0,1-1.74,0c-.48-.28-.48-.73,0-1A1.91,1.91,0,0,1,309.66,297.06Z" transform="translate(-80.88 -31)"/><ellipse class="cls-1" cx="232.45" cy="263.94" rx="1.23" ry="0.71"/><path class="cls-1" d="M318.73,291.82c.48.27.48.72,0,1a1.89,1.89,0,0,1-1.73,0c-.48-.28-.48-.73,0-1A1.89,1.89,0,0,1,318.73,291.82Z" transform="translate(-80.88 -31)"/><ellipse class="cls-1" cx="241.52" cy="258.7" rx="1.23" ry="0.71"/><path class="cls-1" d="M327.81,286.58a.53.53,0,0,1,0,1,1.91,1.91,0,0,1-1.74,0,.53.53,0,0,1,0-1A1.91,1.91,0,0,1,327.81,286.58Z" transform="translate(-80.88 -31)"/><path class="cls-1" d="M332.34,284a.53.53,0,0,1,0,1,1.89,1.89,0,0,1-1.73,0,.53.53,0,0,1,0-1A1.89,1.89,0,0,1,332.34,284Z" transform="translate(-80.88 -31)"/><path class="cls-1" d="M280.69,307.54a1.91,1.91,0,0,1,1.74,0c.48.27.48.72,0,1a1.92,1.92,0,0,1-1.73,0C280.22,308.26,280.22,307.81,280.69,307.54Z" transform="translate(-80.88 -31)"/><path class="cls-1" d="M287,304.91a.53.53,0,0,1,0,1,2,2,0,0,1-1.73,0,.53.53,0,0,1,0-1A2,2,0,0,1,287,304.91Z" transform="translate(-80.88 -31)"/><path class="cls-1" d="M291.51,302.3c.48.27.48.72,0,1a2,2,0,0,1-1.74,0c-.48-.28-.48-.73,0-1A1.91,1.91,0,0,1,291.51,302.3Z" transform="translate(-80.88 -31)"/><path class="cls-1" d="M296.05,299.68c.48.27.48.72,0,1a2,2,0,0,1-1.74,0c-.48-.28-.48-.73,0-1A1.91,1.91,0,0,1,296.05,299.68Z" transform="translate(-80.88 -31)"/><ellipse class="cls-1" cx="218.83" cy="266.56" rx="1.23" ry="0.71"/><ellipse class="cls-1" cx="223.37" cy="263.94" rx="1.23" ry="0.71"/><ellipse class="cls-1" cx="227.91" cy="261.32" rx="1.23" ry="0.71"/><path class="cls-1" d="M314.19,289.2c.48.27.48.72,0,1a1.89,1.89,0,0,1-1.73,0c-.48-.28-.48-.73,0-1A1.89,1.89,0,0,1,314.19,289.2Z" transform="translate(-80.88 -31)"/><path class="cls-1" d="M318.73,286.58a.53.53,0,0,1,0,1,1.89,1.89,0,0,1-1.73,0,.53.53,0,0,1,0-1A1.89,1.89,0,0,1,318.73,286.58Z" transform="translate(-80.88 -31)"/><path class="cls-1" d="M323.27,284a.53.53,0,0,1,0,1,1.91,1.91,0,0,1-1.74,0,.53.53,0,0,1,0-1A1.91,1.91,0,0,1,323.27,284Z" transform="translate(-80.88 -31)"/><path class="cls-1" d="M327.81,281.34a.53.53,0,0,1,0,1,1.91,1.91,0,0,1-1.74,0c-.48-.27-.48-.72,0-1A1.91,1.91,0,0,1,327.81,281.34Z" transform="translate(-80.88 -31)"/><path class="cls-1" d="M276.16,304.92a1.89,1.89,0,0,1,1.73,0,.53.53,0,0,1,0,1,1.91,1.91,0,0,1-1.74,0A.53.53,0,0,1,276.16,304.92Z" transform="translate(-80.88 -31)"/><ellipse class="cls-1" cx="200.69" cy="271.8" rx="1.23" ry="0.71"/><path class="cls-1" d="M287,299.68c.48.27.48.72,0,1a2,2,0,0,1-1.73,0c-.48-.28-.48-.73,0-1A1.89,1.89,0,0,1,287,299.68Z" transform="translate(-80.88 -31)"/><path class="cls-1" d="M291.51,297.06c.48.27.48.72,0,1a2,2,0,0,1-1.74,0c-.48-.28-.48-.73,0-1A1.91,1.91,0,0,1,291.51,297.06Z" transform="translate(-80.88 -31)"/><path class="cls-1" d="M296.05,294.44c.48.27.48.72,0,1a1.91,1.91,0,0,1-1.74,0c-.48-.28-.48-.73,0-1A1.91,1.91,0,0,1,296.05,294.44Z" transform="translate(-80.88 -31)"/><ellipse class="cls-1" cx="218.83" cy="261.32" rx="1.23" ry="0.71"/><path class="cls-1" d="M305.12,289.2c.48.27.48.72,0,1a1.91,1.91,0,0,1-1.74,0,.53.53,0,0,1,0-1A1.91,1.91,0,0,1,305.12,289.2Z" transform="translate(-80.88 -31)"/><path class="cls-1" d="M309.66,286.58a.53.53,0,0,1,0,1,1.91,1.91,0,0,1-1.74,0,.53.53,0,0,1,0-1A1.91,1.91,0,0,1,309.66,286.58Z" transform="translate(-80.88 -31)"/><ellipse class="cls-1" cx="232.45" cy="253.46" rx="1.23" ry="0.71"/><path class="cls-1" d="M318.73,281.34c.48.28.48.73,0,1a1.89,1.89,0,0,1-1.73,0c-.48-.27-.48-.72,0-1A1.89,1.89,0,0,1,318.73,281.34Z" transform="translate(-80.88 -31)"/><path class="cls-1" d="M323.27,278.72c.48.28.48.73,0,1a1.91,1.91,0,0,1-1.74,0c-.48-.27-.48-.72,0-1A1.91,1.91,0,0,1,323.27,278.72Z" transform="translate(-80.88 -31)"/><path class="cls-1" d="M92.05,383.14c.48.27.48.72,0,1a2,2,0,0,1-1.74,0c-.48-.28-.48-.73,0-1A1.91,1.91,0,0,1,92.05,383.14Z" transform="translate(-80.88 -31)"/><path class="cls-1" d="M96.59,380.52c.48.27.48.72,0,1a1.91,1.91,0,0,1-1.74,0c-.48-.28-.48-.73,0-1A1.91,1.91,0,0,1,96.59,380.52Z" transform="translate(-80.88 -31)"/><path class="cls-1" d="M101.12,377.9c.48.27.48.72,0,1a1.89,1.89,0,0,1-1.73,0c-.48-.28-.48-.73,0-1A1.89,1.89,0,0,1,101.12,377.9Z" transform="translate(-80.88 -31)"/><path class="cls-1" d="M105.66,375.28c.48.27.48.72,0,1a1.91,1.91,0,0,1-1.74,0,.53.53,0,0,1,0-1A1.91,1.91,0,0,1,105.66,375.28Z" transform="translate(-80.88 -31)"/><ellipse class="cls-1" cx="28.45" cy="342.16" rx="1.23" ry="0.71"/><ellipse class="cls-1" cx="32.99" cy="339.54" rx="1.23" ry="0.71"/><path class="cls-1" d="M119.27,367.42a.53.53,0,0,1,0,1,1.89,1.89,0,0,1-1.73,0,.53.53,0,0,1,0-1A1.89,1.89,0,0,1,119.27,367.42Z" transform="translate(-80.88 -31)"/><path class="cls-1" d="M123.81,364.8c.48.28.48.73,0,1a1.91,1.91,0,0,1-1.74,0c-.48-.27-.48-.72,0-1A1.91,1.91,0,0,1,123.81,364.8Z" transform="translate(-80.88 -31)"/><ellipse class="cls-1" cx="46.6" cy="331.68" rx="1.23" ry="0.71"/><path class="cls-1" d="M132.88,359.56c.48.28.48.73,0,1a1.89,1.89,0,0,1-1.73,0c-.48-.27-.48-.72,0-1A1.89,1.89,0,0,1,132.88,359.56Z" transform="translate(-80.88 -31)"/><path class="cls-1" d="M137.42,356.94c.48.28.48.73,0,1a1.91,1.91,0,0,1-1.74,0c-.48-.27-.48-.72,0-1A1.91,1.91,0,0,1,137.42,356.94Z" transform="translate(-80.88 -31)"/><path class="cls-1" d="M142,354.32c.48.28.48.73,0,1a1.91,1.91,0,0,1-1.74,0c-.48-.27-.48-.72,0-1A2,2,0,0,1,142,354.32Z" transform="translate(-80.88 -31)"/><path class="cls-1" d="M92.05,377.9c.48.27.48.72,0,1a1.91,1.91,0,0,1-1.74,0c-.48-.28-.48-.73,0-1A1.91,1.91,0,0,1,92.05,377.9Z" transform="translate(-80.88 -31)"/><path class="cls-1" d="M96.59,375.28c.48.27.48.72,0,1a1.91,1.91,0,0,1-1.74,0c-.48-.28-.48-.73,0-1A1.91,1.91,0,0,1,96.59,375.28Z" transform="translate(-80.88 -31)"/><path class="cls-1" d="M101.12,372.66c.48.27.48.72,0,1a1.89,1.89,0,0,1-1.73,0c-.48-.28-.48-.73,0-1A1.89,1.89,0,0,1,101.12,372.66Z" transform="translate(-80.88 -31)"/><path class="cls-1" d="M105.66,370a.53.53,0,0,1,0,1,1.91,1.91,0,0,1-1.74,0,.53.53,0,0,1,0-1A1.91,1.91,0,0,1,105.66,370Z" transform="translate(-80.88 -31)"/><path class="cls-1" d="M110.2,367.42a.53.53,0,0,1,0,1,1.91,1.91,0,0,1-1.74,0,.53.53,0,0,1,0-1A1.91,1.91,0,0,1,110.2,367.42Z" transform="translate(-80.88 -31)"/><path class="cls-1" d="M114.73,364.8c.48.28.48.73,0,1a1.89,1.89,0,0,1-1.73,0c-.48-.27-.48-.72,0-1A1.89,1.89,0,0,1,114.73,364.8Z" transform="translate(-80.88 -31)"/><ellipse class="cls-1" cx="37.52" cy="331.68" rx="1.23" ry="0.71"/><ellipse class="cls-1" cx="42.06" cy="329.06" rx="1.23" ry="0.71"/><path class="cls-1" d="M128.35,356.94a.53.53,0,0,1,0,1,1.91,1.91,0,0,1-1.74,0c-.48-.27-.48-.72,0-1A1.91,1.91,0,0,1,128.35,356.94Z" transform="translate(-80.88 -31)"/><ellipse class="cls-1" cx="51.13" cy="323.82" rx="1.23" ry="0.71"/><path class="cls-1" d="M137.42,351.7c.48.28.48.73,0,1a1.91,1.91,0,0,1-1.74,0c-.48-.27-.48-.72,0-1A2,2,0,0,1,137.42,351.7Z" transform="translate(-80.88 -31)"/><path class="cls-1" d="M144.77,351.74a1.89,1.89,0,0,1,1.73,0c.48.27.48.72,0,1a1.89,1.89,0,0,1-1.73,0C144.29,352.47,144.29,352,144.77,351.74Z" transform="translate(-80.88 -31)"/><path class="cls-1" d="M151,349.12c.48.27.48.72,0,1a1.89,1.89,0,0,1-1.73,0c-.48-.28-.48-.73,0-1A1.89,1.89,0,0,1,151,349.12Z" transform="translate(-80.88 -31)"/><path class="cls-1" d="M155.58,346.5c.48.27.48.72,0,1a1.89,1.89,0,0,1-1.73,0c-.48-.28-.48-.73,0-1A1.89,1.89,0,0,1,155.58,346.5Z" transform="translate(-80.88 -31)"/><path class="cls-1" d="M160.12,343.88a.53.53,0,0,1,0,1,1.91,1.91,0,0,1-1.74,0,.53.53,0,0,1,0-1A1.91,1.91,0,0,1,160.12,343.88Z" transform="translate(-80.88 -31)"/><path class="cls-1" d="M164.65,341.26a.53.53,0,0,1,0,1,1.89,1.89,0,0,1-1.73,0,.53.53,0,0,1,0-1A1.89,1.89,0,0,1,164.65,341.26Z" transform="translate(-80.88 -31)"/><path class="cls-1" d="M169.19,338.64a.53.53,0,0,1,0,1,1.89,1.89,0,0,1-1.73,0,.53.53,0,0,1,0-1A1.89,1.89,0,0,1,169.19,338.64Z" transform="translate(-80.88 -31)"/><ellipse class="cls-1" cx="91.98" cy="305.52" rx="1.23" ry="0.71"/><ellipse class="cls-1" cx="96.52" cy="302.9" rx="1.23" ry="0.71"/><path class="cls-1" d="M182.8,330.78c.48.28.48.73,0,1a1.89,1.89,0,0,1-1.73,0c-.48-.27-.48-.72,0-1A1.89,1.89,0,0,1,182.8,330.78Z" transform="translate(-80.88 -31)"/><path class="cls-1" d="M196.41,322.92c.48.28.48.73,0,1a1.89,1.89,0,0,1-1.73,0c-.48-.27-.48-.72,0-1A2,2,0,0,1,196.41,322.92Z" transform="translate(-80.88 -31)"/><path class="cls-1" d="M201,320.3a.53.53,0,0,1,0,1,2,2,0,0,1-1.73,0,.53.53,0,0,1,0-1A2,2,0,0,1,201,320.3Z" transform="translate(-80.88 -31)"/><path class="cls-1" d="M205.49,317.68a.53.53,0,0,1,0,1,2,2,0,0,1-1.74,0,.53.53,0,0,1,0-1A2,2,0,0,1,205.49,317.68Z" transform="translate(-80.88 -31)"/><ellipse class="cls-1" cx="105.59" cy="297.66" rx="1.23" ry="0.71"/><ellipse class="cls-1" cx="110.13" cy="295.04" rx="1.23" ry="0.71"/><path class="cls-1" d="M140.23,349.12a1.89,1.89,0,0,1,1.73,0,.53.53,0,0,1,0,1,1.91,1.91,0,0,1-1.74,0C139.75,349.85,139.75,349.4,140.23,349.12Z" transform="translate(-80.88 -31)"/><ellipse class="cls-1" cx="64.76" cy="316" rx="1.23" ry="0.71"/><ellipse class="cls-1" cx="69.3" cy="313.38" rx="1.23" ry="0.71"/><ellipse class="cls-1" cx="73.83" cy="310.76" rx="1.23" ry="0.71"/><path class="cls-1" d="M160.12,338.64a.53.53,0,0,1,0,1,1.91,1.91,0,0,1-1.74,0,.53.53,0,0,1,0-1A1.91,1.91,0,0,1,160.12,338.64Z" transform="translate(-80.88 -31)"/><path class="cls-1" d="M164.65,336c.48.28.48.73,0,1a1.89,1.89,0,0,1-1.73,0c-.48-.27-.48-.72,0-1A1.89,1.89,0,0,1,164.65,336Z" transform="translate(-80.88 -31)"/><path class="cls-1" d="M169.19,333.4c.48.28.48.73,0,1a1.89,1.89,0,0,1-1.73,0c-.48-.27-.48-.72,0-1A1.89,1.89,0,0,1,169.19,333.4Z" transform="translate(-80.88 -31)"/><path class="cls-1" d="M173.73,330.78c.48.28.48.73,0,1a1.91,1.91,0,0,1-1.74,0c-.48-.27-.48-.72,0-1A1.91,1.91,0,0,1,173.73,330.78Z" transform="translate(-80.88 -31)"/><path class="cls-1" d="M178.27,328.16a.53.53,0,0,1,0,1,1.91,1.91,0,0,1-1.74,0c-.48-.27-.48-.72,0-1A2,2,0,0,1,178.27,328.16Z" transform="translate(-80.88 -31)"/><path class="cls-1" d="M182.8,325.54c.48.28.48.73,0,1a1.89,1.89,0,0,1-1.73,0c-.48-.27-.48-.72,0-1A2,2,0,0,1,182.8,325.54Z" transform="translate(-80.88 -31)"/><ellipse class="cls-1" cx="114.67" cy="287.19" rx="1.23" ry="0.71"/><path class="cls-1" d="M201,315.06a.53.53,0,0,1,0,1,2,2,0,0,1-1.73,0,.53.53,0,0,1,0-1A2,2,0,0,1,201,315.06Z" transform="translate(-80.88 -31)"/><path class="cls-1" d="M205.49,312.45c.48.27.48.72,0,1a2,2,0,0,1-1.74,0c-.48-.28-.48-.73,0-1A1.91,1.91,0,0,1,205.49,312.45Z" transform="translate(-80.88 -31)"/><ellipse class="cls-1" cx="105.59" cy="292.42" rx="1.23" ry="0.71"/><path class="cls-1" d="M191.88,320.3a.53.53,0,0,1,0,1,2,2,0,0,1-1.74,0,.53.53,0,0,1,0-1A2,2,0,0,1,191.88,320.3Z" transform="translate(-80.88 -31)"/><path class="cls-1" d="M114.77,412c.48.27.48.72,0,1a1.89,1.89,0,0,1-1.73,0c-.48-.28-.48-.73,0-1A1.89,1.89,0,0,1,114.77,412Z" transform="translate(-80.88 -31)"/><path class="cls-1" d="M119.31,409.36c.48.27.48.72,0,1a1.91,1.91,0,0,1-1.74,0,.53.53,0,0,1,0-1A1.91,1.91,0,0,1,119.31,409.36Z" transform="translate(-80.88 -31)"/><ellipse class="cls-1" cx="42.1" cy="376.24" rx="1.23" ry="0.71"/><ellipse class="cls-1" cx="46.64" cy="373.62" rx="1.23" ry="0.71"/><path class="cls-1" d="M132.92,401.5a.53.53,0,0,1,0,1,1.89,1.89,0,0,1-1.73,0,.53.53,0,0,1,0-1A1.89,1.89,0,0,1,132.92,401.5Z" transform="translate(-80.88 -31)"/><ellipse class="cls-1" cx="55.71" cy="368.38" rx="1.23" ry="0.71"/><ellipse class="cls-1" cx="60.25" cy="365.76" rx="1.23" ry="0.71"/><path class="cls-1" d="M146.53,393.64c.48.28.48.73,0,1a1.89,1.89,0,0,1-1.73,0c-.48-.27-.48-.72,0-1A1.89,1.89,0,0,1,146.53,393.64Z" transform="translate(-80.88 -31)"/><path class="cls-1" d="M151.07,391c.48.28.48.73,0,1a1.91,1.91,0,0,1-1.74,0c-.48-.27-.48-.72,0-1A1.91,1.91,0,0,1,151.07,391Z" transform="translate(-80.88 -31)"/><path class="cls-1" d="M155.61,388.4c.48.28.48.73,0,1a1.91,1.91,0,0,1-1.74,0c-.48-.27-.48-.72,0-1A2,2,0,0,1,155.61,388.4Z" transform="translate(-80.88 -31)"/><path class="cls-1" d="M160.14,385.78c.48.28.48.73,0,1a1.89,1.89,0,0,1-1.73,0c-.48-.27-.48-.72,0-1A2,2,0,0,1,160.14,385.78Z" transform="translate(-80.88 -31)"/><path class="cls-1" d="M164.68,383.16a.53.53,0,0,1,0,1,2,2,0,0,1-1.74,0,.54.54,0,0,1,0-1A2,2,0,0,1,164.68,383.16Z" transform="translate(-80.88 -31)"/><ellipse class="cls-1" cx="87.47" cy="350.04" rx="1.23" ry="0.71"/><path class="cls-1" d="M173.75,377.92a.53.53,0,0,1,0,1,2,2,0,0,1-1.73,0,.53.53,0,0,1,0-1A2,2,0,0,1,173.75,377.92Z" transform="translate(-80.88 -31)"/><path class="cls-1" d="M178.29,375.31c.48.27.48.72,0,1a2,2,0,0,1-1.73,0c-.48-.28-.48-.73,0-1A1.89,1.89,0,0,1,178.29,375.31Z" transform="translate(-80.88 -31)"/><path class="cls-1" d="M105.7,412c.48.27.48.72,0,1a1.91,1.91,0,0,1-1.74,0c-.48-.28-.48-.73,0-1A1.91,1.91,0,0,1,105.7,412Z" transform="translate(-80.88 -31)"/><ellipse class="cls-1" cx="28.49" cy="378.86" rx="1.23" ry="0.71"/><ellipse class="cls-1" cx="33.02" cy="376.24" rx="1.23" ry="0.71"/><path class="cls-1" d="M119.31,404.12a.53.53,0,0,1,0,1,1.91,1.91,0,0,1-1.74,0,.53.53,0,0,1,0-1A1.91,1.91,0,0,1,119.31,404.12Z" transform="translate(-80.88 -31)"/><path class="cls-1" d="M123.85,401.5a.53.53,0,0,1,0,1,1.91,1.91,0,0,1-1.74,0,.53.53,0,0,1,0-1A1.91,1.91,0,0,1,123.85,401.5Z" transform="translate(-80.88 -31)"/><path class="cls-1" d="M128.38,398.88c.48.28.48.73,0,1a1.89,1.89,0,0,1-1.73,0c-.48-.27-.48-.72,0-1A1.89,1.89,0,0,1,128.38,398.88Z" transform="translate(-80.88 -31)"/><path class="cls-1" d="M132.92,396.26c.48.28.48.73,0,1a1.89,1.89,0,0,1-1.73,0c-.48-.27-.48-.72,0-1A1.89,1.89,0,0,1,132.92,396.26Z" transform="translate(-80.88 -31)"/><path class="cls-1" d="M137.46,393.64c.48.28.48.73,0,1a1.91,1.91,0,0,1-1.74,0c-.48-.27-.48-.72,0-1A1.91,1.91,0,0,1,137.46,393.64Z" transform="translate(-80.88 -31)"/><path class="cls-1" d="M142,391a.53.53,0,0,1,0,1,1.91,1.91,0,0,1-1.74,0c-.48-.27-.48-.72,0-1A1.91,1.91,0,0,1,142,391Z" transform="translate(-80.88 -31)"/><ellipse class="cls-1" cx="64.78" cy="357.9" rx="1.23" ry="0.71"/><path class="cls-1" d="M151.07,385.78c.48.28.48.73,0,1a1.91,1.91,0,0,1-1.74,0c-.48-.27-.48-.72,0-1A2,2,0,0,1,151.07,385.78Z" transform="translate(-80.88 -31)"/><path class="cls-1" d="M155.61,383.16a.53.53,0,0,1,0,1,2,2,0,0,1-1.74,0,.53.53,0,0,1,0-1A2,2,0,0,1,155.61,383.16Z" transform="translate(-80.88 -31)"/><ellipse class="cls-1" cx="78.39" cy="350.04" rx="1.23" ry="0.71"/><path class="cls-1" d="M164.68,377.92a.53.53,0,0,1,0,1,2,2,0,0,1-1.74,0,.54.54,0,0,1,0-1A2,2,0,0,1,164.68,377.92Z" transform="translate(-80.88 -31)"/><path class="cls-1" d="M169.22,375.31c.48.27.48.72,0,1a2,2,0,0,1-1.74,0c-.48-.28-.48-.73,0-1A1.91,1.91,0,0,1,169.22,375.31Z" transform="translate(-80.88 -31)"/><path class="cls-1" d="M173.75,372.69c.48.27.48.72,0,1a2,2,0,0,1-1.73,0c-.48-.28-.48-.73,0-1A1.89,1.89,0,0,1,173.75,372.69Z" transform="translate(-80.88 -31)"/><path class="cls-1" d="M101.16,409.36c.48.27.48.72,0,1a1.89,1.89,0,0,1-1.73,0c-.48-.28-.48-.73,0-1A1.89,1.89,0,0,1,101.16,409.36Z" transform="translate(-80.88 -31)"/><path class="cls-1" d="M105.7,406.74c.48.27.48.72,0,1a1.91,1.91,0,0,1-1.74,0c-.48-.28-.48-.73,0-1A1.91,1.91,0,0,1,105.7,406.74Z" transform="translate(-80.88 -31)"/><path class="cls-1" d="M110.24,404.12a.53.53,0,0,1,0,1,1.91,1.91,0,0,1-1.74,0,.53.53,0,0,1,0-1A1.91,1.91,0,0,1,110.24,404.12Z" transform="translate(-80.88 -31)"/><ellipse class="cls-1" cx="14.88" cy="376.24" rx="1.23" ry="0.71"/><path class="cls-1" d="M101.16,404.12a.53.53,0,0,1,0,1,1.89,1.89,0,0,1-1.73,0,.53.53,0,0,1,0-1A1.89,1.89,0,0,1,101.16,404.12Z" transform="translate(-80.88 -31)"/><path class="cls-1" d="M92.05,404.09c.48.28.48.73,0,1a1.91,1.91,0,0,1-1.74,0c-.48-.27-.48-.72,0-1A1.91,1.91,0,0,1,92.05,404.09Z" transform="translate(-80.88 -31)"/><path class="cls-1" d="M96.59,401.47c.48.28.48.73,0,1a1.91,1.91,0,0,1-1.74,0c-.48-.27-.48-.72,0-1A2,2,0,0,1,96.59,401.47Z" transform="translate(-80.88 -31)"/><path class="cls-1" d="M87.51,401.47c.48.28.48.73,0,1a1.89,1.89,0,0,1-1.73,0c-.48-.27-.48-.72,0-1A2,2,0,0,1,87.51,401.47Z" transform="translate(-80.88 -31)"/><path class="cls-1" d="M92.05,398.85c.48.28.48.73,0,1a1.91,1.91,0,0,1-1.74,0c-.48-.27-.48-.72,0-1A2,2,0,0,1,92.05,398.85Z" transform="translate(-80.88 -31)"/><path class="cls-1" d="M83,398.85a.53.53,0,0,1,0,1,1.91,1.91,0,0,1-1.74,0c-.48-.27-.48-.72,0-1A2,2,0,0,1,83,398.85Z" transform="translate(-80.88 -31)"/><ellipse class="cls-1" cx="5.76" cy="365.73" rx="1.23" ry="0.71"/><path class="cls-1" d="M83,393.61a.54.54,0,0,1,0,1,2,2,0,0,1-1.74,0,.53.53,0,0,1,0-1A2,2,0,0,1,83,393.61Z" transform="translate(-80.88 -31)"/><path class="cls-1" d="M223.67,354.38a.53.53,0,0,1,0,1,2,2,0,0,1-1.73,0,.53.53,0,0,1,0-1A2,2,0,0,1,223.67,354.38Z" transform="translate(-80.88 -31)"/><ellipse class="cls-1" cx="146.46" cy="321.27" rx="1.23" ry="0.71"/><path class="cls-1" d="M181.1,372.72a1.94,1.94,0,0,1,1.74,0c.48.28.48.73,0,1a1.91,1.91,0,0,1-1.74,0C180.62,373.45,180.62,373,181.1,372.72Z" transform="translate(-80.88 -31)"/><path class="cls-1" d="M187.38,370.1c.48.28.48.73,0,1a1.91,1.91,0,0,1-1.74,0c-.48-.27-.48-.72,0-1A1.91,1.91,0,0,1,187.38,370.1Z" transform="translate(-80.88 -31)"/><path class="cls-1" d="M191.92,367.48c.48.28.48.73,0,1a1.91,1.91,0,0,1-1.74,0c-.48-.27-.48-.72,0-1A1.91,1.91,0,0,1,191.92,367.48Z" transform="translate(-80.88 -31)"/><ellipse class="cls-1" cx="114.7" cy="334.36" rx="1.23" ry="0.71"/><ellipse class="cls-1" cx="119.24" cy="331.74" rx="1.23" ry="0.71"/><ellipse class="cls-1" cx="123.78" cy="329.12" rx="1.23" ry="0.71"/><path class="cls-1" d="M210.06,357c.48.28.48.73,0,1a1.89,1.89,0,0,1-1.73,0c-.48-.27-.48-.72,0-1A2,2,0,0,1,210.06,357Z" transform="translate(-80.88 -31)"/><ellipse class="cls-1" cx="132.85" cy="323.88" rx="1.23" ry="0.71"/><path class="cls-1" d="M219.14,351.76a.53.53,0,0,1,0,1,2,2,0,0,1-1.74,0,.53.53,0,0,1,0-1A2,2,0,0,1,219.14,351.76Z" transform="translate(-80.88 -31)"/><path class="cls-1" d="M223.67,349.14a.53.53,0,0,1,0,1,2,2,0,0,1-1.73,0,.53.53,0,0,1,0-1A2,2,0,0,1,223.67,349.14Z" transform="translate(-80.88 -31)"/><path class="cls-1" d="M176.56,370.1a2,2,0,0,1,1.74,0c.48.28.48.73,0,1a1.92,1.92,0,0,1-1.73,0A.54.54,0,0,1,176.56,370.1Z" transform="translate(-80.88 -31)"/><path class="cls-1" d="M182.84,367.48c.48.28.48.73,0,1a1.89,1.89,0,0,1-1.73,0c-.48-.27-.48-.72,0-1A1.89,1.89,0,0,1,182.84,367.48Z" transform="translate(-80.88 -31)"/><path class="cls-1" d="M187.38,364.86c.48.28.48.73,0,1a1.91,1.91,0,0,1-1.74,0c-.48-.27-.48-.72,0-1A1.91,1.91,0,0,1,187.38,364.86Z" transform="translate(-80.88 -31)"/><path class="cls-1" d="M191.92,362.24c.48.28.48.73,0,1a1.91,1.91,0,0,1-1.74,0c-.48-.27-.48-.72,0-1A2,2,0,0,1,191.92,362.24Z" transform="translate(-80.88 -31)"/><path class="cls-1" d="M196.45,359.62c.48.28.48.73,0,1a1.89,1.89,0,0,1-1.73,0c-.48-.27-.48-.72,0-1A2,2,0,0,1,196.45,359.62Z" transform="translate(-80.88 -31)"/><path class="cls-1" d="M201,357c.48.28.48.73,0,1a1.91,1.91,0,0,1-1.74,0,.53.53,0,0,1,0-1A2,2,0,0,1,201,357Z" transform="translate(-80.88 -31)"/><path class="cls-1" d="M205.53,354.38a.53.53,0,0,1,0,1,2,2,0,0,1-1.74,0,.53.53,0,0,1,0-1A2,2,0,0,1,205.53,354.38Z" transform="translate(-80.88 -31)"/><path class="cls-1" d="M210.06,351.76a.53.53,0,0,1,0,1,2,2,0,0,1-1.73,0,.53.53,0,0,1,0-1A2,2,0,0,1,210.06,351.76Z" transform="translate(-80.88 -31)"/><path class="cls-1" d="M214.6,349.14a.53.53,0,0,1,0,1,2,2,0,0,1-1.73,0,.53.53,0,0,1,0-1A2,2,0,0,1,214.6,349.14Z" transform="translate(-80.88 -31)"/><ellipse class="cls-1" cx="146.51" cy="326.38" rx="1.23" ry="0.71"/><path class="cls-1" d="M251,417.15c.48.27.48.72,0,1a2,2,0,0,1-1.74,0,.53.53,0,0,1,0-1A1.91,1.91,0,0,1,251,417.15Z" transform="translate(-80.88 -31)"/><ellipse class="cls-1" cx="164.72" cy="384.03" rx="1.23" ry="0.71"/><ellipse class="cls-1" cx="160.19" cy="381.41" rx="1.23" ry="0.71"/><path class="cls-1" d="M237.36,409.26c.48.28.48.73,0,1a1.91,1.91,0,0,1-1.74,0c-.48-.27-.48-.72,0-1A1.91,1.91,0,0,1,237.36,409.26Z" transform="translate(-80.88 -31)"/><path class="cls-1" d="M232.82,406.64c.48.28.48.73,0,1a1.89,1.89,0,0,1-1.73,0c-.48-.27-.48-.72,0-1A1.89,1.89,0,0,1,232.82,406.64Z" transform="translate(-80.88 -31)"/><ellipse class="cls-1" cx="146.54" cy="373.52" rx="1.23" ry="0.71"/><path class="cls-1" d="M223.75,401.4c.48.28.48.73,0,1a1.91,1.91,0,0,1-1.74,0c-.48-.27-.48-.72,0-1A2,2,0,0,1,223.75,401.4Z" transform="translate(-80.88 -31)"/><path class="cls-1" d="M219.21,398.78c.48.28.48.73,0,1a1.89,1.89,0,0,1-1.73,0c-.48-.27-.48-.72,0-1A2,2,0,0,1,219.21,398.78Z" transform="translate(-80.88 -31)"/><path class="cls-1" d="M214.67,396.16c.48.28.48.73,0,1a1.89,1.89,0,0,1-1.73,0c-.48-.27-.48-.72,0-1A2,2,0,0,1,214.67,396.16Z" transform="translate(-80.88 -31)"/><path class="cls-1" d="M210.14,393.54a.53.53,0,0,1,0,1,2,2,0,0,1-1.74,0,.53.53,0,0,1,0-1A2,2,0,0,1,210.14,393.54Z" transform="translate(-80.88 -31)"/><path class="cls-1" d="M249.28,411.94a2,2,0,0,1,1.74,0c.48.28.48.73,0,1a1.92,1.92,0,0,1-1.73,0C248.81,412.67,248.8,412.22,249.28,411.94Z" transform="translate(-80.88 -31)"/><path class="cls-1" d="M244.75,409.32a2,2,0,0,1,1.73,0c.48.28.48.73,0,1a1.92,1.92,0,0,1-1.73,0A.53.53,0,0,1,244.75,409.32Z" transform="translate(-80.88 -31)"/><path class="cls-1" d="M240.17,406.68a1.89,1.89,0,0,1,1.73,0,.53.53,0,0,1,0,1,1.91,1.91,0,0,1-1.74,0A.53.53,0,0,1,240.17,406.68Z" transform="translate(-80.88 -31)"/><path class="cls-1" d="M235.63,404.06a1.91,1.91,0,0,1,1.74,0c.48.27.48.72,0,1a1.89,1.89,0,0,1-1.73,0C235.16,404.78,235.15,404.34,235.63,404.06Z" transform="translate(-80.88 -31)"/><path class="cls-1" d="M231.1,401.44a1.89,1.89,0,0,1,1.73,0c.48.27.48.72,0,1a1.89,1.89,0,0,1-1.73,0A.53.53,0,0,1,231.1,401.44Z" transform="translate(-80.88 -31)"/><path class="cls-1" d="M226.56,398.82a1.89,1.89,0,0,1,1.73,0,.53.53,0,0,1,0,1,1.91,1.91,0,0,1-1.74,0C226.08,399.55,226.08,399.1,226.56,398.82Z" transform="translate(-80.88 -31)"/><path class="cls-1" d="M222,396.2a1.91,1.91,0,0,1,1.74,0c.48.27.48.72,0,1a1.91,1.91,0,0,1-1.74,0C221.54,396.93,221.54,396.48,222,396.2Z" transform="translate(-80.88 -31)"/><path class="cls-1" d="M217.48,393.58a1.91,1.91,0,0,1,1.74,0,.53.53,0,0,1,0,1,1.89,1.89,0,0,1-1.73,0A.53.53,0,0,1,217.48,393.58Z" transform="translate(-80.88 -31)"/><path class="cls-1" d="M213,391a1.89,1.89,0,0,1,1.73,0,.53.53,0,0,1,0,1,1.91,1.91,0,0,1-1.74,0C212.47,391.69,212.47,391.24,213,391Z" transform="translate(-80.88 -31)"/><path class="cls-1" d="M208.41,388.34a1.91,1.91,0,0,1,1.74,0,.53.53,0,0,1,0,1,1.91,1.91,0,0,1-1.74,0C207.93,389.07,207.93,388.62,208.41,388.34Z" transform="translate(-80.88 -31)"/><path class="cls-1" d="M219.19,378.84c.48.27.48.72,0,1a2,2,0,0,1-1.74,0c-.48-.28-.48-.73,0-1A1.91,1.91,0,0,1,219.19,378.84Z" transform="translate(-80.88 -31)"/><path class="cls-1" d="M223.72,376.22c.48.27.48.72,0,1a2,2,0,0,1-1.73,0c-.48-.28-.48-.73,0-1A1.89,1.89,0,0,1,223.72,376.22Z" transform="translate(-80.88 -31)"/><path class="cls-1" d="M228.26,373.6c.48.27.48.72,0,1a1.89,1.89,0,0,1-1.73,0c-.48-.28-.48-.73,0-1A1.89,1.89,0,0,1,228.26,373.6Z" transform="translate(-80.88 -31)"/><path class="cls-1" d="M232.8,371c.48.27.48.72,0,1a1.91,1.91,0,0,1-1.74,0c-.48-.28-.48-.73,0-1A1.91,1.91,0,0,1,232.8,371Z" transform="translate(-80.88 -31)"/><path class="cls-1" d="M237.33,368.36c.48.27.48.72,0,1a1.89,1.89,0,0,1-1.73,0c-.48-.28-.48-.73,0-1A1.89,1.89,0,0,1,237.33,368.36Z" transform="translate(-80.88 -31)"/><path class="cls-1" d="M219.19,373.6c.48.27.48.72,0,1a1.91,1.91,0,0,1-1.74,0c-.48-.28-.48-.73,0-1A1.91,1.91,0,0,1,219.19,373.6Z" transform="translate(-80.88 -31)"/><path class="cls-1" d="M223.72,371c.48.27.48.72,0,1a1.89,1.89,0,0,1-1.73,0c-.48-.28-.48-.73,0-1A1.89,1.89,0,0,1,223.72,371Z" transform="translate(-80.88 -31)"/><path class="cls-1" d="M228.26,368.36c.48.27.48.72,0,1a1.89,1.89,0,0,1-1.73,0c-.48-.28-.48-.73,0-1A1.89,1.89,0,0,1,228.26,368.36Z" transform="translate(-80.88 -31)"/><path class="cls-1" d="M232.8,365.74c.48.27.48.72,0,1a1.91,1.91,0,0,1-1.74,0c-.48-.28-.48-.73,0-1A1.91,1.91,0,0,1,232.8,365.74Z" transform="translate(-80.88 -31)"/><ellipse class="cls-1" cx="155.59" cy="332.62" rx="1.23" ry="0.71"/><path class="cls-1" d="M194.21,462.57c.48.27.48.72,0,1a2,2,0,0,1-1.74,0c-.48-.28-.48-.73,0-1A1.91,1.91,0,0,1,194.21,462.57Z" transform="translate(-80.88 -31)"/><path class="cls-1" d="M198.75,460a.53.53,0,0,1,0,1,1.91,1.91,0,0,1-1.74,0c-.48-.28-.48-.73,0-1A1.91,1.91,0,0,1,198.75,460Z" transform="translate(-80.88 -31)"/><ellipse class="cls-1" cx="121.53" cy="426.83" rx="1.23" ry="0.71"/><path class="cls-1" d="M207.82,454.71c.48.27.48.72,0,1a1.91,1.91,0,0,1-1.74,0,.53.53,0,0,1,0-1A1.91,1.91,0,0,1,207.82,454.71Z" transform="translate(-80.88 -31)"/><path class="cls-1" d="M212.36,452.09a.53.53,0,0,1,0,1,1.91,1.91,0,0,1-1.74,0,.53.53,0,0,1,0-1A1.91,1.91,0,0,1,212.36,452.09Z" transform="translate(-80.88 -31)"/><path class="cls-1" d="M216.89,449.47a.53.53,0,0,1,0,1,1.89,1.89,0,0,1-1.73,0,.53.53,0,0,1,0-1A1.89,1.89,0,0,1,216.89,449.47Z" transform="translate(-80.88 -31)"/><path class="cls-1" d="M221.43,446.85c.48.28.48.73,0,1a1.89,1.89,0,0,1-1.73,0c-.48-.27-.48-.72,0-1A1.89,1.89,0,0,1,221.43,446.85Z" transform="translate(-80.88 -31)"/><path class="cls-1" d="M226,444.23c.48.28.48.73,0,1a1.91,1.91,0,0,1-1.74,0c-.48-.27-.48-.72,0-1A1.91,1.91,0,0,1,226,444.23Z" transform="translate(-80.88 -31)"/><path class="cls-1" d="M230.5,441.61c.48.28.48.73,0,1a1.89,1.89,0,0,1-1.73,0c-.48-.27-.48-.72,0-1A1.89,1.89,0,0,1,230.5,441.61Z" transform="translate(-80.88 -31)"/><path class="cls-1" d="M235,439c.48.28.48.73,0,1a1.89,1.89,0,0,1-1.73,0c-.48-.27-.48-.72,0-1A1.89,1.89,0,0,1,235,439Z" transform="translate(-80.88 -31)"/><path class="cls-1" d="M239.58,436.37c.48.28.48.73,0,1a1.91,1.91,0,0,1-1.74,0c-.48-.27-.48-.72,0-1A2,2,0,0,1,239.58,436.37Z" transform="translate(-80.88 -31)"/><ellipse class="cls-1" cx="162.37" cy="403.25" rx="1.23" ry="0.71"/><ellipse class="cls-1" cx="166.9" cy="400.63" rx="1.23" ry="0.71"/><ellipse class="cls-1" cx="171.44" cy="398.01" rx="1.23" ry="0.71"/><path class="cls-1" d="M257.73,425.89a.53.53,0,0,1,0,1,2,2,0,0,1-1.74,0,.53.53,0,0,1,0-1A2,2,0,0,1,257.73,425.89Z" transform="translate(-80.88 -31)"/><path class="cls-1" d="M262.26,423.28c.48.27.48.72,0,1a2,2,0,0,1-1.73,0c-.48-.28-.48-.73,0-1A1.89,1.89,0,0,1,262.26,423.28Z" transform="translate(-80.88 -31)"/><path class="cls-1" d="M198.92,464.77c.48.27.48.72,0,1a1.89,1.89,0,0,1-1.73,0c-.48-.28-.48-.73,0-1A1.89,1.89,0,0,1,198.92,464.77Z" transform="translate(-80.88 -31)"/><path class="cls-1" d="M203.46,462.15c.48.27.48.72,0,1a1.89,1.89,0,0,1-1.73,0c-.48-.28-.48-.73,0-1A1.89,1.89,0,0,1,203.46,462.15Z" transform="translate(-80.88 -31)"/><path class="cls-1" d="M208,459.53c.48.27.48.72,0,1a1.91,1.91,0,0,1-1.74,0c-.48-.28-.48-.73,0-1A1.91,1.91,0,0,1,208,459.53Z" transform="translate(-80.88 -31)"/><path class="cls-1" d="M212.53,456.91a.53.53,0,0,1,0,1,1.89,1.89,0,0,1-1.73,0,.53.53,0,0,1,0-1A1.89,1.89,0,0,1,212.53,456.91Z" transform="translate(-80.88 -31)"/><path class="cls-1" d="M217.07,454.29a.53.53,0,0,1,0,1,1.89,1.89,0,0,1-1.73,0,.53.53,0,0,1,0-1A1.89,1.89,0,0,1,217.07,454.29Z" transform="translate(-80.88 -31)"/><ellipse class="cls-1" cx="139.86" cy="421.17" rx="1.23" ry="0.71"/><ellipse class="cls-1" cx="144.4" cy="418.55" rx="1.23" ry="0.71"/><ellipse class="cls-1" cx="148.93" cy="415.93" rx="1.23" ry="0.71"/><ellipse class="cls-1" cx="153.47" cy="413.31" rx="1.23" ry="0.71"/><ellipse class="cls-1" cx="158.01" cy="410.69" rx="1.23" ry="0.71"/><path class="cls-1" d="M244.29,438.57c.48.28.48.73,0,1a1.89,1.89,0,0,1-1.73,0c-.48-.27-.48-.72,0-1A2,2,0,0,1,244.29,438.57Z" transform="translate(-80.88 -31)"/><path class="cls-1" d="M248.83,436c.48.28.48.73,0,1a1.91,1.91,0,0,1-1.74,0,.53.53,0,0,1,0-1A2,2,0,0,1,248.83,436Z" transform="translate(-80.88 -31)"/><path class="cls-1" d="M253.37,433.33a.53.53,0,0,1,0,1,2,2,0,0,1-1.74,0,.53.53,0,0,1,0-1A2,2,0,0,1,253.37,433.33Z" transform="translate(-80.88 -31)"/><path class="cls-1" d="M257.9,430.71a.53.53,0,0,1,0,1,2,2,0,0,1-1.73,0,.53.53,0,0,1,0-1A2,2,0,0,1,257.9,430.71Z" transform="translate(-80.88 -31)"/><path class="cls-1" d="M262.44,428.09a.53.53,0,0,1,0,1,2,2,0,0,1-1.73,0,.53.53,0,0,1,0-1A2,2,0,0,1,262.44,428.09Z" transform="translate(-80.88 -31)"/><path class="cls-2" d="M313.9,112.08,276.74,90.77l0,0c-2.38-1.52-5.55-1.47-9,.54l-37.16,21.45c-7.43,4.29-13.45,15.8-13.45,25.71V292.61l37.41,21.46,13.56-50.89,13.1-7.55V214.07l24.24-90.95Z" transform="translate(-80.88 -31)"/><path class="cls-3" d="M276.87,96.32h0c-2.38-1.51-5.55-1.46-9,.54l-37.16,21.46a25.18,25.18,0,0,0-8.37,8.74l65.28,38,3.06,19.4,14.89-55.85,8.51-11Z" transform="translate(-80.88 -31)"/><path class="cls-1" d="M255,313.17l-.52,1.5-37.93-21.75V138.49c0-10.06,6.15-21.79,13.71-26.16l37.16-21.45c3.41-2,6.71-2.21,9.33-.68l.24.12,37.68,21.61-8.81,11.42-24.2,90.79v41.79l-13.17,7.6ZM217.6,292.31l36.56,21,13.45-50.44,13-7.52V213.93l24.27-91.05,8.22-10.64L276.8,91.4v0l-.35-.19c-2.31-1.47-5.32-1.27-8.49.55l-37.16,21.46c-7.27,4.19-13.19,15.52-13.19,25.25Z" transform="translate(-80.88 -31)"/><path class="cls-1" d="M318.56,277.09l-64.07,37V160c0-9.91,6-21.42,13.45-25.71l37.16-21.45c7.43-4.29,13.46.26,13.46,10.17Z" transform="translate(-80.88 -31)"/><path class="cls-1" d="M254.49,314.67l-.52-.6V160c0-10.06,6.15-21.79,13.71-26.16l37.16-21.45c3.4-2,6.71-2.22,9.33-.71,3.12,1.8,4.91,5.93,4.91,11.33V277.39Zm56-203a10.39,10.39,0,0,0-5.09,1.54L268.2,134.69C260.93,138.89,255,150.22,255,160V313.17l63-36.39V123c0-5-1.6-8.82-4.39-10.43A6.32,6.32,0,0,0,310.45,111.7Z" transform="translate(-80.88 -31)"/><path class="cls-2" d="M265.22,180.53a2.45,2.45,0,0,1-1.25-.32,3.94,3.94,0,0,1-1.59-3.57V158.26c0-3,1.8-6.47,4.1-7.8L306,127.62a3,3,0,0,1,3-.2,3.91,3.91,0,0,1,1.59,3.56v18.39c0,3-1.81,6.47-4.11,7.8L267,180A3.59,3.59,0,0,1,265.22,180.53Zm42.61-52.4a2.65,2.65,0,0,0-1.27.4L267,151.37c-2,1.14-3.59,4.23-3.59,6.89v18.38a3,3,0,0,0,1.07,2.66,2,2,0,0,0,2-.2L306,156.26c2-1.14,3.59-4.23,3.59-6.89V131a3,3,0,0,0-1.07-2.66A1.53,1.53,0,0,0,307.83,128.13Z" transform="translate(-80.88 -31)"/><path class="cls-2" d="M265.5,268.06a2.72,2.72,0,0,1-1.37-.36c-1.11-.65-1.75-2.09-1.75-3.95V196.7c0-3.34,2.05-7.25,4.58-8.71l38.61-22.29a3.28,3.28,0,0,1,3.34-.23c1.12.65,1.76,2.08,1.76,3.95v67.05c0,3.34-2.06,7.25-4.58,8.71h0l-38.61,22.29A4,4,0,0,1,265.5,268.06Zm42-101.91a3,3,0,0,0-1.45.45l-38.61,22.3c-2.24,1.29-4.06,4.79-4.06,7.8v67.05c0,1.48.45,2.59,1.23,3a2.27,2.27,0,0,0,2.31-.22l38.61-22.3h0c2.23-1.3,4.06-4.8,4.06-7.81V169.42c0-1.48-.45-2.59-1.24-3A1.67,1.67,0,0,0,307.54,166.15Z" transform="translate(-80.88 -31)"/><path class="cls-2" d="M264.72,295.13a2.1,2.1,0,0,1-1-.27,3.17,3.17,0,0,1-1.3-2.89v-9.54a7.69,7.69,0,0,1,3.28-6.22l41.21-23.79a2.42,2.42,0,0,1,2.5-.16,3.18,3.18,0,0,1,1.3,2.89v9.54a7.68,7.68,0,0,1-3.28,6.21l-41.21,23.8A2.93,2.93,0,0,1,264.72,295.13ZM308.33,253a2,2,0,0,0-.94.29l-41.21,23.79a6.77,6.77,0,0,0-2.76,5.32V292a2.25,2.25,0,0,0,.78,2,1.51,1.51,0,0,0,1.46-.16L306.87,270a6.77,6.77,0,0,0,2.76-5.31v-9.54a2.21,2.21,0,0,0-.79-2A1,1,0,0,0,308.33,253Z" transform="translate(-80.88 -31)"/><path class="cls-2" d="M269.72,235.44a1.36,1.36,0,0,1-.68-.18,1.94,1.94,0,0,1-.82-1.77V222.92a4.43,4.43,0,0,1,1.88-3.56l.25-.14a1.56,1.56,0,0,1,1.58-.09,2,2,0,0,1,.83,1.77v10.58a4.43,4.43,0,0,1-1.89,3.56l-.24.14A1.91,1.91,0,0,1,269.72,235.44ZM271.25,220a.85.85,0,0,0-.38.12l-.24.14a3.4,3.4,0,0,0-1.37,2.66v10.57c0,.51.16.79.3.87a.57.57,0,0,0,.54-.09l.25-.14a3.36,3.36,0,0,0,1.36-2.65V220.9c0-.51-.15-.78-.3-.86A.29.29,0,0,0,271.25,220Z" transform="translate(-80.88 -31)"/><path class="cls-2" d="M270.12,168a1.09,1.09,0,0,1-.56-.15,1.52,1.52,0,0,1-.67-1.4v-6a3.33,3.33,0,0,1,1.43-2.69l2.55-1.47a1.28,1.28,0,0,1,1.29-.07,1.56,1.56,0,0,1,.67,1.4v6a3.34,3.34,0,0,1-1.44,2.69l-2.54,1.47A1.51,1.51,0,0,1,270.12,168Zm3.48-10.86a.46.46,0,0,0-.21.07l-2.54,1.47a2.31,2.31,0,0,0-.92,1.79v6a.64.64,0,0,0,.15.5s.12,0,.24-.06l2.55-1.48a2.28,2.28,0,0,0,.91-1.78v-6c0-.3-.08-.46-.14-.49Z" transform="translate(-80.88 -31)"/><path class="cls-2" d="M277.45,163.8a1.08,1.08,0,0,1-.56-.14,1.56,1.56,0,0,1-.67-1.4v-6a3.36,3.36,0,0,1,1.43-2.7l2.55-1.47a1.28,1.28,0,0,1,1.29-.06,1.54,1.54,0,0,1,.67,1.4v6a3.33,3.33,0,0,1-1.43,2.69l-2.55,1.48A1.46,1.46,0,0,1,277.45,163.8ZM280.93,153a.4.4,0,0,0-.2.07l-2.55,1.47a2.29,2.29,0,0,0-.92,1.79v6c0,.3.09.46.15.49s.12,0,.24-.06l2.55-1.47a2.31,2.31,0,0,0,.92-1.79v-6a.64.64,0,0,0-.15-.5Z" transform="translate(-80.88 -31)"/><path class="cls-2" d="M284.78,159.57a1.09,1.09,0,0,1-.56-.15,1.54,1.54,0,0,1-.67-1.4v-6a3.34,3.34,0,0,1,1.44-2.69l2.55-1.47a1.25,1.25,0,0,1,1.29-.06,1.53,1.53,0,0,1,.66,1.4v6a3.33,3.33,0,0,1-1.43,2.69l-2.55,1.47A1.45,1.45,0,0,1,284.78,159.57Zm3.48-10.86a.47.47,0,0,0-.2.07l-2.55,1.47a2.3,2.3,0,0,0-.91,1.79v6c0,.31.08.47.14.5s.13,0,.25-.06l2.55-1.47a2.33,2.33,0,0,0,.91-1.79v-6c0-.31-.09-.47-.15-.5Z" transform="translate(-80.88 -31)"/><path class="cls-2" d="M292.11,155.34a1.09,1.09,0,0,1-.56-.15,1.53,1.53,0,0,1-.66-1.4v-6a3.34,3.34,0,0,1,1.43-2.69l2.55-1.47a1.28,1.28,0,0,1,1.29-.07,1.56,1.56,0,0,1,.66,1.4v6a3.36,3.36,0,0,1-1.43,2.69l-2.55,1.47A1.45,1.45,0,0,1,292.11,155.34Zm3.48-10.86a.47.47,0,0,0-.2.07L292.84,146a2.33,2.33,0,0,0-.91,1.79v6a.68.68,0,0,0,.14.5s.13,0,.25-.06l2.55-1.48a2.31,2.31,0,0,0,.91-1.78v-6c0-.3-.09-.46-.14-.49Z" transform="translate(-80.88 -31)"/><path class="cls-2" d="M299.44,151.11a1.15,1.15,0,0,1-.56-.15,1.56,1.56,0,0,1-.66-1.4v-6a3.33,3.33,0,0,1,1.43-2.69l2.55-1.48a1.3,1.3,0,0,1,1.29-.06,1.56,1.56,0,0,1,.67,1.4v6a3.31,3.31,0,0,1-1.44,2.69l-2.55,1.48A1.45,1.45,0,0,1,299.44,151.11Zm3.49-10.86a.46.46,0,0,0-.21.07l-2.55,1.47a2.32,2.32,0,0,0-.91,1.79v6c0,.3.09.46.15.49s.12,0,.24-.06l2.55-1.47a2.3,2.3,0,0,0,.91-1.79v-6c0-.3-.08-.46-.14-.5Z" transform="translate(-80.88 -31)"/><path class="cls-2" d="M268.29,195.88a.94.94,0,0,1-.47-.12,1.23,1.23,0,0,1-.55-1.12,2.44,2.44,0,0,1,1.08-2l.25-.15a1,1,0,0,1,1.06,0,1.21,1.21,0,0,1,.55,1.11,2.47,2.47,0,0,1-1.09,2l-.25.15A1.16,1.16,0,0,1,268.29,195.88Zm.83-2.55-.25.2a1.46,1.46,0,0,0-.56,1.11c0,.17,0,.23.05.23l.24-.2a1.47,1.47,0,0,0,.56-1.12A.39.39,0,0,0,269.12,193.33Z" transform="translate(-80.88 -31)"/><path class="cls-2" d="M268.22,260.62a.91.91,0,0,1-.48-.13,1.24,1.24,0,0,1-.56-1.14,2.56,2.56,0,0,1,1.12-2.1l.27-.15a1.05,1.05,0,0,1,1.08,0,1.26,1.26,0,0,1,.56,1.14,2.59,2.59,0,0,1-1.12,2.1l-.27.15A1.24,1.24,0,0,1,268.22,260.62Zm.89-2.67-.29.21a1.57,1.57,0,0,0-.6,1.19.46.46,0,0,0,0,.25l.3-.21a1.54,1.54,0,0,0,.59-1.19A.5.5,0,0,0,269.11,258Z" transform="translate(-80.88 -31)"/><path class="cls-2" d="M303.88,240a.91.91,0,0,1-.48-.13,1.24,1.24,0,0,1-.56-1.14,2.56,2.56,0,0,1,1.12-2.09l.26-.16a1.07,1.07,0,0,1,1.09,0,1.26,1.26,0,0,1,.56,1.14,2.56,2.56,0,0,1-1.12,2.1l-.27.15A1.14,1.14,0,0,1,303.88,240Zm.89-2.67-.29.21a1.57,1.57,0,0,0-.6,1.19.46.46,0,0,0,.05.25l.29-.21a1.52,1.52,0,0,0,.6-1.19A.43.43,0,0,0,304.77,237.36Z" transform="translate(-80.88 -31)"/><path class="cls-2" d="M268.22,285a.91.91,0,0,1-.48-.13,1.24,1.24,0,0,1-.56-1.14,2.56,2.56,0,0,1,1.12-2.09l.27-.16a1.05,1.05,0,0,1,1.08,0,1.26,1.26,0,0,1,.56,1.14,2.59,2.59,0,0,1-1.12,2.1l-.27.15A1.24,1.24,0,0,1,268.22,285Zm.89-2.67-.29.21a1.57,1.57,0,0,0-.6,1.19.46.46,0,0,0,0,.25l.3-.21a1.54,1.54,0,0,0,.59-1.19A.5.5,0,0,0,269.11,282.33Z" transform="translate(-80.88 -31)"/><path class="cls-2" d="M303.88,264.41a1,1,0,0,1-.48-.12,1.27,1.27,0,0,1-.56-1.15,2.56,2.56,0,0,1,1.12-2.09l.26-.15a1,1,0,0,1,1.09,0,1.28,1.28,0,0,1,.56,1.15,2.56,2.56,0,0,1-1.12,2.09l-.27.15A1.14,1.14,0,0,1,303.88,264.41Zm.89-2.67-.29.21a1.57,1.57,0,0,0-.6,1.19.46.46,0,0,0,.05.25l.29-.2a1.55,1.55,0,0,0,.6-1.19A.45.45,0,0,0,304.77,261.74Z" transform="translate(-80.88 -31)"/><path class="cls-2" d="M303.92,175.36a1,1,0,0,1-.48-.13,1.28,1.28,0,0,1-.56-1.15A2.58,2.58,0,0,1,304,172l.27-.15a1.05,1.05,0,0,1,1.08-.05,1.26,1.26,0,0,1,.56,1.15,2.56,2.56,0,0,1-1.12,2.09l-.26.15A1.19,1.19,0,0,1,303.92,175.36Zm.9-2.67-.29.2a1.55,1.55,0,0,0-.6,1.19.46.46,0,0,0,.05.25l.29-.2h0a1.58,1.58,0,0,0,.6-1.19A.46.46,0,0,0,304.82,172.69Z" transform="translate(-80.88 -31)"/><path class="cls-2" d="M276.27,32.29h0c-2.33-1.23-5.32-1-8.58.83L230.53,54.58c-7.43,4.29-13.45,15.8-13.45,25.71v12.3c0,5.68,2,9.59,5.08,11.1h0l36.65,21L300.5,79l13.4-25.16Z" transform="translate(-80.88 -31)"/><path class="cls-3" d="M276.4,36.37h0c-2.33-1.22-5.32-1-8.58.84L230.66,58.66a24,24,0,0,0-7.52,7.43,3,3,0,0,0,1,4.3l57.78,33.26,18.74-20.53L314,58Z" transform="translate(-80.88 -31)"/><path class="cls-1" d="M258.9,125.38l-37.17-21.33c-3.29-1.72-5.17-5.88-5.17-11.46V80.29c0-10.06,6.15-21.79,13.71-26.16l37.16-21.45c3.29-1.9,6.51-2.2,9.08-.85h0L314.6,53.68,301,79.28Zm-36.09-21.91,35.89,20.59,41.42-45.37,13.09-24.6L276,32.75c-2.24-1.17-5.11-.88-8.07.83L230.79,55c-7.27,4.2-13.19,15.52-13.19,25.25v12.3c0,5.28,1.75,9.15,4.79,10.63l.43.21Z" transform="translate(-80.88 -31)"/><path class="cls-1" d="M305.1,102.77,268,124.23c-7.44,4.29-13.46-.27-13.46-10.18v-12.3c0-9.91,6-21.42,13.45-25.71L305.1,54.59c7.43-4.29,13.46.26,13.46,10.17v12.3C318.56,87,312.53,98.48,305.1,102.77Z" transform="translate(-80.88 -31)"/><path class="cls-1" d="M262.6,126.36a7.35,7.35,0,0,1-3.72-1c-3.12-1.81-4.91-5.94-4.91-11.34v-12.3c0-10.06,6.15-21.79,13.71-26.16l37.16-21.45c3.4-2,6.72-2.22,9.33-.71,3.12,1.8,4.91,5.93,4.91,11.33v12.3c0,10.06-6.16,21.8-13.72,26.17l-37.15,21.45A11.45,11.45,0,0,1,262.6,126.36ZM310.45,53.5A10.39,10.39,0,0,0,305.36,55L268.2,76.5C260.93,80.69,255,92,255,101.75v12.3c0,5,1.6,8.82,4.39,10.43,2.28,1.32,5.22,1.07,8.29-.71l37.15-21.45C312.11,98.12,318,86.79,318,77.06V64.76c0-5-1.6-8.82-4.39-10.43A6.32,6.32,0,0,0,310.45,53.5Z" transform="translate(-80.88 -31)"/><path class="cls-2" d="M241.38,237.07a12.9,12.9,0,0,0-3.82-6.77c-2.45-2.28-4.76-2.68-6.21-1.67l-2.83,1.52a.44.44,0,0,0-.17.61l8.12,14L239.8,243l.14-.08h0C241.32,242,242,240,241.38,237.07Z" transform="translate(-80.88 -31)"/><path class="cls-3" d="M241.24,238.89a12.87,12.87,0,0,0-3.82-6.76c-2.45-2.28-4.76-2.68-6.21-1.67L228.38,232a.45.45,0,0,0-.17.61l6.88,11.89,3.14-2.42.14-.08.38-.17.79.12C240.92,241.07,241.85,241.83,241.24,238.89Z" transform="translate(-80.88 -31)"/><path class="cls-1" d="M236.27,245.48,227.9,231a1,1,0,0,1-.09-.74,1,1,0,0,1,.46-.59l2.84-1.52c1.71-1.19,4.34-.54,6.8,1.75a13.4,13.4,0,0,1,4,7h0c.62,3,0,5.35-1.68,6.37l-.13.08Zm-3.18-16.85a2.47,2.47,0,0,0-1.44.43l-2.88,1.54,7.89,13.48,3-1.64c1.27-.78,1.72-2.75,1.2-5.27h0a12.46,12.46,0,0,0-3.67-6.49A6.52,6.52,0,0,0,233.09,228.63Z" transform="translate(-80.88 -31)"/><ellipse class="cls-2" cx="232.34" cy="237.55" rx="4.81" ry="8.33" transform="translate(-168.53 117) rotate(-30)"/><path class="cls-1" d="M235,245.68a5.82,5.82,0,0,1-2.89-.88,13.62,13.62,0,0,1-6.15-10.65c0-2,.71-3.53,2-4.27s2.94-.59,4.68.41A13.63,13.63,0,0,1,238.75,241c0,2-.7,3.53-2,4.27A3.57,3.57,0,0,1,235,245.68Zm-5.26-15.22a2.45,2.45,0,0,0-1.27.33c-.95.54-1.47,1.73-1.47,3.36a12.47,12.47,0,0,0,5.63,9.75c1.41.81,2.7,1,3.65.41s1.46-1.74,1.46-3.36a12.43,12.43,0,0,0-5.63-9.75A4.84,4.84,0,0,0,229.71,230.46Z" transform="translate(-80.88 -31)"/><path class="cls-2" d="M234.56,239.14a7.15,7.15,0,0,0-2.13-3.77c-1.37-1.28-2.66-1.5-3.47-.94l-3.29,1.86a.25.25,0,0,0-.09.34l4.53,7.84,3.57-2,.08,0h0C234.53,241.92,234.9,240.78,234.56,239.14Z" transform="translate(-80.88 -31)"/><path class="cls-3" d="M234.61,240.66a7.14,7.14,0,0,0-2.13-3.78c-1.37-1.27-2.66-1.5-3.47-.93l-3.29,1.85a.26.26,0,0,0-.09.35l3.19,5.93,4-1.93h0C233.55,241.68,235,242.29,234.61,240.66Z" transform="translate(-80.88 -31)"/><path class="cls-1" d="M229.92,245.18l-4.79-8.28a.76.76,0,0,1-.08-.59.79.79,0,0,1,.37-.47l3.29-1.86c1-.73,2.62-.35,4.07,1a7.74,7.74,0,0,1,2.29,4.06h0c.37,1.76,0,3.18-1,3.8Zm-3.75-8.57,4.13,7.15,3.12-1.77c.69-.42.9-1.43.63-2.74h0a6.7,6.7,0,0,0-2-3.5c-1.08-1-2.15-1.34-2.81-.89Z" transform="translate(-80.88 -31)"/><path class="cls-2" d="M231.1,242.33c0,2.1-1.48,2.95-3.29,1.9a7.27,7.27,0,0,1-3.29-5.7c0-2.1,1.47-2.95,3.29-1.9A7.29,7.29,0,0,1,231.1,242.33Z" transform="translate(-80.88 -31)"/><path class="cls-1" d="M229.28,245.2a3.44,3.44,0,0,1-1.73-.52,7.73,7.73,0,0,1-3.56-6.15,2.52,2.52,0,0,1,4.08-2.35,7.74,7.74,0,0,1,3.55,6.15,2.81,2.81,0,0,1-1.23,2.58A2.21,2.21,0,0,1,229.28,245.2Zm-2.94-8.5a1.19,1.19,0,0,0-.6.15,1.84,1.84,0,0,0-.7,1.68,6.81,6.81,0,0,0,3,5.25,1.85,1.85,0,0,0,1.8.23,1.83,1.83,0,0,0,.71-1.68,6.82,6.82,0,0,0-3-5.25A2.52,2.52,0,0,0,226.34,236.7Z" transform="translate(-80.88 -31)"/><path class="cls-2" d="M267.66,116.84a5.09,5.09,0,0,1-2.58-.67c-2.14-1.24-3.37-4.07-3.37-7.75V99.08c0-6.79,4.16-14.72,9.27-17.67l30.56-17.65c2.34-1.34,4.62-1.51,6.42-.47,2.15,1.24,3.38,4.06,3.38,7.74v9.34c0,6.79-4.16,14.72-9.28,17.68l-30.55,17.64A7.86,7.86,0,0,1,267.66,116.84Zm37.73-53.18a6.74,6.74,0,0,0-3.33,1L271.5,82.31c-4.82,2.79-8.75,10.31-8.75,16.77v9.34c0,3.3,1,5.79,2.86,6.84,1.46.85,3.37.68,5.37-.47l30.56-17.64c4.83-2.79,8.76-10.32,8.76-16.78V71c0-3.3-1-5.79-2.86-6.84A4,4,0,0,0,305.39,63.66Z" transform="translate(-80.88 -31)"/><path class="cls-2" d="M267.67,116.84a5.29,5.29,0,0,1-1.74-.29,5.93,5.93,0,0,1-3.47-3.66l-.2-.49.5-.19a8.61,8.61,0,0,0,1.33-.61L294.65,94c4.83-2.79,8.76-10.32,8.76-16.78V67.84a11.05,11.05,0,0,0-.69-4.09l-.19-.5.5-.18a5.57,5.57,0,0,1,5.31.46c1.93,1.35,3,4,3,7.49v9.34c0,6.79-4.16,14.73-9.28,17.68l-30.55,17.64A7.74,7.74,0,0,1,267.67,116.84Zm-4-3.85a4.73,4.73,0,0,0,2.64,2.57,5.67,5.67,0,0,0,4.71-.78l30.56-17.64c4.83-2.79,8.76-10.32,8.76-16.78V71c0-3.08-.93-5.5-2.56-6.63a4.42,4.42,0,0,0-3.86-.51,12.75,12.75,0,0,1,.57,4v9.34c0,6.79-4.16,14.73-9.28,17.68L264.62,112.5A9.12,9.12,0,0,1,263.63,113Z" transform="translate(-80.88 -31)"/><path class="cls-2" d="M267.83,95.39a4.66,4.66,0,0,1,.86-3.08,3,3,0,0,1,.73-.62c.5-.29.86-.37,1.08-.26a.91.91,0,0,1,.43.72,7.91,7.91,0,0,1,.1,1.42v.73l-.93.53V93.6a2.26,2.26,0,0,0-.13-1c-.08-.16-.25-.16-.5,0a1.18,1.18,0,0,0-.52.7,4.88,4.88,0,0,0-.16,1.47v4a5.13,5.13,0,0,0,.14,1.49c.09.25.26.29.53.14a1.18,1.18,0,0,0,.54-.77,6.74,6.74,0,0,0,.15-1.67V96.73l-.67.38v-.86l1.55-.89v5l-.5.3-.14-.66a2.29,2.29,0,0,1-1,1.43c-.52.29-.9.28-1.15,0a3.55,3.55,0,0,1-.37-2Z" transform="translate(-80.88 -31)"/><path class="cls-2" d="M273.18,89.64l1.15-.67,1.36,8.66-.91.52-.23-1.67-1.48.86-.22,1.92-.91.53Zm0,6.73,1.26-.72L273.78,91h0Z" transform="translate(-80.88 -31)"/><path class="cls-2" d="M276.57,90.6a2.68,2.68,0,0,1-.08-.76,4.73,4.73,0,0,1,.32-1.82,2.78,2.78,0,0,1,1.25-1.32c.8-.46,1.26-.29,1.41.51a8.27,8.27,0,0,1,.09,1.37v.56l-.92.53V89a5.44,5.44,0,0,0-.08-1.17.45.45,0,0,0-.19-.3.44.44,0,0,0-.31.07,1.16,1.16,0,0,0-.5.59,2.69,2.69,0,0,0-.15,1,1.34,1.34,0,0,0,.14.77,1.26,1.26,0,0,0,.34.31l.23.15.56.36a2.31,2.31,0,0,1,1,2.13,5.63,5.63,0,0,1-.33,2.06,2.76,2.76,0,0,1-1.24,1.37c-.74.42-1.21.32-1.41-.32a5.13,5.13,0,0,1-.17-1.55v-1l.93-.53v1a4.37,4.37,0,0,0,.13,1.36c.09.22.25.26.48.13a1.24,1.24,0,0,0,.49-.47,1.84,1.84,0,0,0,.16-.68c0-.27,0-.56,0-.89A1.5,1.5,0,0,0,278,92l-.54-.31A1.83,1.83,0,0,1,276.57,90.6Z" transform="translate(-80.88 -31)"/><path class="cls-2" d="M280.62,87.9a5.22,5.22,0,0,1,.5-2.5,3,3,0,0,1,1.15-1.13c.73-.42,1.2-.35,1.4.23a4.91,4.91,0,0,1,.18,1.54V90.2a6.3,6.3,0,0,1-.36,2.35,2.77,2.77,0,0,1-1.25,1.4c-.59.34-1,.36-1.26,0a3.5,3.5,0,0,1-.36-1.94Zm2.27-1.37a4,4,0,0,0-.12-1.22c-.09-.2-.26-.23-.51-.08a1.17,1.17,0,0,0-.53.69,4.72,4.72,0,0,0-.15,1.36v4.24a4.43,4.43,0,0,0,.13,1.39c.09.21.26.24.52.09a1.12,1.12,0,0,0,.53-.7,6.19,6.19,0,0,0,.13-1.54Z" transform="translate(-80.88 -31)"/><path class="cls-2" d="M285.1,82.75l1-.55v8.52l1.51-.87v.92l-2.47,1.42Z" transform="translate(-80.88 -31)"/><path class="cls-2" d="M288.48,80.8l1-.55v9.44l-1,.55Z" transform="translate(-80.88 -31)"/><path class="cls-2" d="M293.37,78l.85-.49v9.44l-.7.41-1.84-5.42.06,2.35v4.1l-.89.51V79.43l.73-.42,1.89,5.33-.1-2.67Z" transform="translate(-80.88 -31)"/><path class="cls-2" d="M295.56,76.71,298,75.3v.92l-1.49.86v3.23l1.41-.81v.92l-1.41.81v3.44l1.5-.86v.92l-2.46,1.42Z" transform="translate(-80.88 -31)"/><path class="cls-2" d="M284.9,58.45,265.43,69.69c-4,2.31-11,2-15.58-.64h0c-4.61-2.66-5.11-6.69-1.11-9l19.47-11.24c4-2.3,11-2,15.58.65h0C288.4,52.12,288.9,56.15,284.9,58.45Z" transform="translate(-80.88 -31)"/><path class="cls-1" d="M258.67,66.72a18.72,18.72,0,0,1-9.08-2.26c-2.59-1.5-4.07-3.52-4.07-5.54a5.15,5.15,0,0,1,3-4.36L268,43.32c4.13-2.38,11.35-2.09,16.1.65,2.59,1.49,4.07,3.51,4.07,5.54,0,1.7-1.05,3.25-3,4.35L265.69,65.1A14.23,14.23,0,0,1,258.67,66.72Zm16.3-24a13.26,13.26,0,0,0-6.5,1.49L249,55.47a4.16,4.16,0,0,0-2.44,3.45c0,1.64,1.3,3.33,3.56,4.64,4.46,2.57,11.21,2.86,15.05.64L284.64,53a4.17,4.17,0,0,0,2.44-3.45c0-1.65-1.3-3.34-3.55-4.64A17.65,17.65,0,0,0,275,42.73Z" transform="translate(-80.88 -31)"/><path class="cls-1" d="M181,468l-2.89-4.75L252.6,418a5,5,0,0,0,2.25-4,4.13,4.13,0,0,0-2.08-3.42l-40.83-24.1a10,10,0,0,1-4.87-8.67,10.46,10.46,0,0,1,5.16-8.76l18.42-11.24a3.82,3.82,0,0,0,1.8-3.88,4,4,0,0,0-2.08-2.85l-6.11-3.37a15,15,0,0,0-14.7.18l-85.22,49.73a29.78,29.78,0,0,1-30.13-.08l-5.09-3A14.21,14.21,0,0,1,82,382a13.61,13.61,0,0,1,6.82-11.38l101-59a27.87,27.87,0,0,0,13.78-24V264.47a22.93,22.93,0,0,1,11.18-19.69l10.61-6.2a2.2,2.2,0,0,1,3,.77l.59,1a2.21,2.21,0,0,1-.76,3l-10.61,6.2a17.36,17.36,0,0,0-8.47,14.91v23.15a33.45,33.45,0,0,1-16.54,28.8L91.87,375.24a8.51,8.51,0,0,0-4.35,7.06,8.1,8.1,0,0,0,4,7.23l5.5,3.25a24.22,24.22,0,0,0,24.5.06l85.22-49.73a20.57,20.57,0,0,1,20.19-.24l5.9,3.26a9.77,9.77,0,0,1,5.2,8.05,9.3,9.3,0,0,1-4.5,8.4L215,373.89a5.34,5.34,0,0,0-2.39,4.21,4.42,4.42,0,0,0,2.17,3.64l40.8,24.08a9.74,9.74,0,0,1,4.82,8.42,10.21,10.21,0,0,1-5.05,8.61Z" transform="translate(-80.88 -31)"/><polygon class="cls-1" points="156.59 205.99 160.04 204.44 160.72 207.03 160.53 210.1 159.49 211.73 156.83 212.76 157.64 210.28 157.35 207.27 156.59 205.99"/><polygon class="cls-1" points="153.14 206.55 153.93 208.21 153.81 210.7 150.19 212.76 150.22 210.05 149.29 208.6 153.14 206.55"/><path class="cls-2" d="M239.46,219.74,232,215.45c-1.95-1.13-3.54-4.17-3.54-6.78V158.5c0-2.61,1.59-3.81,3.54-2.68l7.45,4.29c2,1.14,3.54,4.17,3.54,6.78v50.17C243,219.67,241.42,220.87,239.46,219.74Z" transform="translate(-80.88 -31)"/><path class="cls-1" d="M240.87,220.69a3.35,3.35,0,0,1-1.67-.49l-7.45-4.3a9,9,0,0,1-3.8-7.23V158.5a3.65,3.65,0,0,1,1.48-3.32,2.77,2.77,0,0,1,2.84.19l7.45,4.29a9,9,0,0,1,3.81,7.23v50.17a3.65,3.65,0,0,1-1.49,3.32A2.28,2.28,0,0,1,240.87,220.69Zm-1.15-1.4a1.82,1.82,0,0,0,1.8.19,2.7,2.7,0,0,0,1-2.42V166.89c0-2.44-1.47-5.28-3.28-6.32l-7.45-4.3a1.81,1.81,0,0,0-1.79-.19,2.69,2.69,0,0,0-1,2.42v50.17c0,2.44,1.47,5.28,3.28,6.32Z" transform="translate(-80.88 -31)"/><path class="cls-2" d="M237.34,212.09c-2-1.13-3.54-4.16-3.54-6.77V156.85l-1.79-1c-1.95-1.13-3.54.07-3.54,2.68v50.17c0,2.61,1.59,5.65,3.54,6.78l7.45,4.29c2,1.13,3.54-.07,3.54-2.68v-1.7Z" transform="translate(-80.88 -31)"/><path class="cls-3" d="M234.94,212.22a7,7,0,0,0,2.4,2.64l5.66,3.26v1.71c0,2.61-1.58,3.81-3.54,2.68l-7.45-4.3a7.05,7.05,0,0,1-2.5-2.83Z" transform="translate(-80.88 -31)"/><path class="cls-1" d="M240.87,220.69a3.35,3.35,0,0,1-1.67-.49l-7.45-4.3a9,9,0,0,1-3.8-7.23V158.5a3.65,3.65,0,0,1,1.48-3.32,2.77,2.77,0,0,1,2.84.19l2,1.18v48.77a7.91,7.91,0,0,0,3.29,6.32l5.92,3.42v2a3.65,3.65,0,0,1-1.49,3.32A2.28,2.28,0,0,1,240.87,220.69Zm-10.26-64.78a1.29,1.29,0,0,0-.65.17,2.69,2.69,0,0,0-1,2.42v50.17c0,2.44,1.47,5.28,3.28,6.32l7.45,4.3a1.82,1.82,0,0,0,1.8.19,2.7,2.7,0,0,0,1-2.42v-1.4l-5.4-3.12c-2.13-1.23-3.8-4.4-3.8-7.22V157.15l-1.53-.88A2.36,2.36,0,0,0,230.61,155.91Z" transform="translate(-80.88 -31)"/><polygon class="cls-1" points="150.19 124.39 152.92 125.85 152.97 175.49 153.41 177.05 147.93 180.01 147.66 178.66 147.59 127.5 148.45 124.91 150.19 124.39"/></svg>