<svg id="Camada_1" data-name="Camada 1" xmlns="http://www.w3.org/2000/svg" viewBox="0 0 311.33 396.21"><defs><style>.cls-1{fill:#16110d;}.cls-2{fill:#ffbe2e;}.cls-3{fill:#fec;}.cls-4{fill:#191410;}</style></defs><title>Mangueira</title><ellipse class="cls-1" cx="288.37" cy="316.08" rx="1.22" ry="0.7"/><ellipse class="cls-1" cx="292.88" cy="313.48" rx="1.22" ry="0.7"/><path class="cls-1" d="M392.59,361.37a.53.53,0,0,1,0,1,1.89,1.89,0,0,1-1.73,0,.53.53,0,0,1,0-1A2,2,0,0,1,392.59,361.37Z" transform="translate(-94.34 -51)"/><path class="cls-1" d="M374.55,366.58a.53.53,0,0,1,0,1,1.93,1.93,0,0,1-1.72,0,.53.53,0,0,1,0-1A1.93,1.93,0,0,1,374.55,366.58Z" transform="translate(-94.34 -51)"/><path class="cls-1" d="M379.06,364a.52.52,0,0,1,0,1,1.87,1.87,0,0,1-1.72,0,.52.52,0,0,1,0-1A1.87,1.87,0,0,1,379.06,364Z" transform="translate(-94.34 -51)"/><path class="cls-1" d="M383.57,361.37c.48.28.48.73,0,1a1.87,1.87,0,0,1-1.72,0c-.48-.27-.48-.72,0-1A1.93,1.93,0,0,1,383.57,361.37Z" transform="translate(-94.34 -51)"/><ellipse class="cls-1" cx="292.88" cy="308.27" rx="1.22" ry="0.7"/><ellipse class="cls-1" cx="297.38" cy="305.67" rx="1.22" ry="0.7"/><ellipse class="cls-1" cx="270.3" cy="316.05" rx="1.22" ry="0.7"/><path class="cls-1" d="M370,364a.53.53,0,0,1,0,1,2,2,0,0,1-1.73,0,.53.53,0,0,1,0-1A2,2,0,0,1,370,364Z" transform="translate(-94.34 -51)"/><path class="cls-1" d="M374.52,361.35a.52.52,0,0,1,0,1,1.89,1.89,0,0,1-1.73,0,.52.52,0,0,1,0-1A1.89,1.89,0,0,1,374.52,361.35Z" transform="translate(-94.34 -51)"/><ellipse class="cls-1" cx="283.82" cy="308.24" rx="1.22" ry="0.7"/><path class="cls-1" d="M383.53,356.14a.53.53,0,0,1,0,1,1.93,1.93,0,0,1-1.72,0,.53.53,0,0,1,0-1A1.93,1.93,0,0,1,383.53,356.14Z" transform="translate(-94.34 -51)"/><path class="cls-1" d="M388,353.54a.52.52,0,0,1,0,1,1.87,1.87,0,0,1-1.72,0,.52.52,0,0,1,0-1A1.87,1.87,0,0,1,388,353.54Z" transform="translate(-94.34 -51)"/><path class="cls-1" d="M392.55,350.94a.52.52,0,0,1,0,1,1.89,1.89,0,0,1-1.73,0,.52.52,0,0,1,0-1A1.89,1.89,0,0,1,392.55,350.94Z" transform="translate(-94.34 -51)"/><path class="cls-1" d="M356.48,366.55a.53.53,0,0,1,0,1,1.93,1.93,0,0,1-1.72,0,.53.53,0,0,1,0-1A1.93,1.93,0,0,1,356.48,366.55Z" transform="translate(-94.34 -51)"/><path class="cls-1" d="M361,364c.48.27.48.72,0,1a1.93,1.93,0,0,1-1.72,0,.53.53,0,0,1,0-1A1.93,1.93,0,0,1,361,364Z" transform="translate(-94.34 -51)"/><path class="cls-1" d="M365.5,361.35a.52.52,0,0,1,0,1,1.87,1.87,0,0,1-1.72,0,.52.52,0,0,1,0-1A1.87,1.87,0,0,1,365.5,361.35Z" transform="translate(-94.34 -51)"/><ellipse class="cls-1" cx="274.8" cy="308.24" rx="1.22" ry="0.7"/><path class="cls-1" d="M374.52,356.14a.53.53,0,0,1,0,1,2,2,0,0,1-1.73,0,.53.53,0,0,1,0-1A2,2,0,0,1,374.52,356.14Z" transform="translate(-94.34 -51)"/><ellipse class="cls-1" cx="283.82" cy="303.04" rx="1.22" ry="0.7"/><path class="cls-1" d="M383.53,350.94a.52.52,0,0,1,0,1,1.87,1.87,0,0,1-1.72,0,.52.52,0,0,1,0-1A1.87,1.87,0,0,1,383.53,350.94Z" transform="translate(-94.34 -51)"/><path class="cls-1" d="M388,348.33a.53.53,0,0,1,0,1,1.93,1.93,0,0,1-1.72,0,.53.53,0,0,1,0-1A1.93,1.93,0,0,1,388,348.33Z" transform="translate(-94.34 -51)"/><path class="cls-1" d="M392.55,345.73a.53.53,0,0,1,0,1,2,2,0,0,1-1.73,0,.53.53,0,0,1,0-1A2,2,0,0,1,392.55,345.73Z" transform="translate(-94.34 -51)"/><path class="cls-1" d="M347.47,366.55a.53.53,0,0,1,0,1,2,2,0,0,1-1.73,0,.53.53,0,0,1,0-1A2,2,0,0,1,347.47,366.55Z" transform="translate(-94.34 -51)"/><path class="cls-1" d="M352,364a.53.53,0,0,1,0,1,2,2,0,0,1-1.73,0,.53.53,0,0,1,0-1A2,2,0,0,1,352,364Z" transform="translate(-94.34 -51)"/><path class="cls-1" d="M356.48,361.35a.52.52,0,0,1,0,1,1.87,1.87,0,0,1-1.72,0,.52.52,0,0,1,0-1A1.87,1.87,0,0,1,356.48,361.35Z" transform="translate(-94.34 -51)"/><path class="cls-1" d="M361,358.74c.48.28.48.73,0,1a1.93,1.93,0,0,1-1.72,0c-.48-.27-.48-.72,0-1A1.93,1.93,0,0,1,361,358.74Z" transform="translate(-94.34 -51)"/><path class="cls-1" d="M365.5,356.14a.53.53,0,0,1,0,1,1.93,1.93,0,0,1-1.72,0,.53.53,0,0,1,0-1A1.93,1.93,0,0,1,365.5,356.14Z" transform="translate(-94.34 -51)"/><ellipse class="cls-1" cx="274.8" cy="303.04" rx="1.22" ry="0.7"/><ellipse class="cls-1" cx="279.31" cy="300.43" rx="1.22" ry="0.7"/><ellipse class="cls-1" cx="283.82" cy="297.83" rx="1.22" ry="0.7"/><ellipse class="cls-1" cx="288.33" cy="295.23" rx="1.22" ry="0.7"/><ellipse class="cls-1" cx="292.84" cy="292.63" rx="1.22" ry="0.7"/><path class="cls-1" d="M338.45,366.55a.53.53,0,0,1,0,1,1.93,1.93,0,0,1-1.72,0,.53.53,0,0,1,0-1A1.93,1.93,0,0,1,338.45,366.55Z" transform="translate(-94.34 -51)"/><ellipse class="cls-1" cx="247.76" cy="313.45" rx="1.22" ry="0.7"/><path class="cls-1" d="M347.47,361.35a.52.52,0,0,1,0,1,1.89,1.89,0,0,1-1.73,0,.52.52,0,0,1,0-1A1.89,1.89,0,0,1,347.47,361.35Z" transform="translate(-94.34 -51)"/><path class="cls-1" d="M352,358.74a.53.53,0,0,1,0,1,1.89,1.89,0,0,1-1.73,0,.53.53,0,0,1,0-1A2,2,0,0,1,352,358.74Z" transform="translate(-94.34 -51)"/><path class="cls-1" d="M356.48,356.14a.53.53,0,0,1,0,1,1.93,1.93,0,0,1-1.72,0,.53.53,0,0,1,0-1A1.93,1.93,0,0,1,356.48,356.14Z" transform="translate(-94.34 -51)"/><ellipse class="cls-1" cx="265.79" cy="303.04" rx="1.22" ry="0.7"/><path class="cls-1" d="M365.5,350.94a.52.52,0,0,1,0,1,1.87,1.87,0,0,1-1.72,0,.52.52,0,0,1,0-1A1.87,1.87,0,0,1,365.5,350.94Z" transform="translate(-94.34 -51)"/><path class="cls-1" d="M370,348.33a.53.53,0,0,1,0,1,2,2,0,0,1-1.73,0,.53.53,0,0,1,0-1A2,2,0,0,1,370,348.33Z" transform="translate(-94.34 -51)"/><path class="cls-1" d="M374.52,345.73a.53.53,0,0,1,0,1,2,2,0,0,1-1.73,0,.53.53,0,0,1,0-1A2,2,0,0,1,374.52,345.73Z" transform="translate(-94.34 -51)"/><path class="cls-1" d="M379,343.13a.52.52,0,0,1,0,1,1.87,1.87,0,0,1-1.72,0,.52.52,0,0,1,0-1A1.87,1.87,0,0,1,379,343.13Z" transform="translate(-94.34 -51)"/><path class="cls-1" d="M383.53,340.53a.52.52,0,0,1,0,1,1.87,1.87,0,0,1-1.72,0,.52.52,0,0,1,0-1A1.87,1.87,0,0,1,383.53,340.53Z" transform="translate(-94.34 -51)"/><path class="cls-1" d="M329.43,366.55a.53.53,0,0,1,0,1,1.93,1.93,0,0,1-1.72,0,.53.53,0,0,1,0-1A1.93,1.93,0,0,1,329.43,366.55Z" transform="translate(-94.34 -51)"/><path class="cls-1" d="M333.94,364a.53.53,0,0,1,0,1,1.93,1.93,0,0,1-1.72,0,.53.53,0,0,1,0-1A1.93,1.93,0,0,1,333.94,364Z" transform="translate(-94.34 -51)"/><ellipse class="cls-1" cx="243.25" cy="310.85" rx="1.22" ry="0.7"/><path class="cls-1" d="M343,358.74c.48.28.48.73,0,1a1.89,1.89,0,0,1-1.73,0,.53.53,0,0,1,0-1A2,2,0,0,1,343,358.74Z" transform="translate(-94.34 -51)"/><path class="cls-1" d="M347.47,356.14a.53.53,0,0,1,0,1,2,2,0,0,1-1.73,0,.53.53,0,0,1,0-1A2,2,0,0,1,347.47,356.14Z" transform="translate(-94.34 -51)"/><path class="cls-1" d="M352,353.54a.52.52,0,0,1,0,1,1.89,1.89,0,0,1-1.73,0,.52.52,0,0,1,0-1A1.89,1.89,0,0,1,352,353.54Z" transform="translate(-94.34 -51)"/><path class="cls-1" d="M356.48,350.94a.52.52,0,0,1,0,1,1.87,1.87,0,0,1-1.72,0,.52.52,0,0,1,0-1A1.87,1.87,0,0,1,356.48,350.94Z" transform="translate(-94.34 -51)"/><ellipse class="cls-1" cx="265.79" cy="297.83" rx="1.22" ry="0.7"/><ellipse class="cls-1" cx="270.3" cy="295.23" rx="1.22" ry="0.7"/><path class="cls-1" d="M370,343.13a.52.52,0,0,1,0,1,1.89,1.89,0,0,1-1.73,0,.52.52,0,0,1,0-1A1.89,1.89,0,0,1,370,343.13Z" transform="translate(-94.34 -51)"/><path class="cls-1" d="M374.52,340.53a.52.52,0,0,1,0,1,1.89,1.89,0,0,1-1.73,0,.52.52,0,0,1,0-1A1.89,1.89,0,0,1,374.52,340.53Z" transform="translate(-94.34 -51)"/><ellipse class="cls-1" cx="283.82" cy="287.42" rx="1.22" ry="0.7"/><path class="cls-1" d="M320.42,366.55a.53.53,0,0,1,0,1,2,2,0,0,1-1.73,0,.53.53,0,0,1,0-1A2,2,0,0,1,320.42,366.55Z" transform="translate(-94.34 -51)"/><path class="cls-1" d="M324.93,364a.53.53,0,0,1,0,1,2,2,0,0,1-1.73,0,.53.53,0,0,1,0-1A2,2,0,0,1,324.93,364Z" transform="translate(-94.34 -51)"/><path class="cls-1" d="M329.43,361.35a.52.52,0,0,1,0,1,1.87,1.87,0,0,1-1.72,0,.52.52,0,0,1,0-1A1.87,1.87,0,0,1,329.43,361.35Z" transform="translate(-94.34 -51)"/><path class="cls-1" d="M333.94,358.74c.48.28.48.73,0,1a1.87,1.87,0,0,1-1.72,0c-.48-.27-.48-.72,0-1A1.93,1.93,0,0,1,333.94,358.74Z" transform="translate(-94.34 -51)"/><path class="cls-1" d="M338.45,356.14a.53.53,0,0,1,0,1,1.93,1.93,0,0,1-1.72,0,.53.53,0,0,1,0-1A1.93,1.93,0,0,1,338.45,356.14Z" transform="translate(-94.34 -51)"/><ellipse class="cls-1" cx="247.76" cy="303.04" rx="1.22" ry="0.7"/><path class="cls-1" d="M347.47,350.94a.52.52,0,0,1,0,1,1.89,1.89,0,0,1-1.73,0,.52.52,0,0,1,0-1A1.89,1.89,0,0,1,347.47,350.94Z" transform="translate(-94.34 -51)"/><path class="cls-1" d="M352,348.33a.53.53,0,0,1,0,1,2,2,0,0,1-1.73,0,.53.53,0,0,1,0-1A2,2,0,0,1,352,348.33Z" transform="translate(-94.34 -51)"/><ellipse class="cls-1" cx="261.28" cy="295.23" rx="1.22" ry="0.7"/><path class="cls-1" d="M361,343.13a.52.52,0,0,1,0,1,1.87,1.87,0,0,1-1.72,0,.52.52,0,0,1,0-1A1.87,1.87,0,0,1,361,343.13Z" transform="translate(-94.34 -51)"/><path class="cls-1" d="M365.5,340.53a.52.52,0,0,1,0,1,1.87,1.87,0,0,1-1.72,0,.52.52,0,0,1,0-1A1.87,1.87,0,0,1,365.5,340.53Z" transform="translate(-94.34 -51)"/><path class="cls-1" d="M370,337.92a.53.53,0,0,1,0,1,2,2,0,0,1-1.73,0,.53.53,0,0,1,0-1A2,2,0,0,1,370,337.92Z" transform="translate(-94.34 -51)"/><path class="cls-1" d="M374.52,335.32a.53.53,0,0,1,0,1,2,2,0,0,1-1.73,0,.53.53,0,0,1,0-1A1.89,1.89,0,0,1,374.52,335.32Z" transform="translate(-94.34 -51)"/><ellipse class="cls-1" cx="216.2" cy="316.05" rx="1.22" ry="0.7"/><ellipse class="cls-1" cx="220.71" cy="313.45" rx="1.22" ry="0.7"/><path class="cls-1" d="M320.42,361.35a.52.52,0,0,1,0,1,1.89,1.89,0,0,1-1.73,0,.52.52,0,0,1,0-1A1.89,1.89,0,0,1,320.42,361.35Z" transform="translate(-94.34 -51)"/><path class="cls-1" d="M324.93,358.74a.53.53,0,0,1,0,1,1.89,1.89,0,0,1-1.73,0,.53.53,0,0,1,0-1A2,2,0,0,1,324.93,358.74Z" transform="translate(-94.34 -51)"/><path class="cls-1" d="M329.43,356.14a.53.53,0,0,1,0,1,1.93,1.93,0,0,1-1.72,0,.53.53,0,0,1,0-1A1.93,1.93,0,0,1,329.43,356.14Z" transform="translate(-94.34 -51)"/><path class="cls-1" d="M333.94,353.54a.52.52,0,0,1,0,1,1.87,1.87,0,0,1-1.72,0,.52.52,0,0,1,0-1A1.87,1.87,0,0,1,333.94,353.54Z" transform="translate(-94.34 -51)"/><path class="cls-1" d="M338.45,350.94a.52.52,0,0,1,0,1,1.87,1.87,0,0,1-1.72,0,.52.52,0,0,1,0-1A1.87,1.87,0,0,1,338.45,350.94Z" transform="translate(-94.34 -51)"/><path class="cls-1" d="M343,348.33a.53.53,0,0,1,0,1,2,2,0,0,1-1.73,0,.53.53,0,0,1,0-1A2,2,0,0,1,343,348.33Z" transform="translate(-94.34 -51)"/><ellipse class="cls-1" cx="252.26" cy="295.23" rx="1.22" ry="0.7"/><ellipse class="cls-1" cx="256.77" cy="292.63" rx="1.22" ry="0.7"/><ellipse class="cls-1" cx="261.28" cy="290.02" rx="1.22" ry="0.7"/><path class="cls-1" d="M361,337.92a.53.53,0,0,1,0,1,1.93,1.93,0,0,1-1.72,0,.53.53,0,0,1,0-1A1.93,1.93,0,0,1,361,337.92Z" transform="translate(-94.34 -51)"/><path class="cls-1" d="M365.5,335.32c.48.27.48.72,0,1a1.93,1.93,0,0,1-1.72,0c-.48-.28-.48-.73,0-1A1.87,1.87,0,0,1,365.5,335.32Z" transform="translate(-94.34 -51)"/><path class="cls-1" d="M370,332.72a.52.52,0,0,1,0,1,1.89,1.89,0,0,1-1.73,0,.52.52,0,0,1,0-1A1.89,1.89,0,0,1,370,332.72Z" transform="translate(-94.34 -51)"/><path class="cls-1" d="M306.89,364a.53.53,0,0,1,0,1,1.93,1.93,0,0,1-1.72,0,.53.53,0,0,1,0-1A1.93,1.93,0,0,1,306.89,364Z" transform="translate(-94.34 -51)"/><path class="cls-1" d="M311.4,361.35a.52.52,0,0,1,0,1,1.87,1.87,0,0,1-1.72,0,.52.52,0,0,1,0-1A1.87,1.87,0,0,1,311.4,361.35Z" transform="translate(-94.34 -51)"/><path class="cls-1" d="M315.91,358.74c.48.28.48.73,0,1a1.87,1.87,0,0,1-1.72,0c-.48-.27-.48-.72,0-1A1.93,1.93,0,0,1,315.91,358.74Z" transform="translate(-94.34 -51)"/><path class="cls-1" d="M320.42,356.14a.53.53,0,0,1,0,1,2,2,0,0,1-1.73,0,.53.53,0,0,1,0-1A2,2,0,0,1,320.42,356.14Z" transform="translate(-94.34 -51)"/><path class="cls-1" d="M324.93,353.54a.52.52,0,0,1,0,1,1.89,1.89,0,0,1-1.73,0,.52.52,0,0,1,0-1A1.89,1.89,0,0,1,324.93,353.54Z" transform="translate(-94.34 -51)"/><path class="cls-1" d="M329.43,350.94a.52.52,0,0,1,0,1,1.87,1.87,0,0,1-1.72,0,.52.52,0,0,1,0-1A1.87,1.87,0,0,1,329.43,350.94Z" transform="translate(-94.34 -51)"/><path class="cls-1" d="M333.94,348.33a.53.53,0,0,1,0,1,1.93,1.93,0,0,1-1.72,0,.53.53,0,0,1,0-1A1.93,1.93,0,0,1,333.94,348.33Z" transform="translate(-94.34 -51)"/><path class="cls-1" d="M338.45,345.73a.53.53,0,0,1,0,1,1.93,1.93,0,0,1-1.72,0,.53.53,0,0,1,0-1A1.93,1.93,0,0,1,338.45,345.73Z" transform="translate(-94.34 -51)"/><path class="cls-1" d="M343,343.13a.52.52,0,0,1,0,1,1.89,1.89,0,0,1-1.73,0,.52.52,0,0,1,0-1A1.89,1.89,0,0,1,343,343.13Z" transform="translate(-94.34 -51)"/><ellipse class="cls-1" cx="252.26" cy="290.02" rx="1.22" ry="0.7"/><path class="cls-1" d="M352,337.92a.53.53,0,0,1,0,1,2,2,0,0,1-1.73,0,.53.53,0,0,1,0-1A2,2,0,0,1,352,337.92Z" transform="translate(-94.34 -51)"/><path class="cls-1" d="M356.48,335.32c.48.27.48.72,0,1a1.93,1.93,0,0,1-1.72,0c-.48-.28-.48-.73,0-1A1.87,1.87,0,0,1,356.48,335.32Z" transform="translate(-94.34 -51)"/><path class="cls-1" d="M361,332.72a.52.52,0,0,1,0,1,1.87,1.87,0,0,1-1.72,0,.52.52,0,0,1,0-1A1.87,1.87,0,0,1,361,332.72Z" transform="translate(-94.34 -51)"/><path class="cls-1" d="M365.5,330.11a.53.53,0,0,1,0,1,1.93,1.93,0,0,1-1.72,0,.53.53,0,0,1,0-1A1.93,1.93,0,0,1,365.5,330.11Z" transform="translate(-94.34 -51)"/><path class="cls-1" d="M302.35,361.32a.53.53,0,0,1,0,1,2,2,0,0,1-1.73,0,.53.53,0,0,1,0-1A2,2,0,0,1,302.35,361.32Z" transform="translate(-94.34 -51)"/><path class="cls-1" d="M306.86,358.72a.52.52,0,0,1,0,1,1.89,1.89,0,0,1-1.73,0,.52.52,0,0,1,0-1A1.89,1.89,0,0,1,306.86,358.72Z" transform="translate(-94.34 -51)"/><path class="cls-1" d="M311.36,356.11c.48.28.48.73,0,1a1.93,1.93,0,0,1-1.72,0c-.48-.27-.48-.72,0-1A1.93,1.93,0,0,1,311.36,356.11Z" transform="translate(-94.34 -51)"/><path class="cls-1" d="M315.87,353.51a.53.53,0,0,1,0,1,1.93,1.93,0,0,1-1.72,0,.53.53,0,0,1,0-1A1.93,1.93,0,0,1,315.87,353.51Z" transform="translate(-94.34 -51)"/><path class="cls-1" d="M320.38,350.91a.52.52,0,0,1,0,1,1.87,1.87,0,0,1-1.72,0,.52.52,0,0,1,0-1A1.87,1.87,0,0,1,320.38,350.91Z" transform="translate(-94.34 -51)"/><path class="cls-1" d="M324.89,348.31a.52.52,0,0,1,0,1,1.89,1.89,0,0,1-1.73,0,.52.52,0,0,1,0-1A1.89,1.89,0,0,1,324.89,348.31Z" transform="translate(-94.34 -51)"/><ellipse class="cls-1" cx="234.19" cy="295.2" rx="1.22" ry="0.7"/><ellipse class="cls-1" cx="238.7" cy="292.6" rx="1.22" ry="0.7"/><path class="cls-1" d="M338.41,340.5a.52.52,0,0,1,0,1,1.87,1.87,0,0,1-1.72,0,.52.52,0,0,1,0-1A1.87,1.87,0,0,1,338.41,340.5Z" transform="translate(-94.34 -51)"/><path class="cls-1" d="M342.92,337.9a.52.52,0,0,1,0,1,1.87,1.87,0,0,1-1.72,0,.52.52,0,0,1,0-1A1.87,1.87,0,0,1,342.92,337.9Z" transform="translate(-94.34 -51)"/><path class="cls-1" d="M347.43,335.29a.53.53,0,0,1,0,1,2,2,0,0,1-1.73,0,.53.53,0,0,1,0-1A2,2,0,0,1,347.43,335.29Z" transform="translate(-94.34 -51)"/><ellipse class="cls-1" cx="256.73" cy="282.19" rx="1.22" ry="0.7"/><path class="cls-1" d="M356.44,330.09a.52.52,0,0,1,0,1,1.87,1.87,0,0,1-1.72,0,.52.52,0,0,1,0-1A1.87,1.87,0,0,1,356.44,330.09Z" transform="translate(-94.34 -51)"/><path class="cls-1" d="M361,327.48a.53.53,0,0,1,0,1,1.93,1.93,0,0,1-1.72,0,.53.53,0,0,1,0-1A1.93,1.93,0,0,1,361,327.48Z" transform="translate(-94.34 -51)"/><ellipse class="cls-1" cx="207.14" cy="305.61" rx="1.22" ry="0.7"/><ellipse class="cls-1" cx="211.65" cy="303.01" rx="1.22" ry="0.7"/><path class="cls-1" d="M311.36,350.91a.52.52,0,0,1,0,1,1.87,1.87,0,0,1-1.72,0,.52.52,0,0,1,0-1A1.87,1.87,0,0,1,311.36,350.91Z" transform="translate(-94.34 -51)"/><path class="cls-1" d="M315.87,348.31a.52.52,0,0,1,0,1,1.87,1.87,0,0,1-1.72,0,.52.52,0,0,1,0-1A1.87,1.87,0,0,1,315.87,348.31Z" transform="translate(-94.34 -51)"/><path class="cls-1" d="M320.38,345.7a.53.53,0,0,1,0,1,1.93,1.93,0,0,1-1.72,0,.53.53,0,0,1,0-1A1.93,1.93,0,0,1,320.38,345.7Z" transform="translate(-94.34 -51)"/><path class="cls-1" d="M324.89,343.1a.53.53,0,0,1,0,1,2,2,0,0,1-1.73,0,.53.53,0,0,1,0-1A2,2,0,0,1,324.89,343.1Z" transform="translate(-94.34 -51)"/><path class="cls-1" d="M329.4,340.5a.52.52,0,0,1,0,1,1.89,1.89,0,0,1-1.73,0,.52.52,0,0,1,0-1A1.89,1.89,0,0,1,329.4,340.5Z" transform="translate(-94.34 -51)"/><path class="cls-1" d="M333.9,337.9a.52.52,0,0,1,0,1,1.87,1.87,0,0,1-1.72,0,.52.52,0,0,1,0-1A1.87,1.87,0,0,1,333.9,337.9Z" transform="translate(-94.34 -51)"/><ellipse class="cls-1" cx="243.21" cy="284.79" rx="1.22" ry="0.7"/><ellipse class="cls-1" cx="247.72" cy="282.19" rx="1.22" ry="0.7"/><path class="cls-1" d="M347.43,330.09a.52.52,0,0,1,0,1,1.89,1.89,0,0,1-1.73,0,.52.52,0,0,1,0-1A1.89,1.89,0,0,1,347.43,330.09Z" transform="translate(-94.34 -51)"/><ellipse class="cls-1" cx="256.73" cy="276.98" rx="1.22" ry="0.7"/><path class="cls-1" d="M302.35,350.91a.52.52,0,0,1,0,1,1.89,1.89,0,0,1-1.73,0,.52.52,0,0,1,0-1A1.89,1.89,0,0,1,302.35,350.91Z" transform="translate(-94.34 -51)"/><path class="cls-1" d="M306.86,348.31a.52.52,0,0,1,0,1,1.89,1.89,0,0,1-1.73,0,.52.52,0,0,1,0-1A1.89,1.89,0,0,1,306.86,348.31Z" transform="translate(-94.34 -51)"/><ellipse class="cls-1" cx="216.16" cy="295.2" rx="1.22" ry="0.7"/><ellipse class="cls-1" cx="220.67" cy="292.6" rx="1.22" ry="0.7"/><ellipse class="cls-1" cx="225.18" cy="290" rx="1.22" ry="0.7"/><path class="cls-1" d="M324.89,337.9a.52.52,0,0,1,0,1,1.89,1.89,0,0,1-1.73,0,.52.52,0,0,1,0-1A1.89,1.89,0,0,1,324.89,337.9Z" transform="translate(-94.34 -51)"/><path class="cls-1" d="M329.4,335.29a.53.53,0,0,1,0,1,2,2,0,0,1-1.73,0,.53.53,0,0,1,0-1A2,2,0,0,1,329.4,335.29Z" transform="translate(-94.34 -51)"/><path class="cls-1" d="M333.9,332.69c.48.27.48.72,0,1a1.93,1.93,0,0,1-1.72,0c-.48-.28-.48-.73,0-1A1.87,1.87,0,0,1,333.9,332.69Z" transform="translate(-94.34 -51)"/><path class="cls-1" d="M338.41,330.09a.52.52,0,0,1,0,1,1.87,1.87,0,0,1-1.72,0,.52.52,0,0,1,0-1A1.87,1.87,0,0,1,338.41,330.09Z" transform="translate(-94.34 -51)"/><path class="cls-1" d="M342.92,327.48a.53.53,0,0,1,0,1,1.93,1.93,0,0,1-1.72,0,.53.53,0,0,1,0-1A1.93,1.93,0,0,1,342.92,327.48Z" transform="translate(-94.34 -51)"/><ellipse class="cls-1" cx="207.14" cy="295.2" rx="1.22" ry="0.7"/><path class="cls-1" d="M306.86,343.1a.53.53,0,0,1,0,1,2,2,0,0,1-1.73,0,.53.53,0,0,1,0-1A2,2,0,0,1,306.86,343.1Z" transform="translate(-94.34 -51)"/><path class="cls-1" d="M311.36,340.5a.52.52,0,0,1,0,1,1.87,1.87,0,0,1-1.72,0,.52.52,0,0,1,0-1A1.87,1.87,0,0,1,311.36,340.5Z" transform="translate(-94.34 -51)"/><path class="cls-1" d="M315.87,337.9a.52.52,0,0,1,0,1,1.87,1.87,0,0,1-1.72,0,.52.52,0,0,1,0-1A1.87,1.87,0,0,1,315.87,337.9Z" transform="translate(-94.34 -51)"/><path class="cls-1" d="M320.38,335.29a.53.53,0,0,1,0,1,1.93,1.93,0,0,1-1.72,0,.53.53,0,0,1,0-1A1.93,1.93,0,0,1,320.38,335.29Z" transform="translate(-94.34 -51)"/><path class="cls-1" d="M324.89,332.69a.53.53,0,0,1,0,1,2,2,0,0,1-1.73,0,.53.53,0,0,1,0-1A1.89,1.89,0,0,1,324.89,332.69Z" transform="translate(-94.34 -51)"/><path class="cls-1" d="M329.4,330.09a.52.52,0,0,1,0,1,1.89,1.89,0,0,1-1.73,0,.52.52,0,0,1,0-1A1.89,1.89,0,0,1,329.4,330.09Z" transform="translate(-94.34 -51)"/><ellipse class="cls-1" cx="238.7" cy="276.98" rx="1.22" ry="0.7"/><path class="cls-2" d="M349.58,159.37h0l20.5-45.73h0a5.9,5.9,0,0,1,11.23,0h0l20.5,45.73h0a29.14,29.14,0,1,1-52.21,0Z" transform="translate(-94.34 -51)"/><path class="cls-3" d="M359,139.46h0l7.79-17.39h0a2.25,2.25,0,0,1,4.27,0h0l7.79,17.39h0a11.08,11.08,0,1,1-19.85,0Z" transform="translate(-94.34 -51)"/><path class="cls-4" d="M348.23,160.24h0l21-46.95.07-.15A6.75,6.75,0,0,1,382,113l20.62,46,.23.54a30,30,0,1,1-54.61.68Zm5.89-8a17,17,0,1,0,32.3-7.55h0l-12-26.73h0a3.47,3.47,0,0,0-3.28-2.39,3.3,3.3,0,0,0-1.14.21l-15.86,35.36C354.14,151.54,354.12,151.9,354.12,152.27Z" transform="translate(-94.34 -51)"/><path class="cls-2" d="M390.18,191.86a31.9,31.9,0,0,0,6.9-7.42,3.32,3.32,0,0,0-1.21-4.81h0a3.3,3.3,0,0,0-4.23,1.07,24.86,24.86,0,0,1-5.39,5.86,3.32,3.32,0,0,0-1.05,4.08h0A3.31,3.31,0,0,0,390.18,191.86Z" transform="translate(-94.34 -51)"/><path class="cls-2" d="M95.26,433.57a11.35,11.35,0,0,1,.92-2.9l51.55-118.26,22.84,9.94S118.65,441.79,118.46,442.2c-2,4.33-8.7,5.45-14.84,2.52C98.3,442.18,94.69,437.61,95.26,433.57Z" transform="translate(-94.34 -51)"/><path class="cls-3" d="M104.1,427.75c.2-1.08,23.76-54.62,24.28-55.83l26.52-61.45,17.48,7.6s-51.92,119.44-52.12,119.85a6.42,6.42,0,0,1-2.2,2.54,16.35,16.35,0,0,1-5.59-1.57C107.15,436.35,103.54,431.78,104.1,427.75Z" transform="translate(-94.34 -51)"/><path class="cls-4" d="M94.41,433.45v0a12.43,12.43,0,0,1,1-3.09l51.55-118.26.34-.79L171.7,321.9l-.34.79c-2.93,6.81-51.93,119.47-52.13,119.88a8.38,8.38,0,0,1-6.51,4.46,13.7,13.7,0,0,1-2.23.18,17,17,0,0,1-7.24-1.71C97.44,442.72,93.8,437.77,94.41,433.45ZM104,443.94a16.58,16.58,0,0,0,3.13,1.13l51-118.76,2.75,1.45,6.13.9s1.06-2.76,2.39-5.86l-21.27-9.25L97,431a10.34,10.34,0,0,0-.87,2.69C95.63,437.23,98.94,441.53,104,443.94Z" transform="translate(-94.34 -51)"/><path class="cls-2" d="M145.79,310.19c.1-.21.23-.41.34-.6v0l4.46-7.49,27,14.4-3.9,6.95-.4.68c-2.9,4.87-10.83,6-18.2,2.51C147.38,323,143.23,315.6,145.79,310.19Z" transform="translate(-94.34 -51)"/><path class="cls-4" d="M163.61,329.5c4.53,0,8.46-1.72,10.38-4.95l.4-.68,4.35-7.73-28.47-15.2-5.21,8.73,0,0-.06.13h0c-1.37,2.87-1.07,6.31.82,9.66a20,20,0,0,0,8.85,7.92A20.92,20.92,0,0,0,163.61,329.5Zm12.77-12.67-3.86,6.84c-2.68,4.51-10.19,5.47-17.09,2.17a18.22,18.22,0,0,1-8.1-7.21c-1.61-2.85-1.88-5.72-.77-8.07.07-.14.15-.26.22-.39l.41-.69h0l3.72-6.24Z" transform="translate(-94.34 -51)"/><ellipse class="cls-2" cx="163.87" cy="309.57" rx="10.83" ry="15.42" transform="translate(-280.48 271.96) rotate(-64.3)"/><path class="cls-3" d="M173.05,322.71c-3.7,2.92-10.16,3.2-16.23.3s-9.95-8.13-10-12.87l3.93-6.84-.23-.05c3.78-2.47,9.85-2.56,15.59.18,6.71,3.21,10.73,9.23,9.92,14.31Z" transform="translate(-94.34 -51)"/><path class="cls-4" d="M167.82,322.27a15.54,15.54,0,0,0,2.75-.23c3.79-.64,6.63-2.58,8-5.45s1.07-6.31-.82-9.67a21.17,21.17,0,0,0-20.57-9.82c-3.78.65-6.62,2.58-8,5.46s-1.07,6.31.82,9.66a20,20,0,0,0,8.85,7.92h0A21,21,0,0,0,167.82,322.27Zm-7.89-23.67a19.25,19.25,0,0,1,8.21,2,18.23,18.23,0,0,1,8.1,7.21c1.61,2.86,1.88,5.72.77,8.08s-3.5,3.95-6.72,4.49a18.2,18.2,0,0,1-10.69-1.75h0a18.24,18.24,0,0,1-8.1-7.22c-1.61-2.85-1.88-5.72-.76-8.07s3.5-3.95,6.72-4.5A15.44,15.44,0,0,1,159.93,298.6Z" transform="translate(-94.34 -51)"/><path class="cls-2" d="M153.08,304.1a11.28,11.28,0,0,1,.93-2.9l28.19-65.33,22.85,9.94s-28.57,66.5-28.77,66.91c-2.05,4.33-8.69,5.46-14.84,2.52C156.13,312.7,152.52,308.13,153.08,304.1Z" transform="translate(-94.34 -51)"/><path class="cls-3" d="M161.93,298.27a11.4,11.4,0,0,1,.93-2.9l26.52-61.45,17.47,7.6S178.28,308,178.09,308.44a6.45,6.45,0,0,1-2.2,2.55,16.7,16.7,0,0,1-5.6-1.57C165,306.88,161.37,302.31,161.93,298.27Z" transform="translate(-94.34 -51)"/><path class="cls-4" d="M152.23,304v0a12.15,12.15,0,0,1,1-3.09l28.19-65.33.34-.78,24.42,10.62-.34.79c-2.92,6.81-28.58,66.53-28.77,66.94a8.38,8.38,0,0,1-6.52,4.46,12.58,12.58,0,0,1-2.23.19,16.94,16.94,0,0,1-7.23-1.72C155.27,313.24,151.63,308.29,152.23,304Zm9.58,10.48a16.67,16.67,0,0,0,3.14,1.13l18.24-44.13,2.75,1.45,6.14.91,11.84-27.56L182.65,237,154.8,301.54a10.59,10.59,0,0,0-.87,2.69C153.45,307.75,156.76,312.05,161.81,314.46Z" transform="translate(-94.34 -51)"/><path class="cls-4" d="M222.09,294l20.51,2.69-8.4-9.44L244.74,297l1.7.23,9.58,6.72,6.1,8,1.85-3.39,3.37-1.88.79-9.48,7.95,4.61-3.69,20.14a2.78,2.78,0,0,1-1.36,2v0l-12.09,6.74-3.8-6,1-2.88L251.47,323Z" transform="translate(-94.34 -51)"/><path class="cls-4" d="M258.65,331.89l13.23-7.37v-.09a3.66,3.66,0,0,0,1.35-2.34l3.8-20.75-9.64-5.58-.87,10.37-3.19,1.77L262,310.36l-5.49-7.13-9.75-6.85-1.64-.22-10.34-9.53-1.22,1.2,6.86,7.72-20.76-2.72,31.55,31.09,3.59-.87-.6,1.78Zm11.52-8.39-10.94,6.1-3.14-5,1.35-4L251.73,322,224.52,295.2l21.6,2.83,9.3,6.53,6.82,8.94,2.36-4.33,3.55-2,.73-8.58,6.24,3.62-3.58,19.55a1.89,1.89,0,0,1-.93,1.43Z" transform="translate(-94.34 -51)"/><path class="cls-2" d="M264,308.54l-3.69,20.14c-.62,3.4-4.56,3.15-7.79-.49L222.09,294l25.79,23.8c3.3,3.05,6.75,2.66,7-.79l1.1-13.09Z" transform="translate(-94.34 -51)"/><path class="cls-4" d="M257.58,331.94a3.76,3.76,0,0,0,1.06-.14,3.49,3.49,0,0,0,2.48-3l3.8-20.74-9.64-5.59L254.07,317a2.12,2.12,0,0,1-1.15,1.93c-1.11.43-2.86-.23-4.46-1.7l-25.79-23.8-1.22,1.21,30.39,34.18C253.65,330.8,255.76,331.94,257.58,331.94ZM263,309l-3.58,19.55a1.82,1.82,0,0,1-1.25,1.61c-1.12.31-3.12-.34-5.05-2.52L234.3,306.45l13,12c2.14,2,4.47,2.73,6.24,2a3.72,3.72,0,0,0,2.24-3.4l1-11.73Z" transform="translate(-94.34 -51)"/><path class="cls-4" d="M202.24,261l10.5-17.19L238,266.3a38.61,38.61,0,0,0,3.79,3l17.93,12.41a17.93,17.93,0,0,0,7.54,3.22l3.89-11.1-2.05-60.65L280.47,215l-2.34-14.49L291.05,208l2.76,18.28c3.49,23.16,1.66,44-5.3,60.16l-4.16,9.7A8.42,8.42,0,0,1,281,300l-18.58,10.44-1.51-7.4.81-2.32-12.07,3.13-6.38-4.25a2.29,2.29,0,0,1-1,.55c-3.17.94-9.92-3.77-12-5.5-7.65-6.25-34-12.12-34.23-12.18l-.93-.21Z" transform="translate(-94.34 -51)"/><path class="cls-4" d="M238.76,243.59c.17-.85.34-1.72.51-2.67L247,210.4,258.72,209l-7.39,38.9a37.65,37.65,0,0,0,.1,13.42l3.7,21.75c.62,3.63,2.37,9.8,7.11,10.32l2.93.32-9,4.43L253,296c-3.77-2.84-8.61-8.11-9.82-13.64l-4.85-26.85C237.31,250.8,238,247.14,238.76,243.59Z" transform="translate(-94.34 -51)"/><path class="cls-2" d="M250.74,211.19l-7.17,37.74a38.67,38.67,0,0,0,.09,13.73l3.71,21.75c1,5.63,6.19,11.49,10.7,12l-1.79,6.05-5.71-5.27h0c-4.13-3.11-7.16-9.86-8.22-14.7l-6-24.43a41.05,41.05,0,0,1-.7-15.59l5.14-30.09Z" transform="translate(-94.34 -51)"/><path class="cls-4" d="M256.71,304l2.48-8.36-1-.11c-4.13-.46-9.07-6-10-11.28l-3.7-21.74a37.42,37.42,0,0,1-.1-13.42l7.4-38.9L240,211.58l-5.25,30.73a41.76,41.76,0,0,0,.71,15.92l6.05,24.45c1.1,5,4.25,11.95,8.53,15.17Zm.27-6.95-1.13,3.81-4.7-4.34c-4-3-6.92-9.49-8-14.25l-6.05-24.44a40.23,40.23,0,0,1-.69-15.24l5-29.46,8.2-1-7,36.59a39.47,39.47,0,0,0,.09,14l3.71,21.74C247.47,290.14,252.38,295.88,257,297.06Z" transform="translate(-94.34 -51)"/><path class="cls-4" d="M243.17,192.72l18.64,11.59-.34,8.64a3.72,3.72,0,0,1-1.42,3.06h0L248,222.76l-16.81-23.37Z" transform="translate(-94.34 -51)"/><path class="cls-2" d="M247.73,223.88l13.66-7.61-.16-.18a4.84,4.84,0,0,0,1.1-3.1l.36-9.15-19.5-12.11-13.28,7.38Zm11.71-8.5-11.21,6.25-15.8-21.95,10.71-6,17.79,11.06-.31,8.14a2.93,2.93,0,0,1-1.06,2.38Z" transform="translate(-94.34 -51)"/><path class="cls-2" d="M203.17,142.84l3.41-17.4a5.59,5.59,0,0,1,2.35-3.81l2.25-1.46-.93-1.49,24.91-14.16a14,14,0,0,1,3.47-1.4L269.77,95c3.4-.82,8,1.21,12,5.29l16.12,16.54c2.94,3,4.48,7.31,3.6,10l-6.36,19.31a16.7,16.7,0,0,0,.34,9.71l6.27,21.35c.79,2.68.22,4.86-1.43,5.52l-4,2.25a6.13,6.13,0,0,0-1.11,2.21l-3.78,13.55a4,4,0,0,1-1.74,2.42v0L264,217.55a2.33,2.33,0,0,1-3.41-1.52l-6.23-27.12-5.54-8.81-39.51-25.49C205.32,152,202.45,146.53,203.17,142.84Z" transform="translate(-94.34 -51)"/><path class="cls-4" d="M262.87,218.71a3.14,3.14,0,0,0,1.54-.41l26.31-14.69,0-.12a4.91,4.91,0,0,0,1.56-2.51L296,187.43a5.27,5.27,0,0,1,.86-1.78l3.81-2.17c2-.79,2.76-3.36,1.83-6.51l-6.27-21.36a15.84,15.84,0,0,1-.34-9.18l6.35-19.32c1-3-.6-7.59-3.79-10.87L282.35,99.69c-4.19-4.29-9.09-6.41-12.78-5.52l-31.16,8.11a15.62,15.62,0,0,0-3.67,1.49L209,118.38l1,1.53-1.55,1a6.47,6.47,0,0,0-2.72,4.36l-3.41,17.41c-.8,4.06,2.18,9.86,6.51,12.65l39.36,25.39,5.35,8.53,6.21,27a3.17,3.17,0,0,0,1.81,2.2A3.14,3.14,0,0,0,262.87,218.71Zm25.8-15.93-25.09,14a1.44,1.44,0,0,1-1.31.06,1.46,1.46,0,0,1-.84-1l-6.35-27.39-5.63-9-.16-.11-39.52-25.49c-3.67-2.36-6.41-7.54-5.76-10.87l3.41-17.41a4.79,4.79,0,0,1,2-3.24l3-1.93-.91-1.44,24.13-13.72a13.76,13.76,0,0,1,3.26-1.32L270,95.84c3.1-.75,7.37,1.19,11.14,5.06l16.12,16.54c2.68,2.76,4.17,6.76,3.39,9.13l-6.35,19.31a17.39,17.39,0,0,0,.32,10.22l6.28,21.36c.64,2.19.27,4-.93,4.47l-4.31,2.51a7,7,0,0,0-1.27,2.52l-3.78,13.55a3.17,3.17,0,0,1-1.36,1.92Z" transform="translate(-94.34 -51)"/><path class="cls-2" d="M264.61,173.72l3-7.49,27-16.16a20.34,20.34,0,0,0,.88,5.79l6.27,21.35c.79,2.68.22,4.86-1.43,5.52l-4,2.25-22.24,12.61Z" transform="translate(-94.34 -51)"/><path class="cls-2" d="M193.78,262l1,.76,2.44-6.74,23,20.55a41.27,41.27,0,0,0,3.87,3.07L242,292.05c7.35,5.09,14.28,4.56,16.76-1.28l.95-2.23c7-16.46,8.65-37.55,4.84-61.15L262,211.76l11,6.38,2.7,17.87c3.47,23,1.67,43.6-5.23,59.69l-4.16,9.69c-2.28,5.31-8.3,6.25-15,2.34l-17-9.86-.91,2.82c-1,3.08-4.54,3.31-8.08.41-7.89-6.45-21.75-15.35-31.51-8.25-5.91,4.29-10.18,7.37-13.16,9.5a2,2,0,0,1-3-2.49Z" transform="translate(-94.34 -51)"/><path class="cls-4" d="M259,311a9.6,9.6,0,0,0,3-.47,8.27,8.27,0,0,0,5-4.79l4.17-9.69c7-16.2,8.78-37,5.29-60.16L273.8,217.6l-12.92-7.49,2.81,17.41c3.78,23.41,2.13,44.4-4.78,60.68l-1,2.23a6.59,6.59,0,0,1-4.27,3.94c-3.06.89-7.15-.21-11.21-3l-17.93-12.41a39.83,39.83,0,0,1-3.79-3l-23.92-21.4-2.47,6.84-1-.72-16.63,38.87a2.91,2.91,0,0,0,.84,3.43,2.81,2.81,0,0,0,3.49.1c3-2.13,7.25-5.21,13.16-9.5,9.4-6.84,23.12,2.22,30.47,8.22,2.29,1.87,4.71,2.62,6.64,2.05a4.18,4.18,0,0,0,2.79-2.86l.59-1.81,16.09,9.33A16.74,16.74,0,0,0,259,311Zm13.19-92.32,2.63,17.47c3.45,22.83,1.66,43.31-5.17,59.22l-4.16,9.69a6.51,6.51,0,0,1-4,3.83c-2.67.89-6.16.22-9.8-1.9l-17.93-10.39-1.24,3.84a2.44,2.44,0,0,1-1.65,1.74c-1.36.4-3.25-.25-5.07-1.73-7.72-6.32-22.23-15.8-32.56-8.29-5.9,4.29-10.17,7.37-13.14,9.5a1.15,1.15,0,0,1-1.42,0,1.18,1.18,0,0,1-.35-1.41l15.77-36.85,1.05.8,2.41-6.64,22,19.7a39.47,39.47,0,0,0,4,3.14l17.92,12.41c4.56,3.15,9.06,4.31,12.67,3.26a8.22,8.22,0,0,0,5.37-4.92l.94-2.22c7-16.59,8.74-37.9,4.91-61.63l-2.23-13.84Z" transform="translate(-94.34 -51)"/><path class="cls-2" d="M247.81,210.62l6,3.75c3.48,2.17,6.42,1,6.56-2.52l.33-8.65L242.1,191.62l-.34,8.65C241.62,203.82,244.33,208.46,247.81,210.62Z" transform="translate(-94.34 -51)"/><path class="cls-4" d="M257.17,216.33a4.08,4.08,0,0,0,1.94-.46,4.44,4.44,0,0,0,2.15-4l.36-9.15L241.3,190.11l-.4,10.12c-.15,3.9,2.69,8.78,6.46,11.12l6,3.76A7.27,7.27,0,0,0,257.17,216.33Zm2.7-12.66-.32,8.14a2.89,2.89,0,0,1-1.25,2.54c-1,.52-2.43.26-4-.71l-6-3.75c-3.19-2-5.78-6.37-5.65-9.59l.28-7.17Z" transform="translate(-94.34 -51)"/><path class="cls-2" d="M285.5,283.25l-2-14,6.61-3.89,4.73,6.68c2.84,4,3.32,8.5,1.11,10.23l-13.27,10.34-6.61,3.89Z" transform="translate(-94.34 -51)"/><path class="cls-4" d="M181.66,229.78l14.41-27.11a32,32,0,0,0,3.35-11.34l0-.23,5.46-7.61,32.32,20.85L236,220.05a34.28,34.28,0,0,1-4,14.3L221.5,252.84l-18.73,9.52L192.2,246.54a21,21,0,0,1-3.95-3.32C184.51,241.13,178.49,235.74,181.66,229.78Z" transform="translate(-94.34 -51)"/><path class="cls-2" d="M222,195.53l-2.38,30.81a33.49,33.49,0,0,1-3.94,13.94L199,269.75c-4,7.11-14.72,5-23.62-4.66h0c-8.41-9.12-12.15-21.69-8.5-28.56l14.41-27.11a32.65,32.65,0,0,0,3.44-11.64l2.87-24.44Z" transform="translate(-94.34 -51)"/><path class="cls-4" d="M191.46,274.83a11.9,11.9,0,0,0,1.34-.08,8.81,8.81,0,0,0,6.92-4.57l16.69-29.48a34.28,34.28,0,0,0,4-14.29l2.43-31.32-36-23.22-3,25.81A31.92,31.92,0,0,1,180.51,209L166.1,236.13c-3.82,7.18,0,20.16,8.62,29.55C180.08,271.49,186.23,274.83,191.46,274.83ZM221.09,196l-2.35,30.29a32.37,32.37,0,0,1-3.83,13.58l-16.68,29.48A7.19,7.19,0,0,1,192.6,273c-4.86.57-11.24-2.7-16.61-8.53-8.19-8.89-11.87-21-8.37-27.57L182,209.83a33.72,33.72,0,0,0,3.54-12l2.7-23.07Z" transform="translate(-94.34 -51)"/><path class="cls-2" d="M236.89,218.4l6,3.75c3.48,2.16,6.41,1,6.55-2.53l.41-6.09-19.06-12.29V208C230.7,211.6,233.41,216.23,236.89,218.4Z" transform="translate(-94.34 -51)"/><path class="cls-4" d="M246.24,224.1a4.06,4.06,0,0,0,1.94-.46,4.44,4.44,0,0,0,2.16-4l.44-6.57L230,199.66V208c-.15,3.86,2.68,8.75,6.46,11.09l6,3.75A7.26,7.26,0,0,0,246.24,224.1ZM249,214l-.37,5.58a2.89,2.89,0,0,1-1.25,2.56c-1,.52-2.44.27-4-.7l-6-3.76c-3.24-2-5.77-6.31-5.65-9.59v-5.25Z" transform="translate(-94.34 -51)"/><path class="cls-2" d="M213.07,117.45a8,8,0,0,0-2.47,1h0l24.91-14.16a14.1,14.1,0,0,1,3.47-1.4l29.88-7.78a.18.18,0,0,1,.13.32l-25.83,14.71Z" transform="translate(-94.34 -51)"/><path class="cls-3" d="M213.07,120.81a8,8,0,0,0-2.47,1h0l24.91-14.16a14.53,14.53,0,0,1,3.47-1.41l29.88-7.77a.17.17,0,0,1,.13.31l-25.83,14.71Z" transform="translate(-94.34 -51)"/><path class="cls-2" d="M172,224.78l.17-10.34-8.08-9.91L185.39,192h0l-.67,5.74a32.78,32.78,0,0,1-3.44,11.64v0l16.23,20a12.87,12.87,0,0,1,1.17,14.49l-2.23,3.88a7.15,7.15,0,0,1-2.42,2.52h0a.91.91,0,0,1-.17.09l-9.07,5a.53.53,0,0,1-.75-.27l-5.72-14.39-8.21-10.23,2.37-4.46Z" transform="translate(-94.34 -51)"/><path class="cls-3" d="M237.83,112.33l21.4-12.27,5.69-1.48c3.4-.82,8,1.2,12,5.29L293,120.41c2.94,3,4.48,7.3,3.59,10l-1.39,4.24L269.93,149l-13.5-27.11Z" transform="translate(-94.34 -51)"/><path class="cls-2" d="M268.89,101.21c.05,0,21.5-27.75,21.5-27.75a15.93,15.93,0,0,1,10.36-6L367.31,56.3l5.38,24.29-56.26,8.22a16,16,0,0,0-11.61,7.65s-14.91,24.41-15.76,25.25c-4.08,4.05-11.9,2.74-17.47-2.92S264.89,105.62,268.89,101.21Z" transform="translate(-94.34 -51)"/><path class="cls-3" d="M293,76.37a15.93,15.93,0,0,1,10.35-6l60.17-10.07L362.4,68l-56.6,9.38c-5,.75-8.07,2.88-10.4,6.59,0,0-15.15,22.88-16,23.72s-1.39,1.42-2.07,2.08c-3.69,3.52-9.33-1.79-5.93-5.6l.05-.06C271.5,104.07,293,76.37,293,76.37Z" transform="translate(-94.34 -51)"/><path class="cls-4" d="M268.24,100.65l21.47-27.72a16.84,16.84,0,0,1,10.89-6.35L368,55.31l5.76,26-57.17,8.35a15.16,15.16,0,0,0-11,7.25c-3.51,5.75-15,24.57-15.88,25.42a9.43,9.43,0,0,1-6.76,2.6,12.57,12.57,0,0,1-2.17-.19A18.22,18.22,0,0,1,271,119.4C265.13,113.45,264,105.4,268.24,100.65Zm98.4-43.37-65.76,11A15,15,0,0,0,291.07,74c-20.95,27.05-21.5,27.75-21.54,27.8a9.1,9.1,0,0,0-2,7.85c3.83,7.32,12.17,6.55,16.12,2.63.85-.84,14.92-23.6,14.92-23.6A16,16,0,0,1,310.2,81l46.26-8.29a18.17,18.17,0,0,0,5.63,8.54l9.56-1.4Z" transform="translate(-94.34 -51)"/><path class="cls-2" d="M363.14,53.87a8.66,8.66,0,0,1,2.36-.32L377.32,52l6.13,30-12.4,1.77c-6,1.43-12.64-3.79-14.87-11.88S357,55.58,363.14,53.87Z" transform="translate(-94.34 -51)"/><path class="cls-3" d="M365.86,57.3a8.65,8.65,0,0,1,2.36-.31L380,55.4l5.16,25.24-12.4,1.77c-5.73,1.36-12-3.29-14.5-10.69C357.61,64.85,360.63,58.76,365.86,57.3Z" transform="translate(-94.34 -51)"/><path class="cls-4" d="M362.91,53a9.47,9.47,0,0,1,2.47-.34L378,51l6.48,31.69-13.23,1.89a9.6,9.6,0,0,1-2.25.26c-5.83,0-11.55-5.17-13.65-12.75C353,63.42,356.34,54.87,362.91,53Zm13.73-.12L365.5,54.41h0a7.84,7.84,0,0,0-2.11.29c-4.43,1.23-7.12,6.16-7.07,12,3.07,5.06,8,7.93,12.69,6.82l11.51-1.65Z" transform="translate(-94.34 -51)"/><path class="cls-2" d="M369.07,70.2c2.28,8.23,9.09,13.52,15.21,11.82s9.24-9.77,7-18S382.16,50.5,376,52.21,366.8,62,369.07,70.2Z" transform="translate(-94.34 -51)"/><path class="cls-4" d="M382,83.19a9.74,9.74,0,0,0,2.56-.34c6.56-1.84,10-10.38,7.56-19.06a19.16,19.16,0,0,0-6.47-10.08,10.43,10.43,0,0,0-17,4.74,19.2,19.2,0,0,0-.35,12C370.34,78,376.15,83.19,382,83.19Zm-3.56-30.44a10.07,10.07,0,0,1,6.16,2.32,17.46,17.46,0,0,1,5.86,9.18c2.15,7.76-.71,15.36-6.36,16.94S372,77.73,369.9,70a17.54,17.54,0,0,1,.3-10.9,9.41,9.41,0,0,1,6.06-6A8.1,8.1,0,0,1,378.39,52.75Z" transform="translate(-94.34 -51)"/><path class="cls-2" d="M373.3,69c1.41,5.09,5.62,8.36,9.41,7.31s5.71-6,4.3-11.13-5.62-8.36-9.4-7.3S371.89,63.93,373.3,69Z" transform="translate(-94.34 -51)"/><path class="cls-2" d="M362.66,82.53l.74-1.1a18.35,18.35,0,0,1-6.31-8.89l-1.27.39A19.41,19.41,0,0,0,362.66,82.53Z" transform="translate(-94.34 -51)"/><path class="cls-3" d="M375.93,73,387,70.73a6.59,6.59,0,0,1-4.33,4.74C380.35,76.12,377.84,75.11,375.93,73Z" transform="translate(-94.34 -51)"/><path class="cls-4" d="M372.71,61.64a7.14,7.14,0,0,1,4.67-4.57c4.23-1.19,8.93,2.36,10.46,7.9a12.25,12.25,0,0,1-.23,7.62,7.2,7.2,0,0,1-4.68,4.57,6.27,6.27,0,0,1-1.66.23c-3.74,0-7.46-3.31-8.79-8.14A12.15,12.15,0,0,1,372.71,61.64Zm9.77,13.86A5.53,5.53,0,0,0,386,72a10.3,10.3,0,0,0,.43-5.27l-12.29,2.17C375.45,73.45,379.17,76.42,382.48,75.5Z" transform="translate(-94.34 -51)"/><path class="cls-4" d="M211,119.25l.74-.42a7.61,7.61,0,0,1,1.52-.54l30.3-7.36,25.83-14.7a1,1,0,0,0-.77-1.91l-29.88,7.78a15.62,15.62,0,0,0-3.67,1.49L211,117.31c-.28.14-.56.3-.83.47Zm31.82-9.87-25.11,6.06,18.2-10.35a13.76,13.76,0,0,1,3.26-1.32L264,97.3Z" transform="translate(-94.34 -51)"/><path class="cls-3" d="M296.53,185l-22.24,12.61L266.06,178l26.88-16.11a20.29,20.29,0,0,0,.88,5.79l4.82,16.15Z" transform="translate(-94.34 -51)"/><path class="cls-2" d="M272,203.8l1.28-5.65,12.79-7.29.52.49,14.77,16.19c5.88,6.44,10,14.64,11,22a1.13,1.13,0,0,1-.38,1.16l0,0-.08,0-13.18,6.74Z" transform="translate(-94.34 -51)"/><path class="cls-3" d="M270.53,210.85l1.28-5.64,12.78-7.29.53.49,14.77,16.18c5.88,6.44,7.51,9.81,8.55,17.18a1.16,1.16,0,0,1-.37,1.17l-.1.07-10.07,5Z" transform="translate(-94.34 -51)"/><path class="cls-4" d="M273.63,198.83l27.06-15.35c2-.79,2.76-3.36,1.83-6.51l-6.27-21.36a19.52,19.52,0,0,1-.84-5.54v-1.52l-28.52,17.09-3.21,8.08Zm20.12-47.28a22.58,22.58,0,0,0,.85,4.55l6.28,21.36c.64,2.19.27,4-.93,4.47L274.5,196.36l-9-22.64,2.74-6.9Z" transform="translate(-94.34 -51)"/><path class="cls-2" d="M274.49,142.2l-6.36,19.31a16.74,16.74,0,0,0,.33,9.7l6.28,21.36c.79,2.68.22,4.85-1.44,5.52l-2,.8a5.22,5.22,0,0,0-3.05,3.66l-3.78,13.55c-.94,3.35-4.4,4-8.24,1.52L182.34,170c-4-2.57-6.85-8.08-6.13-11.76l3.41-17.41A5.59,5.59,0,0,1,182,137l28.28-18.31a8,8,0,0,1,2.47-1.05l30.09-7.26c3.4-.83,8,1.2,12,5.28l16.12,16.55C273.83,135.21,275.37,139.5,274.49,142.2Z" transform="translate(-94.34 -51)"/><path class="cls-4" d="M260.58,220a5.41,5.41,0,0,0,1.85-.32,4.7,4.7,0,0,0,2.85-3.33l3.78-13.55a4.41,4.41,0,0,1,2.55-3.09l2-.8c2.11-.84,2.87-3.42,1.94-6.57L269.29,171a15.88,15.88,0,0,1-.34-9.19l6.35-19.31c1-3-.6-7.6-3.79-10.88l-16.12-16.54c-4.19-4.3-9.09-6.41-12.78-5.52l-30.09,7.26a8.8,8.8,0,0,0-2.74,1.17l-28.28,18.3a6.49,6.49,0,0,0-2.72,4.36L175.37,158c-.8,4.07,2.18,9.87,6.51,12.66l73.87,47.65A9.09,9.09,0,0,0,260.58,220Zm13.09-78-6.35,19.31c-.93,2.81-.82,6.34.32,10.22l6.28,21.35c.64,2.2.27,4-.93,4.48l-2,.8a6,6,0,0,0-3.57,4.23l-3.78,13.55a3,3,0,0,1-1.81,2.17c-1.34.52-3.21.09-5.14-1.15l-73.87-47.65c-3.67-2.37-6.41-7.55-5.76-10.88l3.41-17.4a4.82,4.82,0,0,1,2-3.25l28.28-18.3a7,7,0,0,1,2.21-.94L243,111.2c3.11-.74,7.38,1.19,11.15,5l16.12,16.55c2.68,2.75,4.17,6.76,3.39,9.13Z" transform="translate(-94.34 -51)"/><path class="cls-2" d="M196,166.78,230.26,189c2.79,1.81,5.21,1,5.39-1.83l.67-10.49c.18-2.82-1.94-6.57-4.73-8.38l-34.27-22.18c-2.79-1.81-5.21-1-5.39,1.83l-.67,10.49C191.08,161.22,193.2,165,196,166.78Z" transform="translate(-94.34 -51)"/><path class="cls-2" d="M248.68,131.6a.23.23,0,0,1,.08-.3l5.58-3.19a5.05,5.05,0,0,1,2.67.35l2.5,1.45c2.45,1.42,4.46,5.27,4.46,8.55a4.31,4.31,0,0,1-1.17,3.3l-.06.06a2.28,2.28,0,0,1-.75.44l-5,2.93a.31.31,0,0,1-.41-.11Z" transform="translate(-94.34 -51)"/><path class="cls-2" d="M198.67,156.31l.57-8.86,32.35,20.94c2.79,1.81,4.91,5.56,4.73,8.38l-.57,8.86-32.34-20.94C200.61,162.88,198.49,159.13,198.67,156.31Z" transform="translate(-94.34 -51)"/><path class="cls-3" d="M201,162.18l.57-8.86,32.34,20.94c2.8,1.81,4.92,5.56,4.74,8.38l-.57,8.85-32.35-20.93C203,168.75,200.85,165,201,162.18Z" transform="translate(-94.34 -51)"/><polygon class="cls-4" points="201.19 134.83 197.85 146.47 191.75 139.86 201.19 134.83"/><path class="cls-4" d="M267.59,166.39a13,13,0,0,1,.54-4.73l6.36-19.31a6.63,6.63,0,0,0,.06-3.33l.85-.45,26.45-14.73a6.48,6.48,0,0,1-.09,3.15l-6.36,19.32a12.74,12.74,0,0,0-.56,3.93l-26.95,16.15Z" transform="translate(-94.34 -51)"/><path class="cls-3" d="M257.16,130.82l2.51,1.45c2.14,1.24,3.95,4.34,4.36,7.3a3.67,3.67,0,0,1-1.08,2.19l-.05.06a2.39,2.39,0,0,1-.75.44l-5,2.93a.29.29,0,0,1-.4-.11l-6.94-11.9,4.74-2.71A5,5,0,0,1,257.16,130.82Z" transform="translate(-94.34 -51)"/><path class="cls-4" d="M247.83,131.21a1.05,1.05,0,0,1,.51-.66l5.22-3,.67-.31a4.67,4.67,0,0,1,3.21.45l2.5,1.46c2.69,1.56,4.88,5.72,4.88,9.29a5.18,5.18,0,0,1-1.4,3.9l-.13.12a3.12,3.12,0,0,1-.94.57l-5,2.88a1.1,1.1,0,0,1-.58.16,1.17,1.17,0,0,1-1-.58L247.94,132h0A1.06,1.06,0,0,1,247.83,131.21ZM257,144.16l1.16-.67-1.27-6.84,5.1-2.56a8.15,8.15,0,0,0-2.91-3.43l-2.5-1.45a3.24,3.24,0,0,0-1.48-.28c-.19,0-.48.08-.61.09l-4.74,2.71Z" transform="translate(-94.34 -51)"/><path class="cls-4" d="M191.08,147.85a3.65,3.65,0,0,1,1.87-3.23c1.32-.67,3.08-.4,4.84.74l34.26,22.18c3.08,2,5.33,6,5.13,9.15v.05s0,.06,0,.08l-.67,10.32h0v.05a3.65,3.65,0,0,1-1.87,3.23,3.49,3.49,0,0,1-1.58.36,6.1,6.1,0,0,1-3.26-1.1L195.53,167.5c-3.08-2-5.33-6-5.13-9.16Zm44.38,28.78c.12-2.48-1.85-5.9-4.34-7.51L200,149l-.47,7.4c-.16,2.49,1.83,6,4.34,7.59L235,184.1Zm-39-10.58,34.26,22.18a3.38,3.38,0,0,0,3.14.65,2,2,0,0,0,.93-1.8l.07-1-31.92-20.66a12,12,0,0,1-4.16-4.91l-4.87,3.05A9.6,9.6,0,0,0,196.46,166.05Z" transform="translate(-94.34 -51)"/><path class="cls-4" d="M272.55,197.59l13.66-7.79L302,207c6,6.55,10.18,15,11.25,22.48a2,2,0,0,1-.69,2l-14.05,7.22-27.18-34.28-.26-.32ZM299,236.44l.54-.28-1.94-6.77,12.29-6.23a45.86,45.86,0,0,0-9.14-15L286,192l-.06-.06-11.9,6.79L273,203.58Z" transform="translate(-94.34 -51)"/><path class="cls-3" d="M289.75,270.76l4.73,6.68a14.64,14.64,0,0,1,2,4,3.37,3.37,0,0,1-1.15,1.74l-13.27,10.35-.75.44,3.82-5.36-.57-4,.31-.44-1.39-9.77Z" transform="translate(-94.34 -51)"/><path class="cls-4" d="M277.32,296.77l5.8-3.41L296.49,283c2.61-2,2.21-6.95-.94-11.4l-5.18-7.33-7.79,4.57,2,14.24-8.68,12.2A1.07,1.07,0,0,0,277.32,296.77Zm12.56-30.27,4.27,6c2.52,3.57,3.1,7.63,1.28,9l-13.27,10.34-3.06,1.8,7.3-10.26-2-13.77Z" transform="translate(-94.34 -51)"/><path class="cls-2" d="M278.89,287.13a82.75,82.75,0,0,0,4.62-17.88l4.73,6.68c2.83,4,3.32,8.49,1.11,10.22L276.08,296.5a1.08,1.08,0,0,1-.9.14Z" transform="translate(-94.34 -51)"/><path class="cls-4" d="M275.51,297.54a1.72,1.72,0,0,0,1.09-.36l13.27-10.35c2.62-2,2.22-6.94-.93-11.4l-5.19-7.33-1.09,1a81.44,81.44,0,0,1-4.57,17.7L274,297.28l1,.21A3,3,0,0,0,275.51,297.54ZM284,271.46l3.51,5c2.52,3.57,3.1,7.62,1.28,9l-12,9.37,2.88-7.39A82,82,0,0,0,284,271.46Z" transform="translate(-94.34 -51)"/><polygon class="cls-2" points="171.62 257.7 182.08 251.35 182.69 249.47 172.23 255.82 171.62 257.7"/><polygon class="cls-2" points="111.43 209.22 112.16 208.04 125.94 201.04 127.08 202.05 127.05 202.11 111.19 210.16 111.14 210.1 111.43 209.22"/><path class="cls-2" d="M254.12,279.29l1.2,6.24a14.56,14.56,0,0,0,1.79,5.15l-.74,1.1a14.38,14.38,0,0,1-2.27-6l-1.41-7.44Z" transform="translate(-94.34 -51)"/><path class="cls-3" d="M170.89,232.61l.73-1.39-.48-1.22,0-1.13,1.06-2-.48-1.23.16-10.34L166,208.1l18.53-10.88h0l-1.89,6.46c-.17,1.43-.28,2.72-.41,3.94a27.24,27.24,0,0,1-1.21,2.62v0l.68.84a14.08,14.08,0,0,1-1.27,3.48v0l16.22,20a12.78,12.78,0,0,1,2.84,7.63,12.55,12.55,0,0,1-1.07,2.51l-2.22,3.88a7.17,7.17,0,0,1-2.43,2.52h0c-.06,0-.12.06-.17.1l-9.07,5a.53.53,0,0,1-.75-.27l-5.73-14.39Z" transform="translate(-94.34 -51)"/><path class="cls-4" d="M171.11,224.94l.17-10.2L163,204.64l.4-.75,23-13.5-.88,7.45a34.07,34.07,0,0,1-3.28,11.47l15.87,19.53a13.8,13.8,0,0,1,1.25,15.47l-2.22,3.88a8,8,0,0,1-2.73,2.83l-9.28,5.09a1.38,1.38,0,0,1-.66.17,1.41,1.41,0,0,1-1.29-.88l-5.68-14.27-8.49-10.57,2.45-4.61Zm0,5.42,7.86,9.78,5.71,14.28,3.13-1.72,4-10.77,7.65-4.15a12,12,0,0,0-2.64-7.85l-16.22-20-.26-.37.1-.42.07-.21a31.86,31.86,0,0,0,3.35-11.33l.47-4-19,11.14,7.64,9.37-.17,10.49.57,1.44Z" transform="translate(-94.34 -51)"/><path class="cls-2" d="M164.05,204.57l24.31,29.83a12.85,12.85,0,0,1,1.18,14.49l-2.23,3.88a7.12,7.12,0,0,1-11.73.92l-18.9-23.37a9.18,9.18,0,0,1-1-10.07Z" transform="translate(-94.34 -51)"/><path class="cls-4" d="M181.13,257.22c.21,0,.42,0,.62,0a8,8,0,0,0,6.3-4l2.23-3.88A13.8,13.8,0,0,0,189,233.85l-24.8-30.42-.79.46-8.48,16a10,10,0,0,0,1,11l18.91,23.37A8,8,0,0,0,181.13,257.22Zm-16.93-51.1,23.5,28.82a12.06,12.06,0,0,1,1.09,13.52l-2.22,3.88a6.27,6.27,0,0,1-10.32.81l-18.91-23.37a8.3,8.3,0,0,1-.87-9.12Z" transform="translate(-94.34 -51)"/><polygon class="cls-4" points="62.06 266.74 58.68 274.51 64.43 277.66 76.28 276.8 81.78 268.65 79.5 269.55 71.96 270.41 66.8 268.63 62.06 266.74"/><path class="cls-2" d="M166.61,330l-.21-1.31s-5.8.75-9-1l-.64,1.16C160.63,330.87,166.54,330,166.61,330Z" transform="translate(-94.34 -51)"/><path class="cls-2" d="M251.3,143.65l2.51,1.45c2.45,1.42,4.45-.1,4.45-3.38h0c0-3.28-2-7.12-4.45-8.54l-2.51-1.45c-2.45-1.42-4.45.1-4.45,3.38h0C246.85,138.39,248.85,142.23,251.3,143.65Z" transform="translate(-94.34 -51)"/><path class="cls-4" d="M255.57,146.5a3.08,3.08,0,0,0,1.57-.42c1.26-.73,2-2.32,2-4.36,0-3.56-2.19-7.73-4.89-9.29l-2.5-1.45a3.65,3.65,0,0,0-3.76-.23c-1.26.73-2,2.31-2,4.36,0,3.56,2.19,7.73,4.88,9.29l2.51,1.45A4.4,4.4,0,0,0,255.57,146.5Zm-6-14.45a2.78,2.78,0,0,1,1.32.42l2.51,1.45c2.18,1.27,4,4.84,4,7.8a3.25,3.25,0,0,1-1.11,2.87,2.12,2.12,0,0,1-2.06-.23l-2.5-1.45c-2.18-1.27-4-4.84-4-7.8a3.25,3.25,0,0,1,1.11-2.87A1.5,1.5,0,0,1,249.55,132.05Z" transform="translate(-94.34 -51)"/><path class="cls-2" d="M268.24,202.62a5.18,5.18,0,0,1,3.05-3.66l2-.81.13-.07,14.78,16.19c5.88,6.44,10,14.64,11,22,.17,1.23-.71,1.71-1.8,1l-32.81-21.71Z" transform="translate(-94.34 -51)"/><path class="cls-4" d="M298.39,238.47a1.64,1.64,0,0,0,.92-.26,2,2,0,0,0,.78-2.05c-1.06-7.52-5.27-15.92-11.25-22.48L273.64,197l-.72.35-1.94.78a6,6,0,0,0-3.57,4.22l-3.78,13.55L297,238A2.6,2.6,0,0,0,298.39,238.47Zm-25.18-39.35,14.36,15.73c5.76,6.3,9.81,14.36,10.82,21.55a.69.69,0,0,1,0,.38,3,3,0,0,1-.46-.23l-32.29-21.36,3.44-12.34a4.39,4.39,0,0,1,2.55-3.09Z" transform="translate(-94.34 -51)"/></svg>